<svg xmlns="http://www.w3.org/2000/svg" xmlns:xlink="http://www.w3.org/1999/xlink" width="500" zoomAndPan="magnify" viewBox="0 0 375 74.999997" height="100" preserveAspectRatio="xMidYMid meet" version="1.0"><defs><g/><clipPath id="98437ea5d3"><path d="M 100.078125 12.136719 L 148.078125 12.136719 L 148.078125 62.386719 L 100.078125 62.386719 Z M 100.078125 12.136719 " clip-rule="nonzero"/></clipPath><clipPath id="032d609562"><path d="M 127.734375 35.675781 L 106.246094 35.675781 C 105.414062 35.675781 104.8125 34.878906 105.035156 34.078125 L 110.933594 13.054688 C 111.085938 12.515625 111.582031 12.136719 112.144531 12.136719 L 133.632812 12.136719 C 134.464844 12.136719 135.066406 12.933594 134.84375 13.734375 L 128.945312 34.757812 C 128.792969 35.300781 128.296875 35.675781 127.734375 35.675781 Z M 113.777344 51.542969 L 116.816406 40.71875 C 117.039062 39.917969 116.4375 39.121094 115.605469 39.121094 L 104.558594 39.121094 C 103.996094 39.121094 103.5 39.496094 103.347656 40.039062 L 100.3125 50.863281 C 100.085938 51.664062 100.6875 52.460938 101.523438 52.460938 L 112.566406 52.460938 C 113.128906 52.460938 113.625 52.085938 113.777344 51.542969 Z M 119.367188 40.039062 L 113.46875 61.058594 C 113.242188 61.863281 113.847656 62.65625 114.679688 62.65625 L 136.164062 62.65625 C 136.726562 62.65625 137.222656 62.28125 137.375 61.738281 L 143.273438 40.71875 C 143.5 39.917969 142.894531 39.121094 142.0625 39.121094 L 120.578125 39.121094 C 120.015625 39.121094 119.519531 39.496094 119.367188 40.039062 Z M 134.53125 23.253906 L 131.496094 34.078125 C 131.269531 34.878906 131.875 35.675781 132.707031 35.675781 L 143.75 35.675781 C 144.316406 35.675781 144.808594 35.300781 144.960938 34.757812 L 148 23.933594 C 148.222656 23.132812 147.621094 22.335938 146.789062 22.335938 L 135.742188 22.335938 C 135.179688 22.335938 134.683594 22.710938 134.53125 23.253906 Z M 134.53125 23.253906 " clip-rule="nonzero"/></clipPath><linearGradient x1="114.296456" gradientTransform="matrix(0.101039, 0, 0, 0.101039, 100.26356, 12.138587)" y1="-47.633937" x2="357.477202" gradientUnits="userSpaceOnUse" y2="544.845228" id="428b97c46a"><stop stop-opacity="1" stop-color="rgb(0%, 39.99939%, 100%)" offset="0"/><stop stop-opacity="1" stop-color="rgb(0%, 39.99939%, 100%)" offset="0.0625"/><stop stop-opacity="1" stop-color="rgb(0.123596%, 40.074158%, 100%)" offset="0.09375"/><stop stop-opacity="1" stop-color="rgb(0.639343%, 40.385437%, 100%)" offset="0.0976562"/><stop stop-opacity="1" stop-color="rgb(1.03302%, 40.621948%, 100%)" offset="0.101562"/><stop stop-opacity="1" stop-color="rgb(1.425171%, 40.858459%, 100%)" offset="0.105469"/><stop stop-opacity="1" stop-color="rgb(1.818848%, 41.094971%, 100%)" offset="0.109375"/><stop stop-opacity="1" stop-color="rgb(2.210999%, 41.331482%, 100%)" offset="0.113281"/><stop stop-opacity="1" stop-color="rgb(2.604675%, 41.567993%, 100%)" offset="0.117188"/><stop stop-opacity="1" stop-color="rgb(2.996826%, 41.804504%, 100%)" offset="0.121094"/><stop stop-opacity="1" stop-color="rgb(3.390503%, 42.041016%, 100%)" offset="0.125"/><stop stop-opacity="1" stop-color="rgb(3.782654%, 42.277527%, 100%)" offset="0.128906"/><stop stop-opacity="1" stop-color="rgb(4.176331%, 42.514038%, 100%)" offset="0.132812"/><stop stop-opacity="1" stop-color="rgb(4.568481%, 42.750549%, 100%)" offset="0.136719"/><stop stop-opacity="1" stop-color="rgb(4.962158%, 42.987061%, 100%)" offset="0.140625"/><stop stop-opacity="1" stop-color="rgb(5.354309%, 43.223572%, 100%)" offset="0.144531"/><stop stop-opacity="1" stop-color="rgb(5.747986%, 43.460083%, 100%)" offset="0.148438"/><stop stop-opacity="1" stop-color="rgb(6.140137%, 43.696594%, 100%)" offset="0.152344"/><stop stop-opacity="1" stop-color="rgb(6.533813%, 43.933105%, 100%)" offset="0.15625"/><stop stop-opacity="1" stop-color="rgb(6.925964%, 44.169617%, 100%)" offset="0.160156"/><stop stop-opacity="1" stop-color="rgb(7.319641%, 44.407654%, 100%)" offset="0.164062"/><stop stop-opacity="1" stop-color="rgb(7.711792%, 44.644165%, 100%)" offset="0.167969"/><stop stop-opacity="1" stop-color="rgb(8.105469%, 44.880676%, 100%)" offset="0.171875"/><stop stop-opacity="1" stop-color="rgb(8.49762%, 45.117188%, 100%)" offset="0.175781"/><stop stop-opacity="1" stop-color="rgb(8.891296%, 45.353699%, 100%)" offset="0.179687"/><stop stop-opacity="1" stop-color="rgb(9.283447%, 45.59021%, 100%)" offset="0.183594"/><stop stop-opacity="1" stop-color="rgb(9.677124%, 45.826721%, 100%)" offset="0.1875"/><stop stop-opacity="1" stop-color="rgb(10.069275%, 46.063232%, 100%)" offset="0.191406"/><stop stop-opacity="1" stop-color="rgb(10.462952%, 46.299744%, 100%)" offset="0.195312"/><stop stop-opacity="1" stop-color="rgb(10.855103%, 46.536255%, 100%)" offset="0.199219"/><stop stop-opacity="1" stop-color="rgb(11.248779%, 46.772766%, 100%)" offset="0.203125"/><stop stop-opacity="1" stop-color="rgb(11.64093%, 47.009277%, 100%)" offset="0.207031"/><stop stop-opacity="1" stop-color="rgb(12.034607%, 47.245789%, 100%)" offset="0.210938"/><stop stop-opacity="1" stop-color="rgb(12.426758%, 47.4823%, 100%)" offset="0.214844"/><stop stop-opacity="1" stop-color="rgb(12.820435%, 47.718811%, 100%)" offset="0.21875"/><stop stop-opacity="1" stop-color="rgb(13.212585%, 47.955322%, 100%)" offset="0.222656"/><stop stop-opacity="1" stop-color="rgb(13.606262%, 48.191833%, 100%)" offset="0.226562"/><stop stop-opacity="1" stop-color="rgb(13.998413%, 48.428345%, 100%)" offset="0.230469"/><stop stop-opacity="1" stop-color="rgb(14.390564%, 48.664856%, 100%)" offset="0.234375"/><stop stop-opacity="1" stop-color="rgb(14.782715%, 48.901367%, 100%)" offset="0.238281"/><stop stop-opacity="1" stop-color="rgb(15.176392%, 49.137878%, 100%)" offset="0.242188"/><stop stop-opacity="1" stop-color="rgb(15.568542%, 49.37439%, 100%)" offset="0.246094"/><stop stop-opacity="1" stop-color="rgb(15.962219%, 49.610901%, 100%)" offset="0.25"/><stop stop-opacity="1" stop-color="rgb(16.35437%, 49.847412%, 100%)" offset="0.253906"/><stop stop-opacity="1" stop-color="rgb(16.748047%, 50.083923%, 100%)" offset="0.257812"/><stop stop-opacity="1" stop-color="rgb(17.140198%, 50.320435%, 100%)" offset="0.261719"/><stop stop-opacity="1" stop-color="rgb(17.533875%, 50.558472%, 100%)" offset="0.265625"/><stop stop-opacity="1" stop-color="rgb(17.926025%, 50.794983%, 100%)" offset="0.269531"/><stop stop-opacity="1" stop-color="rgb(18.319702%, 51.031494%, 100%)" offset="0.273437"/><stop stop-opacity="1" stop-color="rgb(18.711853%, 51.268005%, 100%)" offset="0.277344"/><stop stop-opacity="1" stop-color="rgb(19.10553%, 51.504517%, 100%)" offset="0.28125"/><stop stop-opacity="1" stop-color="rgb(19.497681%, 51.741028%, 100%)" offset="0.285156"/><stop stop-opacity="1" stop-color="rgb(19.891357%, 51.977539%, 100%)" offset="0.289062"/><stop stop-opacity="1" stop-color="rgb(20.283508%, 52.21405%, 100%)" offset="0.292969"/><stop stop-opacity="1" stop-color="rgb(20.677185%, 52.450562%, 100%)" offset="0.296875"/><stop stop-opacity="1" stop-color="rgb(21.069336%, 52.687073%, 100%)" offset="0.300781"/><stop stop-opacity="1" stop-color="rgb(21.463013%, 52.923584%, 100%)" offset="0.304688"/><stop stop-opacity="1" stop-color="rgb(21.855164%, 53.160095%, 100%)" offset="0.308594"/><stop stop-opacity="1" stop-color="rgb(22.24884%, 53.396606%, 100%)" offset="0.3125"/><stop stop-opacity="1" stop-color="rgb(22.640991%, 53.633118%, 100%)" offset="0.316406"/><stop stop-opacity="1" stop-color="rgb(23.034668%, 53.869629%, 100%)" offset="0.320312"/><stop stop-opacity="1" stop-color="rgb(23.426819%, 54.10614%, 100%)" offset="0.324219"/><stop stop-opacity="1" stop-color="rgb(23.820496%, 54.342651%, 100%)" offset="0.328125"/><stop stop-opacity="1" stop-color="rgb(24.212646%, 54.579163%, 100%)" offset="0.332031"/><stop stop-opacity="1" stop-color="rgb(24.606323%, 54.815674%, 100%)" offset="0.335938"/><stop stop-opacity="1" stop-color="rgb(24.998474%, 55.052185%, 100%)" offset="0.339844"/><stop stop-opacity="1" stop-color="rgb(25.392151%, 55.288696%, 100%)" offset="0.34375"/><stop stop-opacity="1" stop-color="rgb(25.784302%, 55.525208%, 100%)" offset="0.347656"/><stop stop-opacity="1" stop-color="rgb(26.177979%, 55.761719%, 100%)" offset="0.351562"/><stop stop-opacity="1" stop-color="rgb(26.570129%, 55.99823%, 100%)" offset="0.355469"/><stop stop-opacity="1" stop-color="rgb(26.963806%, 56.236267%, 100%)" offset="0.359375"/><stop stop-opacity="1" stop-color="rgb(27.355957%, 56.472778%, 100%)" offset="0.363281"/><stop stop-opacity="1" stop-color="rgb(27.749634%, 56.70929%, 100%)" offset="0.367187"/><stop stop-opacity="1" stop-color="rgb(28.141785%, 56.945801%, 100%)" offset="0.371094"/><stop stop-opacity="1" stop-color="rgb(28.535461%, 57.182312%, 100%)" offset="0.375"/><stop stop-opacity="1" stop-color="rgb(28.927612%, 57.418823%, 100%)" offset="0.378906"/><stop stop-opacity="1" stop-color="rgb(29.321289%, 57.655334%, 100%)" offset="0.382812"/><stop stop-opacity="1" stop-color="rgb(29.71344%, 57.891846%, 100%)" offset="0.386719"/><stop stop-opacity="1" stop-color="rgb(30.107117%, 58.128357%, 100%)" offset="0.390625"/><stop stop-opacity="1" stop-color="rgb(30.499268%, 58.364868%, 100%)" offset="0.394531"/><stop stop-opacity="1" stop-color="rgb(30.892944%, 58.601379%, 100%)" offset="0.398437"/><stop stop-opacity="1" stop-color="rgb(31.285095%, 58.837891%, 100%)" offset="0.402344"/><stop stop-opacity="1" stop-color="rgb(31.678772%, 59.074402%, 100%)" offset="0.40625"/><stop stop-opacity="1" stop-color="rgb(32.070923%, 59.310913%, 100%)" offset="0.410156"/><stop stop-opacity="1" stop-color="rgb(32.4646%, 59.547424%, 100%)" offset="0.414062"/><stop stop-opacity="1" stop-color="rgb(32.85675%, 59.783936%, 100%)" offset="0.417969"/><stop stop-opacity="1" stop-color="rgb(33.250427%, 60.020447%, 100%)" offset="0.421875"/><stop stop-opacity="1" stop-color="rgb(33.642578%, 60.256958%, 100%)" offset="0.425781"/><stop stop-opacity="1" stop-color="rgb(34.036255%, 60.493469%, 100%)" offset="0.429687"/><stop stop-opacity="1" stop-color="rgb(34.428406%, 60.72998%, 100%)" offset="0.433594"/><stop stop-opacity="1" stop-color="rgb(34.822083%, 60.966492%, 100%)" offset="0.4375"/><stop stop-opacity="1" stop-color="rgb(35.214233%, 61.203003%, 100%)" offset="0.441406"/><stop stop-opacity="1" stop-color="rgb(35.60791%, 61.439514%, 100%)" offset="0.445312"/><stop stop-opacity="1" stop-color="rgb(36.000061%, 61.676025%, 100%)" offset="0.449219"/><stop stop-opacity="1" stop-color="rgb(36.393738%, 61.914062%, 100%)" offset="0.453125"/><stop stop-opacity="1" stop-color="rgb(36.785889%, 62.150574%, 100%)" offset="0.457031"/><stop stop-opacity="1" stop-color="rgb(37.179565%, 62.387085%, 100%)" offset="0.460937"/><stop stop-opacity="1" stop-color="rgb(37.571716%, 62.623596%, 100%)" offset="0.464844"/><stop stop-opacity="1" stop-color="rgb(37.965393%, 62.860107%, 100%)" offset="0.46875"/><stop stop-opacity="1" stop-color="rgb(38.357544%, 63.096619%, 100%)" offset="0.472656"/><stop stop-opacity="1" stop-color="rgb(38.751221%, 63.33313%, 100%)" offset="0.476562"/><stop stop-opacity="1" stop-color="rgb(39.143372%, 63.569641%, 100%)" offset="0.480469"/><stop stop-opacity="1" stop-color="rgb(39.535522%, 63.806152%, 100%)" offset="0.484375"/><stop stop-opacity="1" stop-color="rgb(39.927673%, 64.042664%, 100%)" offset="0.488281"/><stop stop-opacity="1" stop-color="rgb(40.32135%, 64.279175%, 100%)" offset="0.492187"/><stop stop-opacity="1" stop-color="rgb(40.713501%, 64.515686%, 100%)" offset="0.496094"/><stop stop-opacity="1" stop-color="rgb(41.107178%, 64.752197%, 100%)" offset="0.5"/><stop stop-opacity="1" stop-color="rgb(41.499329%, 64.988708%, 100%)" offset="0.503906"/><stop stop-opacity="1" stop-color="rgb(41.893005%, 65.22522%, 100%)" offset="0.507812"/><stop stop-opacity="1" stop-color="rgb(42.285156%, 65.461731%, 100%)" offset="0.511719"/><stop stop-opacity="1" stop-color="rgb(42.678833%, 65.698242%, 100%)" offset="0.515625"/><stop stop-opacity="1" stop-color="rgb(43.070984%, 65.934753%, 100%)" offset="0.519531"/><stop stop-opacity="1" stop-color="rgb(43.464661%, 66.171265%, 100%)" offset="0.523438"/><stop stop-opacity="1" stop-color="rgb(43.856812%, 66.407776%, 100%)" offset="0.527344"/><stop stop-opacity="1" stop-color="rgb(44.250488%, 66.644287%, 100%)" offset="0.53125"/><stop stop-opacity="1" stop-color="rgb(44.642639%, 66.880798%, 100%)" offset="0.535156"/><stop stop-opacity="1" stop-color="rgb(45.036316%, 67.11731%, 100%)" offset="0.539063"/><stop stop-opacity="1" stop-color="rgb(45.428467%, 67.353821%, 100%)" offset="0.542969"/><stop stop-opacity="1" stop-color="rgb(45.822144%, 67.590332%, 100%)" offset="0.546875"/><stop stop-opacity="1" stop-color="rgb(46.214294%, 67.826843%, 100%)" offset="0.550781"/><stop stop-opacity="1" stop-color="rgb(46.607971%, 68.06488%, 100%)" offset="0.554688"/><stop stop-opacity="1" stop-color="rgb(47.000122%, 68.301392%, 100%)" offset="0.558594"/><stop stop-opacity="1" stop-color="rgb(47.393799%, 68.537903%, 100%)" offset="0.5625"/><stop stop-opacity="1" stop-color="rgb(47.78595%, 68.774414%, 100%)" offset="0.566406"/><stop stop-opacity="1" stop-color="rgb(48.179626%, 69.010925%, 100%)" offset="0.570313"/><stop stop-opacity="1" stop-color="rgb(48.571777%, 69.247437%, 100%)" offset="0.574219"/><stop stop-opacity="1" stop-color="rgb(48.965454%, 69.483948%, 100%)" offset="0.578125"/><stop stop-opacity="1" stop-color="rgb(49.357605%, 69.720459%, 100%)" offset="0.582031"/><stop stop-opacity="1" stop-color="rgb(49.751282%, 69.95697%, 100%)" offset="0.585938"/><stop stop-opacity="1" stop-color="rgb(50.143433%, 70.193481%, 100%)" offset="0.589844"/><stop stop-opacity="1" stop-color="rgb(50.537109%, 70.429993%, 100%)" offset="0.59375"/><stop stop-opacity="1" stop-color="rgb(50.92926%, 70.666504%, 100%)" offset="0.597656"/><stop stop-opacity="1" stop-color="rgb(51.322937%, 70.903015%, 100%)" offset="0.601563"/><stop stop-opacity="1" stop-color="rgb(51.715088%, 71.139526%, 100%)" offset="0.605469"/><stop stop-opacity="1" stop-color="rgb(52.108765%, 71.376038%, 100%)" offset="0.609375"/><stop stop-opacity="1" stop-color="rgb(52.500916%, 71.612549%, 100%)" offset="0.613281"/><stop stop-opacity="1" stop-color="rgb(52.894592%, 71.84906%, 100%)" offset="0.617188"/><stop stop-opacity="1" stop-color="rgb(53.286743%, 72.085571%, 100%)" offset="0.621094"/><stop stop-opacity="1" stop-color="rgb(53.68042%, 72.322083%, 100%)" offset="0.625"/><stop stop-opacity="1" stop-color="rgb(54.072571%, 72.558594%, 100%)" offset="0.628906"/><stop stop-opacity="1" stop-color="rgb(54.466248%, 72.795105%, 100%)" offset="0.632813"/><stop stop-opacity="1" stop-color="rgb(54.858398%, 73.031616%, 100%)" offset="0.636719"/><stop stop-opacity="1" stop-color="rgb(55.252075%, 73.268127%, 100%)" offset="0.640625"/><stop stop-opacity="1" stop-color="rgb(55.644226%, 73.504639%, 100%)" offset="0.644531"/><stop stop-opacity="1" stop-color="rgb(56.037903%, 73.742676%, 100%)" offset="0.648438"/><stop stop-opacity="1" stop-color="rgb(56.430054%, 73.979187%, 100%)" offset="0.652344"/><stop stop-opacity="1" stop-color="rgb(56.82373%, 74.215698%, 100%)" offset="0.65625"/><stop stop-opacity="1" stop-color="rgb(57.215881%, 74.452209%, 100%)" offset="0.660156"/><stop stop-opacity="1" stop-color="rgb(57.609558%, 74.688721%, 100%)" offset="0.664063"/><stop stop-opacity="1" stop-color="rgb(58.001709%, 74.925232%, 100%)" offset="0.667969"/><stop stop-opacity="1" stop-color="rgb(58.395386%, 75.161743%, 100%)" offset="0.671875"/><stop stop-opacity="1" stop-color="rgb(58.787537%, 75.398254%, 100%)" offset="0.675781"/><stop stop-opacity="1" stop-color="rgb(59.181213%, 75.634766%, 100%)" offset="0.679688"/><stop stop-opacity="1" stop-color="rgb(59.573364%, 75.871277%, 100%)" offset="0.683594"/><stop stop-opacity="1" stop-color="rgb(59.967041%, 76.107788%, 100%)" offset="0.6875"/><stop stop-opacity="1" stop-color="rgb(60.359192%, 76.344299%, 100%)" offset="0.691406"/><stop stop-opacity="1" stop-color="rgb(60.752869%, 76.580811%, 100%)" offset="0.695313"/><stop stop-opacity="1" stop-color="rgb(61.14502%, 76.817322%, 100%)" offset="0.699219"/><stop stop-opacity="1" stop-color="rgb(61.538696%, 77.053833%, 100%)" offset="0.703125"/><stop stop-opacity="1" stop-color="rgb(61.930847%, 77.290344%, 100%)" offset="0.707031"/><stop stop-opacity="1" stop-color="rgb(62.324524%, 77.526855%, 100%)" offset="0.710938"/><stop stop-opacity="1" stop-color="rgb(62.716675%, 77.763367%, 100%)" offset="0.714844"/><stop stop-opacity="1" stop-color="rgb(63.110352%, 77.999878%, 100%)" offset="0.71875"/><stop stop-opacity="1" stop-color="rgb(63.502502%, 78.236389%, 100%)" offset="0.722656"/><stop stop-opacity="1" stop-color="rgb(63.896179%, 78.4729%, 100%)" offset="0.726562"/><stop stop-opacity="1" stop-color="rgb(64.28833%, 78.709412%, 100%)" offset="0.730469"/><stop stop-opacity="1" stop-color="rgb(64.682007%, 78.945923%, 100%)" offset="0.734375"/><stop stop-opacity="1" stop-color="rgb(65.074158%, 79.182434%, 100%)" offset="0.738281"/><stop stop-opacity="1" stop-color="rgb(65.466309%, 79.420471%, 100%)" offset="0.742188"/><stop stop-opacity="1" stop-color="rgb(65.858459%, 79.656982%, 100%)" offset="0.746094"/><stop stop-opacity="1" stop-color="rgb(66.252136%, 79.893494%, 100%)" offset="0.75"/><stop stop-opacity="1" stop-color="rgb(66.644287%, 80.130005%, 100%)" offset="0.753906"/><stop stop-opacity="1" stop-color="rgb(67.037964%, 80.366516%, 100%)" offset="0.757812"/><stop stop-opacity="1" stop-color="rgb(67.430115%, 80.603027%, 100%)" offset="0.761719"/><stop stop-opacity="1" stop-color="rgb(67.823792%, 80.839539%, 100%)" offset="0.765625"/><stop stop-opacity="1" stop-color="rgb(68.215942%, 81.07605%, 100%)" offset="0.769531"/><stop stop-opacity="1" stop-color="rgb(68.609619%, 81.312561%, 100%)" offset="0.773437"/><stop stop-opacity="1" stop-color="rgb(69.00177%, 81.549072%, 100%)" offset="0.777344"/><stop stop-opacity="1" stop-color="rgb(69.395447%, 81.785583%, 100%)" offset="0.78125"/><stop stop-opacity="1" stop-color="rgb(69.787598%, 82.022095%, 100%)" offset="0.785156"/><stop stop-opacity="1" stop-color="rgb(70.181274%, 82.258606%, 100%)" offset="0.789062"/><stop stop-opacity="1" stop-color="rgb(70.573425%, 82.495117%, 100%)" offset="0.792969"/><stop stop-opacity="1" stop-color="rgb(70.967102%, 82.731628%, 100%)" offset="0.796875"/><stop stop-opacity="1" stop-color="rgb(71.359253%, 82.96814%, 100%)" offset="0.800781"/><stop stop-opacity="1" stop-color="rgb(71.75293%, 83.204651%, 100%)" offset="0.804687"/><stop stop-opacity="1" stop-color="rgb(72.145081%, 83.441162%, 100%)" offset="0.808594"/><stop stop-opacity="1" stop-color="rgb(72.538757%, 83.677673%, 100%)" offset="0.8125"/><stop stop-opacity="1" stop-color="rgb(72.930908%, 83.914185%, 100%)" offset="0.816406"/><stop stop-opacity="1" stop-color="rgb(73.324585%, 84.150696%, 100%)" offset="0.820312"/><stop stop-opacity="1" stop-color="rgb(73.716736%, 84.387207%, 100%)" offset="0.824219"/><stop stop-opacity="1" stop-color="rgb(74.110413%, 84.623718%, 100%)" offset="0.828125"/><stop stop-opacity="1" stop-color="rgb(74.502563%, 84.860229%, 100%)" offset="0.832031"/><stop stop-opacity="1" stop-color="rgb(74.89624%, 85.098267%, 100%)" offset="0.835937"/><stop stop-opacity="1" stop-color="rgb(74.897766%, 85.098267%, 100%)" offset="0.84375"/><stop stop-opacity="1" stop-color="rgb(74.899292%, 85.099792%, 100%)" offset="0.875"/><stop stop-opacity="1" stop-color="rgb(74.899292%, 85.099792%, 100%)" offset="1"/></linearGradient></defs><g clip-path="url(#98437ea5d3)"><g clip-path="url(#032d609562)"><path fill="url(#428b97c46a)" d="M 100.085938 12.136719 L 100.085938 62.386719 L 148.078125 62.386719 L 148.078125 12.136719 Z M 100.085938 12.136719 " fill-rule="nonzero"/></g></g><g fill="#0066ff" fill-opacity="1"><g transform="translate(173.967718, 41.525671)"><g><path d="M 4.1875 0.1875 C 3.332031 0.1875 2.515625 0.078125 1.734375 -0.140625 C 0.960938 -0.367188 0.34375 -0.660156 -0.125 -1.015625 L 0.890625 -2.921875 C 1.378906 -2.566406 1.929688 -2.289062 2.546875 -2.09375 C 3.160156 -1.90625 3.789062 -1.8125 4.4375 -1.8125 C 5.113281 -1.8125 5.648438 -1.921875 6.046875 -2.140625 C 6.453125 -2.367188 6.65625 -2.675781 6.65625 -3.0625 C 6.65625 -3.382812 6.492188 -3.628906 6.171875 -3.796875 C 5.859375 -3.960938 5.351562 -4.144531 4.65625 -4.34375 C 3.96875 -4.539062 3.398438 -4.734375 2.953125 -4.921875 C 2.515625 -5.117188 2.132812 -5.40625 1.8125 -5.78125 C 1.488281 -6.15625 1.328125 -6.65625 1.328125 -7.28125 C 1.328125 -8.007812 1.53125 -8.648438 1.9375 -9.203125 C 2.34375 -9.753906 2.914062 -10.175781 3.65625 -10.46875 C 4.394531 -10.757812 5.253906 -10.90625 6.234375 -10.90625 C 6.960938 -10.90625 7.648438 -10.828125 8.296875 -10.671875 C 8.941406 -10.515625 9.492188 -10.289062 9.953125 -10 L 9.015625 -8.09375 C 8.617188 -8.363281 8.164062 -8.566406 7.65625 -8.703125 C 7.15625 -8.847656 6.632812 -8.921875 6.09375 -8.921875 C 5.394531 -8.921875 4.835938 -8.796875 4.421875 -8.546875 C 4.015625 -8.304688 3.8125 -7.992188 3.8125 -7.609375 C 3.8125 -7.367188 3.898438 -7.171875 4.078125 -7.015625 C 4.253906 -6.859375 4.472656 -6.726562 4.734375 -6.625 C 5.003906 -6.53125 5.378906 -6.414062 5.859375 -6.28125 C 6.535156 -6.101562 7.09375 -5.914062 7.53125 -5.71875 C 7.976562 -5.53125 8.359375 -5.253906 8.671875 -4.890625 C 8.984375 -4.535156 9.140625 -4.0625 9.140625 -3.46875 C 9.140625 -2.726562 8.929688 -2.082031 8.515625 -1.53125 C 8.109375 -0.988281 7.53125 -0.566406 6.78125 -0.265625 C 6.039062 0.0351562 5.175781 0.1875 4.1875 0.1875 Z M 4.1875 0.1875 "/></g></g></g><g fill="#0066ff" fill-opacity="1"><g transform="translate(183.744499, 41.525671)"><g><path d="M 12.28125 -8.375 C 13.175781 -8.375 13.890625 -8.128906 14.421875 -7.640625 C 14.953125 -7.148438 15.21875 -6.460938 15.21875 -5.578125 C 15.21875 -5.253906 15.179688 -4.914062 15.109375 -4.5625 L 14.203125 0 L 11.8125 0 L 12.6875 -4.40625 C 12.726562 -4.601562 12.75 -4.8125 12.75 -5.03125 C 12.75 -5.445312 12.640625 -5.757812 12.421875 -5.96875 C 12.203125 -6.1875 11.878906 -6.296875 11.453125 -6.296875 C 10.296875 -6.296875 9.570312 -5.609375 9.28125 -4.234375 L 8.453125 0 L 6.046875 0 L 6.921875 -4.40625 C 6.960938 -4.601562 6.984375 -4.804688 6.984375 -5.015625 C 6.984375 -5.429688 6.875 -5.75 6.65625 -5.96875 C 6.4375 -6.1875 6.113281 -6.296875 5.6875 -6.296875 C 4.53125 -6.296875 3.804688 -5.597656 3.515625 -4.203125 L 2.6875 0 L 0.296875 0 L 1.9375 -8.25 L 4.203125 -8.25 L 4.015625 -7.390625 C 4.734375 -8.046875 5.597656 -8.375 6.609375 -8.375 C 7.179688 -8.375 7.6875 -8.253906 8.125 -8.015625 C 8.570312 -7.785156 8.910156 -7.453125 9.140625 -7.015625 C 9.535156 -7.453125 10 -7.785156 10.53125 -8.015625 C 11.0625 -8.253906 11.644531 -8.375 12.28125 -8.375 Z M 12.28125 -8.375 "/></g></g></g><g fill="#0066ff" fill-opacity="1"><g transform="translate(199.819489, 41.525671)"><g><path d="M 10.296875 -8.25 L 8.65625 0 L 6.390625 0 L 6.546875 -0.8125 C 5.859375 -0.1875 5.015625 0.125 4.015625 0.125 C 3.367188 0.125 2.773438 -0.0195312 2.234375 -0.3125 C 1.691406 -0.613281 1.257812 -1.039062 0.9375 -1.59375 C 0.613281 -2.15625 0.453125 -2.816406 0.453125 -3.578125 C 0.453125 -4.484375 0.65625 -5.300781 1.0625 -6.03125 C 1.46875 -6.757812 2.015625 -7.332031 2.703125 -7.75 C 3.398438 -8.164062 4.171875 -8.375 5.015625 -8.375 C 6.273438 -8.375 7.164062 -7.957031 7.6875 -7.125 L 7.90625 -8.25 Z M 4.75 -1.859375 C 5.21875 -1.859375 5.632812 -1.972656 6 -2.203125 C 6.375 -2.429688 6.660156 -2.75 6.859375 -3.15625 C 7.066406 -3.5625 7.171875 -4.03125 7.171875 -4.5625 C 7.171875 -5.125 7.003906 -5.566406 6.671875 -5.890625 C 6.335938 -6.222656 5.875 -6.390625 5.28125 -6.390625 C 4.8125 -6.390625 4.394531 -6.273438 4.03125 -6.046875 C 3.664062 -5.816406 3.378906 -5.492188 3.171875 -5.078125 C 2.960938 -4.671875 2.859375 -4.203125 2.859375 -3.671875 C 2.859375 -3.109375 3.023438 -2.664062 3.359375 -2.34375 C 3.691406 -2.019531 4.15625 -1.859375 4.75 -1.859375 Z M 4.75 -1.859375 "/></g></g></g><g fill="#0066ff" fill-opacity="1"><g transform="translate(210.393127, 41.525671)"><g><path d="M 4 -7.265625 C 4.351562 -7.648438 4.78125 -7.929688 5.28125 -8.109375 C 5.789062 -8.285156 6.390625 -8.375 7.078125 -8.375 L 6.65625 -6.15625 C 6.363281 -6.175781 6.175781 -6.1875 6.09375 -6.1875 C 5.375 -6.1875 4.796875 -6.007812 4.359375 -5.65625 C 3.921875 -5.300781 3.628906 -4.742188 3.484375 -3.984375 L 2.6875 0 L 0.296875 0 L 1.9375 -8.25 L 4.203125 -8.25 Z M 4 -7.265625 "/></g></g></g><g fill="#0066ff" fill-opacity="1"><g transform="translate(216.99782, 41.525671)"><g><path d="M 3.546875 -2.90625 C 3.523438 -2.832031 3.515625 -2.722656 3.515625 -2.578125 C 3.515625 -2.046875 3.804688 -1.78125 4.390625 -1.78125 C 4.703125 -1.78125 5.019531 -1.875 5.34375 -2.0625 L 5.703125 -0.375 C 5.171875 -0.0390625 4.484375 0.125 3.640625 0.125 C 2.867188 0.125 2.25 -0.078125 1.78125 -0.484375 C 1.3125 -0.898438 1.078125 -1.460938 1.078125 -2.171875 C 1.078125 -2.378906 1.101562 -2.617188 1.15625 -2.890625 L 1.8125 -6.21875 L 0.53125 -6.21875 L 0.90625 -8.0625 L 2.171875 -8.0625 L 2.578125 -10.078125 L 4.96875 -10.078125 L 4.5625 -8.0625 L 6.625 -8.0625 L 6.25 -6.21875 L 4.203125 -6.21875 Z M 3.546875 -2.90625 "/></g></g></g><g fill="#0066ff" fill-opacity="1"><g transform="translate(223.663807, 41.525671)"><g><path d="M 1.03125 -5.265625 L 5.359375 -5.265625 L 4.984375 -3.359375 L 0.640625 -3.359375 Z M 1.03125 -5.265625 "/></g></g></g><g fill="#0066ff" fill-opacity="1"><g transform="translate(229.578915, 41.525671)"><g><path d="M 2.59375 -10.734375 L 5.09375 -10.734375 L 2.9375 0 L 0.4375 0 Z M 2.59375 -10.734375 "/></g></g></g><g fill="#0066ff" fill-opacity="1"><g transform="translate(234.605224, 41.525671)"><g><path d="M 6.734375 -8.375 C 7.648438 -8.375 8.378906 -8.128906 8.921875 -7.640625 C 9.460938 -7.148438 9.734375 -6.457031 9.734375 -5.5625 C 9.734375 -5.226562 9.695312 -4.894531 9.625 -4.5625 L 8.703125 0 L 6.3125 0 L 7.203125 -4.421875 C 7.242188 -4.585938 7.265625 -4.773438 7.265625 -4.984375 C 7.265625 -5.410156 7.144531 -5.734375 6.90625 -5.953125 C 6.675781 -6.179688 6.328125 -6.296875 5.859375 -6.296875 C 5.242188 -6.296875 4.734375 -6.117188 4.328125 -5.765625 C 3.921875 -5.421875 3.648438 -4.894531 3.515625 -4.1875 L 2.6875 0 L 0.296875 0 L 1.9375 -8.25 L 4.203125 -8.25 L 4.015625 -7.359375 C 4.753906 -8.035156 5.660156 -8.375 6.734375 -8.375 Z M 6.734375 -8.375 "/></g></g></g><g fill="#0066ff" fill-opacity="1"><g transform="translate(245.194183, 41.525671)"><g><path d="M 10.109375 -8.25 L 5 0 L 2.53125 0 L 0.703125 -8.25 L 3.0625 -8.25 L 4.265625 -2.625 L 7.71875 -8.25 Z M 10.109375 -8.25 "/></g></g></g><g fill="#0066ff" fill-opacity="1"><g transform="translate(254.358, 41.525671)"><g><path d="M 9.25 -4.734375 C 9.25 -4.359375 9.203125 -3.941406 9.109375 -3.484375 L 2.796875 -3.484375 C 2.867188 -2.359375 3.578125 -1.796875 4.921875 -1.796875 C 5.335938 -1.796875 5.738281 -1.859375 6.125 -1.984375 C 6.507812 -2.117188 6.84375 -2.3125 7.125 -2.5625 L 8.125 -0.984375 C 7.664062 -0.609375 7.140625 -0.328125 6.546875 -0.140625 C 5.953125 0.0351562 5.328125 0.125 4.671875 0.125 C 3.828125 0.125 3.082031 -0.0234375 2.4375 -0.328125 C 1.800781 -0.628906 1.3125 -1.0625 0.96875 -1.625 C 0.625 -2.1875 0.453125 -2.835938 0.453125 -3.578125 C 0.453125 -4.484375 0.660156 -5.300781 1.078125 -6.03125 C 1.492188 -6.757812 2.066406 -7.332031 2.796875 -7.75 C 3.535156 -8.164062 4.375 -8.375 5.3125 -8.375 C 6.113281 -8.375 6.804688 -8.222656 7.390625 -7.921875 C 7.984375 -7.628906 8.441406 -7.207031 8.765625 -6.65625 C 9.085938 -6.101562 9.25 -5.460938 9.25 -4.734375 Z M 5.21875 -6.578125 C 4.65625 -6.578125 4.175781 -6.425781 3.78125 -6.125 C 3.394531 -5.820312 3.117188 -5.40625 2.953125 -4.875 L 7.046875 -4.875 C 7.046875 -5.40625 6.878906 -5.820312 6.546875 -6.125 C 6.210938 -6.425781 5.769531 -6.578125 5.21875 -6.578125 Z M 5.21875 -6.578125 "/></g></g></g><g fill="#0066ff" fill-opacity="1"><g transform="translate(263.981539, 41.525671)"><g><path d="M 6.734375 -8.375 C 7.648438 -8.375 8.378906 -8.128906 8.921875 -7.640625 C 9.460938 -7.148438 9.734375 -6.457031 9.734375 -5.5625 C 9.734375 -5.226562 9.695312 -4.894531 9.625 -4.5625 L 8.703125 0 L 6.3125 0 L 7.203125 -4.421875 C 7.242188 -4.585938 7.265625 -4.773438 7.265625 -4.984375 C 7.265625 -5.410156 7.144531 -5.734375 6.90625 -5.953125 C 6.675781 -6.179688 6.328125 -6.296875 5.859375 -6.296875 C 5.242188 -6.296875 4.734375 -6.117188 4.328125 -5.765625 C 3.921875 -5.421875 3.648438 -4.894531 3.515625 -4.1875 L 2.6875 0 L 0.296875 0 L 1.9375 -8.25 L 4.203125 -8.25 L 4.015625 -7.359375 C 4.753906 -8.035156 5.660156 -8.375 6.734375 -8.375 Z M 6.734375 -8.375 "/></g></g></g><g fill="#0066ff" fill-opacity="1"><g transform="translate(274.570499, 41.525671)"><g><path d="M 3.546875 -2.90625 C 3.523438 -2.832031 3.515625 -2.722656 3.515625 -2.578125 C 3.515625 -2.046875 3.804688 -1.78125 4.390625 -1.78125 C 4.703125 -1.78125 5.019531 -1.875 5.34375 -2.0625 L 5.703125 -0.375 C 5.171875 -0.0390625 4.484375 0.125 3.640625 0.125 C 2.867188 0.125 2.25 -0.078125 1.78125 -0.484375 C 1.3125 -0.898438 1.078125 -1.460938 1.078125 -2.171875 C 1.078125 -2.378906 1.101562 -2.617188 1.15625 -2.890625 L 1.8125 -6.21875 L 0.53125 -6.21875 L 0.90625 -8.0625 L 2.171875 -8.0625 L 2.578125 -10.078125 L 4.96875 -10.078125 L 4.5625 -8.0625 L 6.625 -8.0625 L 6.25 -6.21875 L 4.203125 -6.21875 Z M 3.546875 -2.90625 "/></g></g></g><g fill="#0066ff" fill-opacity="1"><g transform="translate(281.236487, 41.525671)"><g><path d="M 4.59375 0.125 C 3.769531 0.125 3.039062 -0.0234375 2.40625 -0.328125 C 1.78125 -0.640625 1.296875 -1.070312 0.953125 -1.625 C 0.609375 -2.1875 0.4375 -2.835938 0.4375 -3.578125 C 0.4375 -4.484375 0.648438 -5.296875 1.078125 -6.015625 C 1.515625 -6.742188 2.109375 -7.316406 2.859375 -7.734375 C 3.617188 -8.160156 4.472656 -8.375 5.421875 -8.375 C 6.265625 -8.375 6.992188 -8.21875 7.609375 -7.90625 C 8.234375 -7.601562 8.71875 -7.171875 9.0625 -6.609375 C 9.40625 -6.054688 9.578125 -5.410156 9.578125 -4.671875 C 9.578125 -3.765625 9.363281 -2.945312 8.9375 -2.21875 C 8.519531 -1.5 7.929688 -0.925781 7.171875 -0.5 C 6.410156 -0.0820312 5.550781 0.125 4.59375 0.125 Z M 4.75 -1.859375 C 5.207031 -1.859375 5.617188 -1.972656 5.984375 -2.203125 C 6.359375 -2.429688 6.644531 -2.75 6.84375 -3.15625 C 7.050781 -3.5625 7.15625 -4.03125 7.15625 -4.5625 C 7.15625 -5.125 6.988281 -5.566406 6.65625 -5.890625 C 6.332031 -6.222656 5.875 -6.390625 5.28125 -6.390625 C 4.8125 -6.390625 4.394531 -6.273438 4.03125 -6.046875 C 3.664062 -5.816406 3.378906 -5.492188 3.171875 -5.078125 C 2.960938 -4.671875 2.859375 -4.203125 2.859375 -3.671875 C 2.859375 -3.109375 3.023438 -2.664062 3.359375 -2.34375 C 3.691406 -2.019531 4.15625 -1.859375 4.75 -1.859375 Z M 4.75 -1.859375 "/></g></g></g><g fill="#0066ff" fill-opacity="1"><g transform="translate(291.258459, 41.525671)"><g><path d="M 4 -7.265625 C 4.351562 -7.648438 4.78125 -7.929688 5.28125 -8.109375 C 5.789062 -8.285156 6.390625 -8.375 7.078125 -8.375 L 6.65625 -6.15625 C 6.363281 -6.175781 6.175781 -6.1875 6.09375 -6.1875 C 5.375 -6.1875 4.796875 -6.007812 4.359375 -5.65625 C 3.921875 -5.300781 3.628906 -4.742188 3.484375 -3.984375 L 2.6875 0 L 0.296875 0 L 1.9375 -8.25 L 4.203125 -8.25 Z M 4 -7.265625 "/></g></g></g><g fill="#0066ff" fill-opacity="1"><g transform="translate(297.863147, 41.525671)"><g><path d="M 10.109375 -8.25 L 4.625 0.546875 C 4.03125 1.515625 3.453125 2.179688 2.890625 2.546875 C 2.335938 2.910156 1.660156 3.09375 0.859375 3.09375 C 0.429688 3.09375 0.0078125 3.023438 -0.40625 2.890625 C -0.820312 2.765625 -1.144531 2.59375 -1.375 2.375 L -0.28125 0.65625 C 0.09375 1 0.535156 1.171875 1.046875 1.171875 C 1.347656 1.171875 1.609375 1.09375 1.828125 0.9375 C 2.054688 0.78125 2.289062 0.519531 2.53125 0.15625 L 2.609375 0.015625 L 0.703125 -8.25 L 3.09375 -8.25 L 4.328125 -2.640625 L 7.75 -8.25 Z M 10.109375 -8.25 "/></g></g></g><g fill="#9ca3af" fill-opacity="1"><g transform="translate(193.449366, 50.653735)"><g><path d="M 2.015625 0 L 1.171875 0 L 1.171875 -3.25 L 0.109375 -3.25 L 0.109375 -3.9375 L 3.078125 -3.9375 L 3.078125 -3.25 L 2.015625 -3.25 Z M 2.015625 0 "/></g></g></g><g fill="#9ca3af" fill-opacity="1"><g transform="translate(196.642175, 50.653735)"><g><path d="M 2.109375 -3.0625 C 2.222656 -3.0625 2.316406 -3.054688 2.390625 -3.046875 L 2.328125 -2.265625 C 2.265625 -2.285156 2.179688 -2.296875 2.078125 -2.296875 C 1.816406 -2.296875 1.613281 -2.226562 1.46875 -2.09375 C 1.320312 -1.957031 1.25 -1.769531 1.25 -1.53125 L 1.25 0 L 0.4375 0 L 0.4375 -3.015625 L 1.046875 -3.015625 L 1.171875 -2.5 L 1.21875 -2.5 C 1.3125 -2.675781 1.4375 -2.8125 1.59375 -2.90625 C 1.75 -3.007812 1.921875 -3.0625 2.109375 -3.0625 Z M 2.109375 -3.0625 "/></g></g></g><g fill="#9ca3af" fill-opacity="1"><g transform="translate(199.145811, 50.653735)"><g><path d="M 2.34375 0 L 2.1875 -0.40625 L 2.15625 -0.40625 C 2.019531 -0.226562 1.878906 -0.109375 1.734375 -0.046875 C 1.585938 0.015625 1.394531 0.046875 1.15625 0.046875 C 0.875 0.046875 0.648438 -0.03125 0.484375 -0.1875 C 0.316406 -0.351562 0.234375 -0.59375 0.234375 -0.90625 C 0.234375 -1.21875 0.34375 -1.445312 0.5625 -1.59375 C 0.789062 -1.75 1.128906 -1.835938 1.578125 -1.859375 L 2.09375 -1.875 L 2.09375 -2 C 2.09375 -2.3125 1.9375 -2.46875 1.625 -2.46875 C 1.382812 -2.46875 1.101562 -2.394531 0.78125 -2.25 L 0.515625 -2.796875 C 0.859375 -2.984375 1.242188 -3.078125 1.671875 -3.078125 C 2.066406 -3.078125 2.375 -2.988281 2.59375 -2.8125 C 2.8125 -2.632812 2.921875 -2.363281 2.921875 -2 L 2.921875 0 Z M 2.09375 -1.390625 L 1.78125 -1.390625 C 1.539062 -1.378906 1.363281 -1.332031 1.25 -1.25 C 1.132812 -1.175781 1.078125 -1.054688 1.078125 -0.890625 C 1.078125 -0.660156 1.207031 -0.546875 1.46875 -0.546875 C 1.664062 -0.546875 1.816406 -0.597656 1.921875 -0.703125 C 2.035156 -0.816406 2.09375 -0.960938 2.09375 -1.140625 Z M 2.09375 -1.390625 "/></g></g></g><g fill="#9ca3af" fill-opacity="1"><g transform="translate(202.475916, 50.653735)"><g><path d="M 3.203125 0 L 2.390625 0 L 2.390625 -1.765625 C 2.390625 -1.972656 2.347656 -2.128906 2.265625 -2.234375 C 2.191406 -2.347656 2.070312 -2.40625 1.90625 -2.40625 C 1.675781 -2.40625 1.507812 -2.328125 1.40625 -2.171875 C 1.300781 -2.023438 1.25 -1.773438 1.25 -1.421875 L 1.25 0 L 0.4375 0 L 0.4375 -3.015625 L 1.0625 -3.015625 L 1.171875 -2.625 L 1.21875 -2.625 C 1.3125 -2.769531 1.4375 -2.878906 1.59375 -2.953125 C 1.75 -3.023438 1.929688 -3.0625 2.140625 -3.0625 C 2.492188 -3.0625 2.757812 -2.96875 2.9375 -2.78125 C 3.113281 -2.59375 3.203125 -2.320312 3.203125 -1.96875 Z M 3.203125 0 "/></g></g></g><g fill="#9ca3af" fill-opacity="1"><g transform="translate(206.099459, 50.653735)"><g><path d="M 2.53125 -0.890625 C 2.53125 -0.585938 2.421875 -0.351562 2.203125 -0.1875 C 1.992188 -0.03125 1.675781 0.046875 1.25 0.046875 C 1.03125 0.046875 0.84375 0.03125 0.6875 0 C 0.53125 -0.0195312 0.382812 -0.0625 0.25 -0.125 L 0.25 -0.796875 C 0.40625 -0.722656 0.578125 -0.660156 0.765625 -0.609375 C 0.960938 -0.566406 1.132812 -0.546875 1.28125 -0.546875 C 1.570312 -0.546875 1.71875 -0.632812 1.71875 -0.8125 C 1.71875 -0.875 1.695312 -0.921875 1.65625 -0.953125 C 1.625 -0.992188 1.554688 -1.039062 1.453125 -1.09375 C 1.359375 -1.144531 1.226562 -1.207031 1.0625 -1.28125 C 0.832031 -1.375 0.660156 -1.460938 0.546875 -1.546875 C 0.441406 -1.628906 0.363281 -1.722656 0.3125 -1.828125 C 0.269531 -1.941406 0.25 -2.078125 0.25 -2.234375 C 0.25 -2.492188 0.351562 -2.695312 0.5625 -2.84375 C 0.769531 -2.988281 1.0625 -3.0625 1.4375 -3.0625 C 1.800781 -3.0625 2.15625 -2.984375 2.5 -2.828125 L 2.25 -2.234375 C 2.101562 -2.296875 1.960938 -2.347656 1.828125 -2.390625 C 1.691406 -2.429688 1.554688 -2.453125 1.421875 -2.453125 C 1.179688 -2.453125 1.0625 -2.390625 1.0625 -2.265625 C 1.0625 -2.191406 1.097656 -2.125 1.171875 -2.0625 C 1.253906 -2.007812 1.425781 -1.929688 1.6875 -1.828125 C 1.925781 -1.734375 2.097656 -1.644531 2.203125 -1.5625 C 2.316406 -1.476562 2.398438 -1.382812 2.453125 -1.28125 C 2.503906 -1.175781 2.53125 -1.046875 2.53125 -0.890625 Z M 2.53125 -0.890625 "/></g></g></g><g fill="#9ca3af" fill-opacity="1"><g transform="translate(208.839998, 50.653735)"><g><path d="M 2.09375 -2.390625 L 1.390625 -2.390625 L 1.390625 0 L 0.5625 0 L 0.5625 -2.390625 L 0.109375 -2.390625 L 0.109375 -2.796875 L 0.5625 -3.015625 L 0.5625 -3.234375 C 0.5625 -3.578125 0.644531 -3.828125 0.8125 -3.984375 C 0.976562 -4.140625 1.25 -4.21875 1.625 -4.21875 C 1.90625 -4.21875 2.160156 -4.175781 2.390625 -4.09375 L 2.171875 -3.484375 C 2.003906 -3.535156 1.851562 -3.5625 1.71875 -3.5625 C 1.601562 -3.5625 1.519531 -3.523438 1.46875 -3.453125 C 1.414062 -3.390625 1.390625 -3.304688 1.390625 -3.203125 L 1.390625 -3.015625 L 2.09375 -3.015625 Z M 2.09375 -2.390625 "/></g></g></g><g fill="#9ca3af" fill-opacity="1"><g transform="translate(210.974819, 50.653735)"><g><path d="M 1.078125 -1.515625 C 1.078125 -1.210938 1.125 -0.984375 1.21875 -0.828125 C 1.320312 -0.679688 1.484375 -0.609375 1.703125 -0.609375 C 1.921875 -0.609375 2.078125 -0.679688 2.171875 -0.828125 C 2.273438 -0.984375 2.328125 -1.210938 2.328125 -1.515625 C 2.328125 -1.804688 2.273438 -2.023438 2.171875 -2.171875 C 2.078125 -2.328125 1.921875 -2.40625 1.703125 -2.40625 C 1.484375 -2.40625 1.320312 -2.328125 1.21875 -2.171875 C 1.125 -2.023438 1.078125 -1.804688 1.078125 -1.515625 Z M 3.171875 -1.515625 C 3.171875 -1.023438 3.039062 -0.640625 2.78125 -0.359375 C 2.519531 -0.0859375 2.160156 0.046875 1.703125 0.046875 C 1.410156 0.046875 1.15625 -0.015625 0.9375 -0.140625 C 0.71875 -0.265625 0.546875 -0.441406 0.421875 -0.671875 C 0.304688 -0.910156 0.25 -1.191406 0.25 -1.515625 C 0.25 -2.003906 0.375 -2.382812 0.625 -2.65625 C 0.882812 -2.925781 1.25 -3.0625 1.71875 -3.0625 C 2.007812 -3.0625 2.265625 -3 2.484375 -2.875 C 2.703125 -2.75 2.867188 -2.566406 2.984375 -2.328125 C 3.109375 -2.097656 3.171875 -1.828125 3.171875 -1.515625 Z M 3.171875 -1.515625 "/></g></g></g><g fill="#9ca3af" fill-opacity="1"><g transform="translate(214.388379, 50.653735)"><g><path d="M 2.109375 -3.0625 C 2.222656 -3.0625 2.316406 -3.054688 2.390625 -3.046875 L 2.328125 -2.265625 C 2.265625 -2.285156 2.179688 -2.296875 2.078125 -2.296875 C 1.816406 -2.296875 1.613281 -2.226562 1.46875 -2.09375 C 1.320312 -1.957031 1.25 -1.769531 1.25 -1.53125 L 1.25 0 L 0.4375 0 L 0.4375 -3.015625 L 1.046875 -3.015625 L 1.171875 -2.5 L 1.21875 -2.5 C 1.3125 -2.675781 1.4375 -2.8125 1.59375 -2.90625 C 1.75 -3.007812 1.921875 -3.0625 2.109375 -3.0625 Z M 2.109375 -3.0625 "/></g></g></g><g fill="#9ca3af" fill-opacity="1"><g transform="translate(216.892015, 50.653735)"><g><path d="M 3.125 0 L 2.3125 0 L 2.3125 -1.765625 C 2.3125 -1.972656 2.273438 -2.128906 2.203125 -2.234375 C 2.128906 -2.347656 2.015625 -2.40625 1.859375 -2.40625 C 1.640625 -2.40625 1.484375 -2.328125 1.390625 -2.171875 C 1.296875 -2.023438 1.25 -1.773438 1.25 -1.421875 L 1.25 0 L 0.4375 0 L 0.4375 -3.015625 L 1.0625 -3.015625 L 1.171875 -2.625 L 1.21875 -2.625 C 1.289062 -2.757812 1.40625 -2.863281 1.5625 -2.9375 C 1.71875 -3.019531 1.894531 -3.0625 2.09375 -3.0625 C 2.539062 -3.0625 2.84375 -2.914062 3 -2.625 L 3.078125 -2.625 C 3.160156 -2.757812 3.28125 -2.863281 3.4375 -2.9375 C 3.59375 -3.019531 3.769531 -3.0625 3.96875 -3.0625 C 4.3125 -3.0625 4.566406 -2.972656 4.734375 -2.796875 C 4.910156 -2.628906 5 -2.351562 5 -1.96875 L 5 0 L 4.1875 0 L 4.1875 -1.765625 C 4.1875 -1.972656 4.148438 -2.128906 4.078125 -2.234375 C 4.003906 -2.347656 3.890625 -2.40625 3.734375 -2.40625 C 3.523438 -2.40625 3.367188 -2.332031 3.265625 -2.1875 C 3.171875 -2.050781 3.125 -1.828125 3.125 -1.515625 Z M 3.125 0 "/></g></g></g><g fill="#9ca3af" fill-opacity="1"><g transform="translate(222.305792, 50.653735)"><g><path d="M 2.34375 0 L 2.1875 -0.40625 L 2.15625 -0.40625 C 2.019531 -0.226562 1.878906 -0.109375 1.734375 -0.046875 C 1.585938 0.015625 1.394531 0.046875 1.15625 0.046875 C 0.875 0.046875 0.648438 -0.03125 0.484375 -0.1875 C 0.316406 -0.351562 0.234375 -0.59375 0.234375 -0.90625 C 0.234375 -1.21875 0.34375 -1.445312 0.5625 -1.59375 C 0.789062 -1.75 1.128906 -1.835938 1.578125 -1.859375 L 2.09375 -1.875 L 2.09375 -2 C 2.09375 -2.3125 1.9375 -2.46875 1.625 -2.46875 C 1.382812 -2.46875 1.101562 -2.394531 0.78125 -2.25 L 0.515625 -2.796875 C 0.859375 -2.984375 1.242188 -3.078125 1.671875 -3.078125 C 2.066406 -3.078125 2.375 -2.988281 2.59375 -2.8125 C 2.8125 -2.632812 2.921875 -2.363281 2.921875 -2 L 2.921875 0 Z M 2.09375 -1.390625 L 1.78125 -1.390625 C 1.539062 -1.378906 1.363281 -1.332031 1.25 -1.25 C 1.132812 -1.175781 1.078125 -1.054688 1.078125 -0.890625 C 1.078125 -0.660156 1.207031 -0.546875 1.46875 -0.546875 C 1.664062 -0.546875 1.816406 -0.597656 1.921875 -0.703125 C 2.035156 -0.816406 2.09375 -0.960938 2.09375 -1.140625 Z M 2.09375 -1.390625 "/></g></g></g><g fill="#9ca3af" fill-opacity="1"><g transform="translate(225.635898, 50.653735)"><g/></g></g><g fill="#9ca3af" fill-opacity="1"><g transform="translate(227.068085, 50.653735)"><g><path d="M 1.703125 -0.59375 C 1.847656 -0.59375 2.019531 -0.625 2.21875 -0.6875 L 2.21875 -0.078125 C 2.007812 0.00390625 1.757812 0.046875 1.46875 0.046875 C 1.132812 0.046875 0.890625 -0.03125 0.734375 -0.1875 C 0.585938 -0.351562 0.515625 -0.601562 0.515625 -0.9375 L 0.515625 -2.390625 L 0.125 -2.390625 L 0.125 -2.734375 L 0.578125 -3.015625 L 0.8125 -3.65625 L 1.34375 -3.65625 L 1.34375 -3.015625 L 2.1875 -3.015625 L 2.1875 -2.390625 L 1.34375 -2.390625 L 1.34375 -0.9375 C 1.34375 -0.820312 1.375 -0.734375 1.4375 -0.671875 C 1.5 -0.617188 1.585938 -0.59375 1.703125 -0.59375 Z M 1.703125 -0.59375 "/></g></g></g><g fill="#9ca3af" fill-opacity="1"><g transform="translate(229.461346, 50.653735)"><g><path d="M 2.5625 0 L 2.453125 -0.390625 L 2.40625 -0.390625 C 2.320312 -0.242188 2.195312 -0.132812 2.03125 -0.0625 C 1.875 0.0078125 1.691406 0.046875 1.484375 0.046875 C 1.128906 0.046875 0.863281 -0.046875 0.6875 -0.234375 C 0.507812 -0.421875 0.421875 -0.691406 0.421875 -1.046875 L 0.421875 -3.015625 L 1.234375 -3.015625 L 1.234375 -1.25 C 1.234375 -1.03125 1.269531 -0.863281 1.34375 -0.75 C 1.425781 -0.644531 1.550781 -0.59375 1.71875 -0.59375 C 1.945312 -0.59375 2.113281 -0.671875 2.21875 -0.828125 C 2.320312 -0.984375 2.375 -1.238281 2.375 -1.59375 L 2.375 -3.015625 L 3.1875 -3.015625 L 3.1875 0 Z M 2.5625 0 "/></g></g></g><g fill="#9ca3af" fill-opacity="1"><g transform="translate(233.084888, 50.653735)"><g/></g></g><g fill="#9ca3af" fill-opacity="1"><g transform="translate(234.517076, 50.653735)"><g><path d="M 2.109375 -3.0625 C 2.460938 -3.0625 2.738281 -2.921875 2.9375 -2.640625 C 3.144531 -2.367188 3.25 -1.992188 3.25 -1.515625 C 3.25 -1.015625 3.144531 -0.628906 2.9375 -0.359375 C 2.726562 -0.0859375 2.441406 0.046875 2.078125 0.046875 C 1.722656 0.046875 1.445312 -0.078125 1.25 -0.328125 L 1.203125 -0.328125 L 1.0625 0 L 0.4375 0 L 0.4375 -4.1875 L 1.25 -4.1875 L 1.25 -3.21875 C 1.25 -3.09375 1.238281 -2.894531 1.21875 -2.625 L 1.25 -2.625 C 1.445312 -2.914062 1.734375 -3.0625 2.109375 -3.0625 Z M 1.84375 -2.40625 C 1.632812 -2.40625 1.484375 -2.34375 1.390625 -2.21875 C 1.296875 -2.09375 1.25 -1.890625 1.25 -1.609375 L 1.25 -1.515625 C 1.25 -1.191406 1.296875 -0.957031 1.390625 -0.8125 C 1.492188 -0.675781 1.648438 -0.609375 1.859375 -0.609375 C 2.023438 -0.609375 2.15625 -0.6875 2.25 -0.84375 C 2.351562 -1 2.40625 -1.222656 2.40625 -1.515625 C 2.40625 -1.816406 2.351562 -2.039062 2.25 -2.1875 C 2.15625 -2.332031 2.019531 -2.40625 1.84375 -2.40625 Z M 1.84375 -2.40625 "/></g></g></g><g fill="#9ca3af" fill-opacity="1"><g transform="translate(238.006014, 50.653735)"><g><path d="M 1.078125 -1.515625 C 1.078125 -1.210938 1.125 -0.984375 1.21875 -0.828125 C 1.320312 -0.679688 1.484375 -0.609375 1.703125 -0.609375 C 1.921875 -0.609375 2.078125 -0.679688 2.171875 -0.828125 C 2.273438 -0.984375 2.328125 -1.210938 2.328125 -1.515625 C 2.328125 -1.804688 2.273438 -2.023438 2.171875 -2.171875 C 2.078125 -2.328125 1.921875 -2.40625 1.703125 -2.40625 C 1.484375 -2.40625 1.320312 -2.328125 1.21875 -2.171875 C 1.125 -2.023438 1.078125 -1.804688 1.078125 -1.515625 Z M 3.171875 -1.515625 C 3.171875 -1.023438 3.039062 -0.640625 2.78125 -0.359375 C 2.519531 -0.0859375 2.160156 0.046875 1.703125 0.046875 C 1.410156 0.046875 1.15625 -0.015625 0.9375 -0.140625 C 0.71875 -0.265625 0.546875 -0.441406 0.421875 -0.671875 C 0.304688 -0.910156 0.25 -1.191406 0.25 -1.515625 C 0.25 -2.003906 0.375 -2.382812 0.625 -2.65625 C 0.882812 -2.925781 1.25 -3.0625 1.71875 -3.0625 C 2.007812 -3.0625 2.265625 -3 2.484375 -2.875 C 2.703125 -2.75 2.867188 -2.566406 2.984375 -2.328125 C 3.109375 -2.097656 3.171875 -1.828125 3.171875 -1.515625 Z M 3.171875 -1.515625 "/></g></g></g><g fill="#9ca3af" fill-opacity="1"><g transform="translate(241.419574, 50.653735)"><g><path d="M 1.390625 0.046875 C 1.035156 0.046875 0.753906 -0.0859375 0.546875 -0.359375 C 0.347656 -0.628906 0.25 -1.007812 0.25 -1.5 C 0.25 -1.988281 0.347656 -2.367188 0.546875 -2.640625 C 0.753906 -2.921875 1.039062 -3.0625 1.40625 -3.0625 C 1.78125 -3.0625 2.066406 -2.914062 2.265625 -2.625 L 2.296875 -2.625 C 2.253906 -2.851562 2.234375 -3.050781 2.234375 -3.21875 L 2.234375 -4.1875 L 3.0625 -4.1875 L 3.0625 0 L 2.4375 0 L 2.265625 -0.390625 L 2.234375 -0.390625 C 2.046875 -0.0976562 1.765625 0.046875 1.390625 0.046875 Z M 1.671875 -0.59375 C 1.878906 -0.59375 2.03125 -0.65625 2.125 -0.78125 C 2.226562 -0.90625 2.285156 -1.113281 2.296875 -1.40625 L 2.296875 -1.5 C 2.296875 -1.820312 2.242188 -2.050781 2.140625 -2.1875 C 2.046875 -2.332031 1.882812 -2.40625 1.65625 -2.40625 C 1.476562 -2.40625 1.335938 -2.328125 1.234375 -2.171875 C 1.128906 -2.015625 1.078125 -1.785156 1.078125 -1.484375 C 1.078125 -1.191406 1.128906 -0.96875 1.234375 -0.8125 C 1.335938 -0.664062 1.484375 -0.59375 1.671875 -0.59375 Z M 1.671875 -0.59375 "/></g></g></g><g fill="#9ca3af" fill-opacity="1"><g transform="translate(244.908512, 50.653735)"><g><path d="M 1.671875 -2.484375 C 1.503906 -2.484375 1.367188 -2.425781 1.265625 -2.3125 C 1.171875 -2.207031 1.113281 -2.050781 1.09375 -1.84375 L 2.25 -1.84375 C 2.25 -2.050781 2.195312 -2.207031 2.09375 -2.3125 C 1.988281 -2.425781 1.847656 -2.484375 1.671875 -2.484375 Z M 1.796875 0.046875 C 1.304688 0.046875 0.925781 -0.0820312 0.65625 -0.34375 C 0.382812 -0.613281 0.25 -0.992188 0.25 -1.484375 C 0.25 -1.984375 0.375 -2.367188 0.625 -2.640625 C 0.875 -2.921875 1.222656 -3.0625 1.671875 -3.0625 C 2.097656 -3.0625 2.425781 -2.941406 2.65625 -2.703125 C 2.894531 -2.460938 3.015625 -2.128906 3.015625 -1.703125 L 3.015625 -1.296875 L 1.078125 -1.296875 C 1.085938 -1.066406 1.15625 -0.882812 1.28125 -0.75 C 1.414062 -0.625 1.597656 -0.5625 1.828125 -0.5625 C 2.015625 -0.5625 2.1875 -0.578125 2.34375 -0.609375 C 2.507812 -0.648438 2.679688 -0.710938 2.859375 -0.796875 L 2.859375 -0.15625 C 2.710938 -0.0820312 2.554688 -0.03125 2.390625 0 C 2.222656 0.03125 2.023438 0.046875 1.796875 0.046875 Z M 1.796875 0.046875 "/></g></g></g><g fill="#9ca3af" fill-opacity="1"><g transform="translate(248.165932, 50.653735)"><g><path d="M 3.046875 -3.015625 L 3.046875 -2.59375 L 2.578125 -2.46875 C 2.660156 -2.332031 2.703125 -2.179688 2.703125 -2.015625 C 2.703125 -1.691406 2.585938 -1.441406 2.359375 -1.265625 C 2.140625 -1.085938 1.832031 -1 1.4375 -1 L 1.28125 -1 L 1.15625 -1.015625 C 1.070312 -0.953125 1.03125 -0.878906 1.03125 -0.796875 C 1.03125 -0.679688 1.179688 -0.625 1.484375 -0.625 L 2 -0.625 C 2.332031 -0.625 2.582031 -0.550781 2.75 -0.40625 C 2.925781 -0.269531 3.015625 -0.0625 3.015625 0.21875 C 3.015625 0.570312 2.867188 0.84375 2.578125 1.03125 C 2.285156 1.226562 1.863281 1.328125 1.3125 1.328125 C 0.894531 1.328125 0.570312 1.253906 0.34375 1.109375 C 0.125 0.960938 0.015625 0.753906 0.015625 0.484375 C 0.015625 0.304688 0.0703125 0.15625 0.1875 0.03125 C 0.300781 -0.0820312 0.46875 -0.164062 0.6875 -0.21875 C 0.601562 -0.257812 0.53125 -0.320312 0.46875 -0.40625 C 0.40625 -0.488281 0.375 -0.570312 0.375 -0.65625 C 0.375 -0.769531 0.40625 -0.863281 0.46875 -0.9375 C 0.53125 -1.019531 0.625 -1.097656 0.75 -1.171875 C 0.59375 -1.242188 0.46875 -1.351562 0.375 -1.5 C 0.289062 -1.65625 0.25 -1.832031 0.25 -2.03125 C 0.25 -2.363281 0.351562 -2.617188 0.5625 -2.796875 C 0.78125 -2.972656 1.085938 -3.0625 1.484375 -3.0625 C 1.566406 -3.0625 1.664062 -3.050781 1.78125 -3.03125 C 1.894531 -3.019531 1.96875 -3.015625 2 -3.015625 Z M 0.734375 0.421875 C 0.734375 0.535156 0.785156 0.625 0.890625 0.6875 C 0.992188 0.757812 1.144531 0.796875 1.34375 0.796875 C 1.632812 0.796875 1.863281 0.753906 2.03125 0.671875 C 2.207031 0.585938 2.296875 0.476562 2.296875 0.34375 C 2.296875 0.226562 2.242188 0.144531 2.140625 0.09375 C 2.046875 0.0507812 1.894531 0.03125 1.6875 0.03125 L 1.25 0.03125 C 1.101562 0.03125 0.976562 0.0664062 0.875 0.140625 C 0.78125 0.210938 0.734375 0.304688 0.734375 0.421875 Z M 1.03125 -2.03125 C 1.03125 -1.863281 1.066406 -1.734375 1.140625 -1.640625 C 1.210938 -1.546875 1.328125 -1.5 1.484375 -1.5 C 1.628906 -1.5 1.738281 -1.546875 1.8125 -1.640625 C 1.882812 -1.734375 1.921875 -1.863281 1.921875 -2.03125 C 1.921875 -2.382812 1.773438 -2.5625 1.484375 -2.5625 C 1.179688 -2.5625 1.03125 -2.382812 1.03125 -2.03125 Z M 1.03125 -2.03125 "/></g></g></g><g fill="#9ca3af" fill-opacity="1"><g transform="translate(251.280671, 50.653735)"><g><path d="M 2.34375 0 L 2.1875 -0.40625 L 2.15625 -0.40625 C 2.019531 -0.226562 1.878906 -0.109375 1.734375 -0.046875 C 1.585938 0.015625 1.394531 0.046875 1.15625 0.046875 C 0.875 0.046875 0.648438 -0.03125 0.484375 -0.1875 C 0.316406 -0.351562 0.234375 -0.59375 0.234375 -0.90625 C 0.234375 -1.21875 0.34375 -1.445312 0.5625 -1.59375 C 0.789062 -1.75 1.128906 -1.835938 1.578125 -1.859375 L 2.09375 -1.875 L 2.09375 -2 C 2.09375 -2.3125 1.9375 -2.46875 1.625 -2.46875 C 1.382812 -2.46875 1.101562 -2.394531 0.78125 -2.25 L 0.515625 -2.796875 C 0.859375 -2.984375 1.242188 -3.078125 1.671875 -3.078125 C 2.066406 -3.078125 2.375 -2.988281 2.59375 -2.8125 C 2.8125 -2.632812 2.921875 -2.363281 2.921875 -2 L 2.921875 0 Z M 2.09375 -1.390625 L 1.78125 -1.390625 C 1.539062 -1.378906 1.363281 -1.332031 1.25 -1.25 C 1.132812 -1.175781 1.078125 -1.054688 1.078125 -0.890625 C 1.078125 -0.660156 1.207031 -0.546875 1.46875 -0.546875 C 1.664062 -0.546875 1.816406 -0.597656 1.921875 -0.703125 C 2.035156 -0.816406 2.09375 -0.960938 2.09375 -1.140625 Z M 2.09375 -1.390625 "/></g></g></g><g fill="#9ca3af" fill-opacity="1"><g transform="translate(254.610776, 50.653735)"><g/></g></g><g fill="#9ca3af" fill-opacity="1"><g transform="translate(256.042964, 50.653735)"><g><path d="M 1.65625 0.046875 C 0.71875 0.046875 0.25 -0.460938 0.25 -1.484375 C 0.25 -1.992188 0.375 -2.382812 0.625 -2.65625 C 0.882812 -2.925781 1.25 -3.0625 1.71875 -3.0625 C 2.070312 -3.0625 2.382812 -2.992188 2.65625 -2.859375 L 2.421875 -2.234375 C 2.296875 -2.285156 2.175781 -2.328125 2.0625 -2.359375 C 1.945312 -2.390625 1.832031 -2.40625 1.71875 -2.40625 C 1.289062 -2.40625 1.078125 -2.101562 1.078125 -1.5 C 1.078125 -0.90625 1.289062 -0.609375 1.71875 -0.609375 C 1.882812 -0.609375 2.035156 -0.628906 2.171875 -0.671875 C 2.304688 -0.710938 2.4375 -0.78125 2.5625 -0.875 L 2.5625 -0.171875 C 2.4375 -0.0859375 2.304688 -0.03125 2.171875 0 C 2.035156 0.03125 1.863281 0.046875 1.65625 0.046875 Z M 1.65625 0.046875 "/></g></g></g><g fill="#9ca3af" fill-opacity="1"><g transform="translate(258.877726, 50.653735)"><g><path d="M 1.078125 -1.515625 C 1.078125 -1.210938 1.125 -0.984375 1.21875 -0.828125 C 1.320312 -0.679688 1.484375 -0.609375 1.703125 -0.609375 C 1.921875 -0.609375 2.078125 -0.679688 2.171875 -0.828125 C 2.273438 -0.984375 2.328125 -1.210938 2.328125 -1.515625 C 2.328125 -1.804688 2.273438 -2.023438 2.171875 -2.171875 C 2.078125 -2.328125 1.921875 -2.40625 1.703125 -2.40625 C 1.484375 -2.40625 1.320312 -2.328125 1.21875 -2.171875 C 1.125 -2.023438 1.078125 -1.804688 1.078125 -1.515625 Z M 3.171875 -1.515625 C 3.171875 -1.023438 3.039062 -0.640625 2.78125 -0.359375 C 2.519531 -0.0859375 2.160156 0.046875 1.703125 0.046875 C 1.410156 0.046875 1.15625 -0.015625 0.9375 -0.140625 C 0.71875 -0.265625 0.546875 -0.441406 0.421875 -0.671875 C 0.304688 -0.910156 0.25 -1.191406 0.25 -1.515625 C 0.25 -2.003906 0.375 -2.382812 0.625 -2.65625 C 0.882812 -2.925781 1.25 -3.0625 1.71875 -3.0625 C 2.007812 -3.0625 2.265625 -3 2.484375 -2.875 C 2.703125 -2.75 2.867188 -2.566406 2.984375 -2.328125 C 3.109375 -2.097656 3.171875 -1.828125 3.171875 -1.515625 Z M 3.171875 -1.515625 "/></g></g></g><g fill="#9ca3af" fill-opacity="1"><g transform="translate(262.291286, 50.653735)"><g><path d="M 3.203125 0 L 2.390625 0 L 2.390625 -1.765625 C 2.390625 -1.972656 2.347656 -2.128906 2.265625 -2.234375 C 2.191406 -2.347656 2.070312 -2.40625 1.90625 -2.40625 C 1.675781 -2.40625 1.507812 -2.328125 1.40625 -2.171875 C 1.300781 -2.023438 1.25 -1.773438 1.25 -1.421875 L 1.25 0 L 0.4375 0 L 0.4375 -3.015625 L 1.0625 -3.015625 L 1.171875 -2.625 L 1.21875 -2.625 C 1.3125 -2.769531 1.4375 -2.878906 1.59375 -2.953125 C 1.75 -3.023438 1.929688 -3.0625 2.140625 -3.0625 C 2.492188 -3.0625 2.757812 -2.96875 2.9375 -2.78125 C 3.113281 -2.59375 3.203125 -2.320312 3.203125 -1.96875 Z M 3.203125 0 "/></g></g></g><g fill="#9ca3af" fill-opacity="1"><g transform="translate(265.914828, 50.653735)"><g/></g></g><g fill="#9ca3af" fill-opacity="1"><g transform="translate(267.347016, 50.653735)"><g><path d="M 1.703125 -0.59375 C 1.847656 -0.59375 2.019531 -0.625 2.21875 -0.6875 L 2.21875 -0.078125 C 2.007812 0.00390625 1.757812 0.046875 1.46875 0.046875 C 1.132812 0.046875 0.890625 -0.03125 0.734375 -0.1875 C 0.585938 -0.351562 0.515625 -0.601562 0.515625 -0.9375 L 0.515625 -2.390625 L 0.125 -2.390625 L 0.125 -2.734375 L 0.578125 -3.015625 L 0.8125 -3.65625 L 1.34375 -3.65625 L 1.34375 -3.015625 L 2.1875 -3.015625 L 2.1875 -2.390625 L 1.34375 -2.390625 L 1.34375 -0.9375 C 1.34375 -0.820312 1.375 -0.734375 1.4375 -0.671875 C 1.5 -0.617188 1.585938 -0.59375 1.703125 -0.59375 Z M 1.703125 -0.59375 "/></g></g></g><g fill="#9ca3af" fill-opacity="1"><g transform="translate(269.740277, 50.653735)"><g><path d="M 1.671875 -2.484375 C 1.503906 -2.484375 1.367188 -2.425781 1.265625 -2.3125 C 1.171875 -2.207031 1.113281 -2.050781 1.09375 -1.84375 L 2.25 -1.84375 C 2.25 -2.050781 2.195312 -2.207031 2.09375 -2.3125 C 1.988281 -2.425781 1.847656 -2.484375 1.671875 -2.484375 Z M 1.796875 0.046875 C 1.304688 0.046875 0.925781 -0.0820312 0.65625 -0.34375 C 0.382812 -0.613281 0.25 -0.992188 0.25 -1.484375 C 0.25 -1.984375 0.375 -2.367188 0.625 -2.640625 C 0.875 -2.921875 1.222656 -3.0625 1.671875 -3.0625 C 2.097656 -3.0625 2.425781 -2.941406 2.65625 -2.703125 C 2.894531 -2.460938 3.015625 -2.128906 3.015625 -1.703125 L 3.015625 -1.296875 L 1.078125 -1.296875 C 1.085938 -1.066406 1.15625 -0.882812 1.28125 -0.75 C 1.414062 -0.625 1.597656 -0.5625 1.828125 -0.5625 C 2.015625 -0.5625 2.1875 -0.578125 2.34375 -0.609375 C 2.507812 -0.648438 2.679688 -0.710938 2.859375 -0.796875 L 2.859375 -0.15625 C 2.710938 -0.0820312 2.554688 -0.03125 2.390625 0 C 2.222656 0.03125 2.023438 0.046875 1.796875 0.046875 Z M 1.796875 0.046875 "/></g></g></g><g fill="#9ca3af" fill-opacity="1"><g transform="translate(272.997696, 50.653735)"><g><path d="M 1.65625 0.046875 C 0.71875 0.046875 0.25 -0.460938 0.25 -1.484375 C 0.25 -1.992188 0.375 -2.382812 0.625 -2.65625 C 0.882812 -2.925781 1.25 -3.0625 1.71875 -3.0625 C 2.070312 -3.0625 2.382812 -2.992188 2.65625 -2.859375 L 2.421875 -2.234375 C 2.296875 -2.285156 2.175781 -2.328125 2.0625 -2.359375 C 1.945312 -2.390625 1.832031 -2.40625 1.71875 -2.40625 C 1.289062 -2.40625 1.078125 -2.101562 1.078125 -1.5 C 1.078125 -0.90625 1.289062 -0.609375 1.71875 -0.609375 C 1.882812 -0.609375 2.035156 -0.628906 2.171875 -0.671875 C 2.304688 -0.710938 2.4375 -0.78125 2.5625 -0.875 L 2.5625 -0.171875 C 2.4375 -0.0859375 2.304688 -0.03125 2.171875 0 C 2.035156 0.03125 1.863281 0.046875 1.65625 0.046875 Z M 1.65625 0.046875 "/></g></g></g><g fill="#9ca3af" fill-opacity="1"><g transform="translate(275.832458, 50.653735)"><g><path d="M 3.203125 0 L 2.390625 0 L 2.390625 -1.765625 C 2.390625 -1.972656 2.347656 -2.128906 2.265625 -2.234375 C 2.191406 -2.347656 2.070312 -2.40625 1.90625 -2.40625 C 1.675781 -2.40625 1.507812 -2.328125 1.40625 -2.171875 C 1.300781 -2.023438 1.25 -1.773438 1.25 -1.421875 L 1.25 0 L 0.4375 0 L 0.4375 -3.015625 L 1.0625 -3.015625 L 1.171875 -2.625 L 1.21875 -2.625 C 1.3125 -2.769531 1.4375 -2.878906 1.59375 -2.953125 C 1.75 -3.023438 1.929688 -3.0625 2.140625 -3.0625 C 2.492188 -3.0625 2.757812 -2.96875 2.9375 -2.78125 C 3.113281 -2.59375 3.203125 -2.320312 3.203125 -1.96875 Z M 3.203125 0 "/></g></g></g><g fill="#9ca3af" fill-opacity="1"><g transform="translate(279.456, 50.653735)"><g><path d="M 1.078125 -1.515625 C 1.078125 -1.210938 1.125 -0.984375 1.21875 -0.828125 C 1.320312 -0.679688 1.484375 -0.609375 1.703125 -0.609375 C 1.921875 -0.609375 2.078125 -0.679688 2.171875 -0.828125 C 2.273438 -0.984375 2.328125 -1.210938 2.328125 -1.515625 C 2.328125 -1.804688 2.273438 -2.023438 2.171875 -2.171875 C 2.078125 -2.328125 1.921875 -2.40625 1.703125 -2.40625 C 1.484375 -2.40625 1.320312 -2.328125 1.21875 -2.171875 C 1.125 -2.023438 1.078125 -1.804688 1.078125 -1.515625 Z M 3.171875 -1.515625 C 3.171875 -1.023438 3.039062 -0.640625 2.78125 -0.359375 C 2.519531 -0.0859375 2.160156 0.046875 1.703125 0.046875 C 1.410156 0.046875 1.15625 -0.015625 0.9375 -0.140625 C 0.71875 -0.265625 0.546875 -0.441406 0.421875 -0.671875 C 0.304688 -0.910156 0.25 -1.191406 0.25 -1.515625 C 0.25 -2.003906 0.375 -2.382812 0.625 -2.65625 C 0.882812 -2.925781 1.25 -3.0625 1.71875 -3.0625 C 2.007812 -3.0625 2.265625 -3 2.484375 -2.875 C 2.703125 -2.75 2.867188 -2.566406 2.984375 -2.328125 C 3.109375 -2.097656 3.171875 -1.828125 3.171875 -1.515625 Z M 3.171875 -1.515625 "/></g></g></g><g fill="#9ca3af" fill-opacity="1"><g transform="translate(282.86956, 50.653735)"><g><path d="M 1.25 0 L 0.4375 0 L 0.4375 -4.1875 L 1.25 -4.1875 Z M 1.25 0 "/></g></g></g><g fill="#9ca3af" fill-opacity="1"><g transform="translate(284.552117, 50.653735)"><g><path d="M 1.078125 -1.515625 C 1.078125 -1.210938 1.125 -0.984375 1.21875 -0.828125 C 1.320312 -0.679688 1.484375 -0.609375 1.703125 -0.609375 C 1.921875 -0.609375 2.078125 -0.679688 2.171875 -0.828125 C 2.273438 -0.984375 2.328125 -1.210938 2.328125 -1.515625 C 2.328125 -1.804688 2.273438 -2.023438 2.171875 -2.171875 C 2.078125 -2.328125 1.921875 -2.40625 1.703125 -2.40625 C 1.484375 -2.40625 1.320312 -2.328125 1.21875 -2.171875 C 1.125 -2.023438 1.078125 -1.804688 1.078125 -1.515625 Z M 3.171875 -1.515625 C 3.171875 -1.023438 3.039062 -0.640625 2.78125 -0.359375 C 2.519531 -0.0859375 2.160156 0.046875 1.703125 0.046875 C 1.410156 0.046875 1.15625 -0.015625 0.9375 -0.140625 C 0.71875 -0.265625 0.546875 -0.441406 0.421875 -0.671875 C 0.304688 -0.910156 0.25 -1.191406 0.25 -1.515625 C 0.25 -2.003906 0.375 -2.382812 0.625 -2.65625 C 0.882812 -2.925781 1.25 -3.0625 1.71875 -3.0625 C 2.007812 -3.0625 2.265625 -3 2.484375 -2.875 C 2.703125 -2.75 2.867188 -2.566406 2.984375 -2.328125 C 3.109375 -2.097656 3.171875 -1.828125 3.171875 -1.515625 Z M 3.171875 -1.515625 "/></g></g></g><g fill="#9ca3af" fill-opacity="1"><g transform="translate(287.965677, 50.653735)"><g><path d="M 3.046875 -3.015625 L 3.046875 -2.59375 L 2.578125 -2.46875 C 2.660156 -2.332031 2.703125 -2.179688 2.703125 -2.015625 C 2.703125 -1.691406 2.585938 -1.441406 2.359375 -1.265625 C 2.140625 -1.085938 1.832031 -1 1.4375 -1 L 1.28125 -1 L 1.15625 -1.015625 C 1.070312 -0.953125 1.03125 -0.878906 1.03125 -0.796875 C 1.03125 -0.679688 1.179688 -0.625 1.484375 -0.625 L 2 -0.625 C 2.332031 -0.625 2.582031 -0.550781 2.75 -0.40625 C 2.925781 -0.269531 3.015625 -0.0625 3.015625 0.21875 C 3.015625 0.570312 2.867188 0.84375 2.578125 1.03125 C 2.285156 1.226562 1.863281 1.328125 1.3125 1.328125 C 0.894531 1.328125 0.570312 1.253906 0.34375 1.109375 C 0.125 0.960938 0.015625 0.753906 0.015625 0.484375 C 0.015625 0.304688 0.0703125 0.15625 0.1875 0.03125 C 0.300781 -0.0820312 0.46875 -0.164062 0.6875 -0.21875 C 0.601562 -0.257812 0.53125 -0.320312 0.46875 -0.40625 C 0.40625 -0.488281 0.375 -0.570312 0.375 -0.65625 C 0.375 -0.769531 0.40625 -0.863281 0.46875 -0.9375 C 0.53125 -1.019531 0.625 -1.097656 0.75 -1.171875 C 0.59375 -1.242188 0.46875 -1.351562 0.375 -1.5 C 0.289062 -1.65625 0.25 -1.832031 0.25 -2.03125 C 0.25 -2.363281 0.351562 -2.617188 0.5625 -2.796875 C 0.78125 -2.972656 1.085938 -3.0625 1.484375 -3.0625 C 1.566406 -3.0625 1.664062 -3.050781 1.78125 -3.03125 C 1.894531 -3.019531 1.96875 -3.015625 2 -3.015625 Z M 0.734375 0.421875 C 0.734375 0.535156 0.785156 0.625 0.890625 0.6875 C 0.992188 0.757812 1.144531 0.796875 1.34375 0.796875 C 1.632812 0.796875 1.863281 0.753906 2.03125 0.671875 C 2.207031 0.585938 2.296875 0.476562 2.296875 0.34375 C 2.296875 0.226562 2.242188 0.144531 2.140625 0.09375 C 2.046875 0.0507812 1.894531 0.03125 1.6875 0.03125 L 1.25 0.03125 C 1.101562 0.03125 0.976562 0.0664062 0.875 0.140625 C 0.78125 0.210938 0.734375 0.304688 0.734375 0.421875 Z M 1.03125 -2.03125 C 1.03125 -1.863281 1.066406 -1.734375 1.140625 -1.640625 C 1.210938 -1.546875 1.328125 -1.5 1.484375 -1.5 C 1.628906 -1.5 1.738281 -1.546875 1.8125 -1.640625 C 1.882812 -1.734375 1.921875 -1.863281 1.921875 -2.03125 C 1.921875 -2.382812 1.773438 -2.5625 1.484375 -2.5625 C 1.179688 -2.5625 1.03125 -2.382812 1.03125 -2.03125 Z M 1.03125 -2.03125 "/></g></g></g><g fill="#9ca3af" fill-opacity="1"><g transform="translate(291.08042, 50.653735)"><g><path d="M 1.25 0 L 0.4375 0 L 0.4375 -3.015625 L 1.25 -3.015625 Z M 0.390625 -3.34375 L 0.390625 -3.421875 C 0.703125 -3.773438 0.914062 -4.039062 1.03125 -4.21875 L 1.953125 -4.21875 L 1.953125 -4.171875 C 1.859375 -4.078125 1.695312 -3.9375 1.46875 -3.75 C 1.238281 -3.570312 1.0625 -3.4375 0.9375 -3.34375 Z M 0.390625 -3.34375 "/></g></g></g><g fill="#9ca3af" fill-opacity="1"><g transform="translate(292.762977, 50.653735)"><g><path d="M 2.34375 0 L 2.1875 -0.40625 L 2.15625 -0.40625 C 2.019531 -0.226562 1.878906 -0.109375 1.734375 -0.046875 C 1.585938 0.015625 1.394531 0.046875 1.15625 0.046875 C 0.875 0.046875 0.648438 -0.03125 0.484375 -0.1875 C 0.316406 -0.351562 0.234375 -0.59375 0.234375 -0.90625 C 0.234375 -1.21875 0.34375 -1.445312 0.5625 -1.59375 C 0.789062 -1.75 1.128906 -1.835938 1.578125 -1.859375 L 2.09375 -1.875 L 2.09375 -2 C 2.09375 -2.3125 1.9375 -2.46875 1.625 -2.46875 C 1.382812 -2.46875 1.101562 -2.394531 0.78125 -2.25 L 0.515625 -2.796875 C 0.859375 -2.984375 1.242188 -3.078125 1.671875 -3.078125 C 2.066406 -3.078125 2.375 -2.988281 2.59375 -2.8125 C 2.8125 -2.632812 2.921875 -2.363281 2.921875 -2 L 2.921875 0 Z M 2.09375 -1.390625 L 1.78125 -1.390625 C 1.539062 -1.378906 1.363281 -1.332031 1.25 -1.25 C 1.132812 -1.175781 1.078125 -1.054688 1.078125 -0.890625 C 1.078125 -0.660156 1.207031 -0.546875 1.46875 -0.546875 C 1.664062 -0.546875 1.816406 -0.597656 1.921875 -0.703125 C 2.035156 -0.816406 2.09375 -0.960938 2.09375 -1.140625 Z M 2.09375 -1.390625 "/></g></g></g></svg>