<svg xmlns="http://www.w3.org/2000/svg" xmlns:xlink="http://www.w3.org/1999/xlink" width="500" zoomAndPan="magnify" viewBox="0 0 375 374.999991" height="500" preserveAspectRatio="xMidYMid meet" version="1.0"><defs><g/><clipPath id="9d0326ced0"><path d="M 5.046875 156.035156 L 59.046875 156.035156 L 59.046875 213 L 5.046875 213 Z M 5.046875 156.035156 " clip-rule="nonzero"/></clipPath><clipPath id="3e68c29a41"><path d="M 36.1875 182.539062 L 11.992188 182.539062 C 11.054688 182.539062 10.375 181.644531 10.628906 180.742188 L 17.269531 157.066406 C 17.441406 156.457031 18 156.035156 18.632812 156.035156 L 42.832031 156.035156 C 43.769531 156.035156 44.449219 156.929688 44.195312 157.832031 L 37.550781 181.507812 C 37.378906 182.117188 36.824219 182.539062 36.1875 182.539062 Z M 20.472656 200.410156 L 23.894531 188.222656 C 24.144531 187.316406 23.46875 186.421875 22.527344 186.421875 L 10.089844 186.421875 C 9.457031 186.421875 8.898438 186.84375 8.726562 187.457031 L 5.304688 199.644531 C 5.054688 200.546875 5.730469 201.445312 6.671875 201.445312 L 19.109375 201.445312 C 19.742188 201.445312 20.300781 201.023438 20.472656 200.410156 Z M 26.765625 187.457031 L 20.125 211.128906 C 19.871094 212.03125 20.550781 212.929688 21.488281 212.929688 L 45.683594 212.929688 C 46.320312 212.929688 46.875 212.507812 47.046875 211.894531 L 53.691406 188.222656 C 53.945312 187.316406 53.265625 186.421875 52.328125 186.421875 L 28.128906 186.421875 C 27.496094 186.421875 26.9375 186.84375 26.765625 187.457031 Z M 43.847656 168.550781 L 40.425781 180.742188 C 40.171875 181.644531 40.851562 182.539062 41.789062 182.539062 L 54.226562 182.539062 C 54.863281 182.539062 55.421875 182.117188 55.59375 181.507812 L 59.011719 169.316406 C 59.265625 168.414062 58.585938 167.519531 57.648438 167.519531 L 45.210938 167.519531 C 44.574219 167.519531 44.019531 167.941406 43.847656 168.550781 Z M 43.847656 168.550781 " clip-rule="nonzero"/></clipPath><linearGradient x1="114.296433" gradientTransform="matrix(0.113789, 0, 0, 0.113789, 5.252877, 156.033936)" y1="-47.633991" x2="358.344742" gradientUnits="userSpaceOnUse" y2="546.95888" id="21e52634fb"><stop stop-opacity="1" stop-color="rgb(0%, 39.99939%, 100%)" offset="0"/><stop stop-opacity="1" stop-color="rgb(0%, 39.99939%, 100%)" offset="0.0625"/><stop stop-opacity="1" stop-color="rgb(0.140381%, 40.083313%, 100%)" offset="0.09375"/><stop stop-opacity="1" stop-color="rgb(0.674438%, 40.405273%, 100%)" offset="0.0976563"/><stop stop-opacity="1" stop-color="rgb(1.069641%, 40.643311%, 100%)" offset="0.101563"/><stop stop-opacity="1" stop-color="rgb(1.463318%, 40.879822%, 100%)" offset="0.105469"/><stop stop-opacity="1" stop-color="rgb(1.858521%, 41.117859%, 100%)" offset="0.109375"/><stop stop-opacity="1" stop-color="rgb(2.252197%, 41.355896%, 100%)" offset="0.113281"/><stop stop-opacity="1" stop-color="rgb(2.6474%, 41.593933%, 100%)" offset="0.117188"/><stop stop-opacity="1" stop-color="rgb(3.041077%, 41.830444%, 100%)" offset="0.121094"/><stop stop-opacity="1" stop-color="rgb(3.434753%, 42.068481%, 100%)" offset="0.125"/><stop stop-opacity="1" stop-color="rgb(3.82843%, 42.304993%, 100%)" offset="0.128906"/><stop stop-opacity="1" stop-color="rgb(4.223633%, 42.54303%, 100%)" offset="0.132813"/><stop stop-opacity="1" stop-color="rgb(4.61731%, 42.779541%, 100%)" offset="0.136719"/><stop stop-opacity="1" stop-color="rgb(5.012512%, 43.017578%, 100%)" offset="0.140625"/><stop stop-opacity="1" stop-color="rgb(5.406189%, 43.254089%, 100%)" offset="0.144531"/><stop stop-opacity="1" stop-color="rgb(5.801392%, 43.492126%, 100%)" offset="0.148438"/><stop stop-opacity="1" stop-color="rgb(6.195068%, 43.730164%, 100%)" offset="0.152344"/><stop stop-opacity="1" stop-color="rgb(6.590271%, 43.968201%, 100%)" offset="0.15625"/><stop stop-opacity="1" stop-color="rgb(6.983948%, 44.204712%, 100%)" offset="0.160156"/><stop stop-opacity="1" stop-color="rgb(7.377625%, 44.442749%, 100%)" offset="0.164063"/><stop stop-opacity="1" stop-color="rgb(7.771301%, 44.67926%, 100%)" offset="0.167969"/><stop stop-opacity="1" stop-color="rgb(8.166504%, 44.917297%, 100%)" offset="0.171875"/><stop stop-opacity="1" stop-color="rgb(8.560181%, 45.153809%, 100%)" offset="0.175781"/><stop stop-opacity="1" stop-color="rgb(8.955383%, 45.391846%, 100%)" offset="0.179688"/><stop stop-opacity="1" stop-color="rgb(9.34906%, 45.628357%, 100%)" offset="0.183594"/><stop stop-opacity="1" stop-color="rgb(9.744263%, 45.866394%, 100%)" offset="0.1875"/><stop stop-opacity="1" stop-color="rgb(10.137939%, 46.102905%, 100%)" offset="0.191406"/><stop stop-opacity="1" stop-color="rgb(10.533142%, 46.340942%, 100%)" offset="0.195313"/><stop stop-opacity="1" stop-color="rgb(10.926819%, 46.578979%, 100%)" offset="0.199219"/><stop stop-opacity="1" stop-color="rgb(11.320496%, 46.817017%, 100%)" offset="0.203125"/><stop stop-opacity="1" stop-color="rgb(11.714172%, 47.053528%, 100%)" offset="0.207031"/><stop stop-opacity="1" stop-color="rgb(12.109375%, 47.291565%, 100%)" offset="0.210938"/><stop stop-opacity="1" stop-color="rgb(12.503052%, 47.528076%, 100%)" offset="0.214844"/><stop stop-opacity="1" stop-color="rgb(12.898254%, 47.766113%, 100%)" offset="0.21875"/><stop stop-opacity="1" stop-color="rgb(13.291931%, 48.002625%, 100%)" offset="0.222656"/><stop stop-opacity="1" stop-color="rgb(13.687134%, 48.240662%, 100%)" offset="0.226563"/><stop stop-opacity="1" stop-color="rgb(14.080811%, 48.477173%, 100%)" offset="0.230469"/><stop stop-opacity="1" stop-color="rgb(14.476013%, 48.71521%, 100%)" offset="0.234375"/><stop stop-opacity="1" stop-color="rgb(14.86969%, 48.953247%, 100%)" offset="0.238281"/><stop stop-opacity="1" stop-color="rgb(15.263367%, 49.191284%, 100%)" offset="0.242188"/><stop stop-opacity="1" stop-color="rgb(15.657043%, 49.427795%, 100%)" offset="0.246094"/><stop stop-opacity="1" stop-color="rgb(16.052246%, 49.665833%, 100%)" offset="0.25"/><stop stop-opacity="1" stop-color="rgb(16.445923%, 49.902344%, 100%)" offset="0.253906"/><stop stop-opacity="1" stop-color="rgb(16.841125%, 50.140381%, 100%)" offset="0.257813"/><stop stop-opacity="1" stop-color="rgb(17.234802%, 50.376892%, 100%)" offset="0.261719"/><stop stop-opacity="1" stop-color="rgb(17.630005%, 50.614929%, 100%)" offset="0.265625"/><stop stop-opacity="1" stop-color="rgb(18.023682%, 50.85144%, 100%)" offset="0.269531"/><stop stop-opacity="1" stop-color="rgb(18.418884%, 51.089478%, 100%)" offset="0.273438"/><stop stop-opacity="1" stop-color="rgb(18.812561%, 51.327515%, 100%)" offset="0.277344"/><stop stop-opacity="1" stop-color="rgb(19.206238%, 51.565552%, 100%)" offset="0.28125"/><stop stop-opacity="1" stop-color="rgb(19.599915%, 51.802063%, 100%)" offset="0.285156"/><stop stop-opacity="1" stop-color="rgb(19.995117%, 52.0401%, 100%)" offset="0.289063"/><stop stop-opacity="1" stop-color="rgb(20.388794%, 52.276611%, 100%)" offset="0.292969"/><stop stop-opacity="1" stop-color="rgb(20.783997%, 52.514648%, 100%)" offset="0.296875"/><stop stop-opacity="1" stop-color="rgb(21.177673%, 52.75116%, 100%)" offset="0.300781"/><stop stop-opacity="1" stop-color="rgb(21.572876%, 52.989197%, 100%)" offset="0.304688"/><stop stop-opacity="1" stop-color="rgb(21.966553%, 53.225708%, 100%)" offset="0.308594"/><stop stop-opacity="1" stop-color="rgb(22.361755%, 53.463745%, 100%)" offset="0.3125"/><stop stop-opacity="1" stop-color="rgb(22.755432%, 53.700256%, 100%)" offset="0.316406"/><stop stop-opacity="1" stop-color="rgb(23.149109%, 53.938293%, 100%)" offset="0.320312"/><stop stop-opacity="1" stop-color="rgb(23.542786%, 54.176331%, 100%)" offset="0.324219"/><stop stop-opacity="1" stop-color="rgb(23.937988%, 54.414368%, 100%)" offset="0.328125"/><stop stop-opacity="1" stop-color="rgb(24.331665%, 54.650879%, 100%)" offset="0.332031"/><stop stop-opacity="1" stop-color="rgb(24.726868%, 54.888916%, 100%)" offset="0.335938"/><stop stop-opacity="1" stop-color="rgb(25.120544%, 55.125427%, 100%)" offset="0.339844"/><stop stop-opacity="1" stop-color="rgb(25.515747%, 55.363464%, 100%)" offset="0.34375"/><stop stop-opacity="1" stop-color="rgb(25.909424%, 55.599976%, 100%)" offset="0.347656"/><stop stop-opacity="1" stop-color="rgb(26.304626%, 55.838013%, 100%)" offset="0.351563"/><stop stop-opacity="1" stop-color="rgb(26.698303%, 56.074524%, 100%)" offset="0.355469"/><stop stop-opacity="1" stop-color="rgb(27.09198%, 56.312561%, 100%)" offset="0.359375"/><stop stop-opacity="1" stop-color="rgb(27.485657%, 56.550598%, 100%)" offset="0.363281"/><stop stop-opacity="1" stop-color="rgb(27.880859%, 56.788635%, 100%)" offset="0.367188"/><stop stop-opacity="1" stop-color="rgb(28.274536%, 57.025146%, 100%)" offset="0.371094"/><stop stop-opacity="1" stop-color="rgb(28.669739%, 57.263184%, 100%)" offset="0.375"/><stop stop-opacity="1" stop-color="rgb(29.063416%, 57.499695%, 100%)" offset="0.378906"/><stop stop-opacity="1" stop-color="rgb(29.458618%, 57.737732%, 100%)" offset="0.382813"/><stop stop-opacity="1" stop-color="rgb(29.852295%, 57.974243%, 100%)" offset="0.386719"/><stop stop-opacity="1" stop-color="rgb(30.247498%, 58.21228%, 100%)" offset="0.390625"/><stop stop-opacity="1" stop-color="rgb(30.641174%, 58.448792%, 100%)" offset="0.394531"/><stop stop-opacity="1" stop-color="rgb(31.036377%, 58.686829%, 100%)" offset="0.398438"/><stop stop-opacity="1" stop-color="rgb(31.430054%, 58.924866%, 100%)" offset="0.402344"/><stop stop-opacity="1" stop-color="rgb(31.82373%, 59.162903%, 100%)" offset="0.40625"/><stop stop-opacity="1" stop-color="rgb(32.217407%, 59.399414%, 100%)" offset="0.410156"/><stop stop-opacity="1" stop-color="rgb(32.61261%, 59.637451%, 100%)" offset="0.414063"/><stop stop-opacity="1" stop-color="rgb(33.006287%, 59.873962%, 100%)" offset="0.417969"/><stop stop-opacity="1" stop-color="rgb(33.401489%, 60.112%, 100%)" offset="0.421875"/><stop stop-opacity="1" stop-color="rgb(33.795166%, 60.348511%, 100%)" offset="0.425781"/><stop stop-opacity="1" stop-color="rgb(34.190369%, 60.586548%, 100%)" offset="0.429688"/><stop stop-opacity="1" stop-color="rgb(34.584045%, 60.823059%, 100%)" offset="0.433594"/><stop stop-opacity="1" stop-color="rgb(34.979248%, 61.061096%, 100%)" offset="0.4375"/><stop stop-opacity="1" stop-color="rgb(35.372925%, 61.297607%, 100%)" offset="0.441406"/><stop stop-opacity="1" stop-color="rgb(35.766602%, 61.535645%, 100%)" offset="0.445313"/><stop stop-opacity="1" stop-color="rgb(36.160278%, 61.773682%, 100%)" offset="0.449219"/><stop stop-opacity="1" stop-color="rgb(36.555481%, 62.011719%, 100%)" offset="0.453125"/><stop stop-opacity="1" stop-color="rgb(36.949158%, 62.24823%, 100%)" offset="0.457031"/><stop stop-opacity="1" stop-color="rgb(37.34436%, 62.486267%, 100%)" offset="0.460938"/><stop stop-opacity="1" stop-color="rgb(37.738037%, 62.722778%, 100%)" offset="0.464844"/><stop stop-opacity="1" stop-color="rgb(38.13324%, 62.960815%, 100%)" offset="0.46875"/><stop stop-opacity="1" stop-color="rgb(38.526917%, 63.197327%, 100%)" offset="0.472656"/><stop stop-opacity="1" stop-color="rgb(38.922119%, 63.435364%, 100%)" offset="0.476563"/><stop stop-opacity="1" stop-color="rgb(39.315796%, 63.671875%, 100%)" offset="0.480469"/><stop stop-opacity="1" stop-color="rgb(39.709473%, 63.909912%, 100%)" offset="0.484375"/><stop stop-opacity="1" stop-color="rgb(40.103149%, 64.147949%, 100%)" offset="0.488281"/><stop stop-opacity="1" stop-color="rgb(40.498352%, 64.385986%, 100%)" offset="0.492188"/><stop stop-opacity="1" stop-color="rgb(40.892029%, 64.622498%, 100%)" offset="0.496094"/><stop stop-opacity="1" stop-color="rgb(41.287231%, 64.860535%, 100%)" offset="0.5"/><stop stop-opacity="1" stop-color="rgb(41.680908%, 65.097046%, 100%)" offset="0.503906"/><stop stop-opacity="1" stop-color="rgb(42.076111%, 65.335083%, 100%)" offset="0.507813"/><stop stop-opacity="1" stop-color="rgb(42.469788%, 65.571594%, 100%)" offset="0.511719"/><stop stop-opacity="1" stop-color="rgb(42.86499%, 65.809631%, 100%)" offset="0.515625"/><stop stop-opacity="1" stop-color="rgb(43.258667%, 66.046143%, 100%)" offset="0.519531"/><stop stop-opacity="1" stop-color="rgb(43.652344%, 66.28418%, 100%)" offset="0.523438"/><stop stop-opacity="1" stop-color="rgb(44.046021%, 66.522217%, 100%)" offset="0.527344"/><stop stop-opacity="1" stop-color="rgb(44.441223%, 66.760254%, 100%)" offset="0.53125"/><stop stop-opacity="1" stop-color="rgb(44.8349%, 66.996765%, 100%)" offset="0.535156"/><stop stop-opacity="1" stop-color="rgb(45.230103%, 67.234802%, 100%)" offset="0.539063"/><stop stop-opacity="1" stop-color="rgb(45.623779%, 67.471313%, 100%)" offset="0.542969"/><stop stop-opacity="1" stop-color="rgb(46.018982%, 67.709351%, 100%)" offset="0.546875"/><stop stop-opacity="1" stop-color="rgb(46.412659%, 67.945862%, 100%)" offset="0.550781"/><stop stop-opacity="1" stop-color="rgb(46.807861%, 68.183899%, 100%)" offset="0.554688"/><stop stop-opacity="1" stop-color="rgb(47.201538%, 68.42041%, 100%)" offset="0.558594"/><stop stop-opacity="1" stop-color="rgb(47.595215%, 68.658447%, 100%)" offset="0.5625"/><stop stop-opacity="1" stop-color="rgb(47.988892%, 68.894958%, 100%)" offset="0.566406"/><stop stop-opacity="1" stop-color="rgb(48.384094%, 69.132996%, 100%)" offset="0.570313"/><stop stop-opacity="1" stop-color="rgb(48.777771%, 69.371033%, 100%)" offset="0.574219"/><stop stop-opacity="1" stop-color="rgb(49.172974%, 69.60907%, 100%)" offset="0.578125"/><stop stop-opacity="1" stop-color="rgb(49.56665%, 69.845581%, 100%)" offset="0.582031"/><stop stop-opacity="1" stop-color="rgb(49.961853%, 70.083618%, 100%)" offset="0.585938"/><stop stop-opacity="1" stop-color="rgb(50.35553%, 70.320129%, 100%)" offset="0.589844"/><stop stop-opacity="1" stop-color="rgb(50.750732%, 70.558167%, 100%)" offset="0.59375"/><stop stop-opacity="1" stop-color="rgb(51.144409%, 70.794678%, 100%)" offset="0.597656"/><stop stop-opacity="1" stop-color="rgb(51.538086%, 71.032715%, 100%)" offset="0.601562"/><stop stop-opacity="1" stop-color="rgb(51.931763%, 71.269226%, 100%)" offset="0.605469"/><stop stop-opacity="1" stop-color="rgb(52.326965%, 71.507263%, 100%)" offset="0.609375"/><stop stop-opacity="1" stop-color="rgb(52.720642%, 71.7453%, 100%)" offset="0.613281"/><stop stop-opacity="1" stop-color="rgb(53.115845%, 71.983337%, 100%)" offset="0.617188"/><stop stop-opacity="1" stop-color="rgb(53.509521%, 72.219849%, 100%)" offset="0.621094"/><stop stop-opacity="1" stop-color="rgb(53.904724%, 72.457886%, 100%)" offset="0.625"/><stop stop-opacity="1" stop-color="rgb(54.298401%, 72.694397%, 100%)" offset="0.628906"/><stop stop-opacity="1" stop-color="rgb(54.693604%, 72.932434%, 100%)" offset="0.632813"/><stop stop-opacity="1" stop-color="rgb(55.08728%, 73.168945%, 100%)" offset="0.636719"/><stop stop-opacity="1" stop-color="rgb(55.482483%, 73.406982%, 100%)" offset="0.640625"/><stop stop-opacity="1" stop-color="rgb(55.87616%, 73.643494%, 100%)" offset="0.644531"/><stop stop-opacity="1" stop-color="rgb(56.269836%, 73.881531%, 100%)" offset="0.648438"/><stop stop-opacity="1" stop-color="rgb(56.663513%, 74.119568%, 100%)" offset="0.652344"/><stop stop-opacity="1" stop-color="rgb(57.058716%, 74.357605%, 100%)" offset="0.65625"/><stop stop-opacity="1" stop-color="rgb(57.452393%, 74.594116%, 100%)" offset="0.660156"/><stop stop-opacity="1" stop-color="rgb(57.847595%, 74.832153%, 100%)" offset="0.664063"/><stop stop-opacity="1" stop-color="rgb(58.241272%, 75.068665%, 100%)" offset="0.667969"/><stop stop-opacity="1" stop-color="rgb(58.636475%, 75.306702%, 100%)" offset="0.671875"/><stop stop-opacity="1" stop-color="rgb(59.030151%, 75.543213%, 100%)" offset="0.675781"/><stop stop-opacity="1" stop-color="rgb(59.425354%, 75.78125%, 100%)" offset="0.679688"/><stop stop-opacity="1" stop-color="rgb(59.819031%, 76.017761%, 100%)" offset="0.683594"/><stop stop-opacity="1" stop-color="rgb(60.212708%, 76.255798%, 100%)" offset="0.6875"/><stop stop-opacity="1" stop-color="rgb(60.606384%, 76.49231%, 100%)" offset="0.691406"/><stop stop-opacity="1" stop-color="rgb(61.001587%, 76.730347%, 100%)" offset="0.695312"/><stop stop-opacity="1" stop-color="rgb(61.395264%, 76.968384%, 100%)" offset="0.699219"/><stop stop-opacity="1" stop-color="rgb(61.790466%, 77.206421%, 100%)" offset="0.703125"/><stop stop-opacity="1" stop-color="rgb(62.184143%, 77.442932%, 100%)" offset="0.707031"/><stop stop-opacity="1" stop-color="rgb(62.579346%, 77.680969%, 100%)" offset="0.710938"/><stop stop-opacity="1" stop-color="rgb(62.973022%, 77.91748%, 100%)" offset="0.714844"/><stop stop-opacity="1" stop-color="rgb(63.368225%, 78.155518%, 100%)" offset="0.71875"/><stop stop-opacity="1" stop-color="rgb(63.761902%, 78.392029%, 100%)" offset="0.722656"/><stop stop-opacity="1" stop-color="rgb(64.155579%, 78.630066%, 100%)" offset="0.726562"/><stop stop-opacity="1" stop-color="rgb(64.549255%, 78.866577%, 100%)" offset="0.730469"/><stop stop-opacity="1" stop-color="rgb(64.944458%, 79.104614%, 100%)" offset="0.734375"/><stop stop-opacity="1" stop-color="rgb(65.338135%, 79.342651%, 100%)" offset="0.738281"/><stop stop-opacity="1" stop-color="rgb(65.733337%, 79.580688%, 100%)" offset="0.742188"/><stop stop-opacity="1" stop-color="rgb(66.127014%, 79.8172%, 100%)" offset="0.746094"/><stop stop-opacity="1" stop-color="rgb(66.522217%, 80.055237%, 100%)" offset="0.75"/><stop stop-opacity="1" stop-color="rgb(66.915894%, 80.291748%, 100%)" offset="0.753906"/><stop stop-opacity="1" stop-color="rgb(67.311096%, 80.529785%, 100%)" offset="0.757813"/><stop stop-opacity="1" stop-color="rgb(67.704773%, 80.766296%, 100%)" offset="0.761719"/><stop stop-opacity="1" stop-color="rgb(68.09845%, 81.004333%, 100%)" offset="0.765625"/><stop stop-opacity="1" stop-color="rgb(68.492126%, 81.240845%, 100%)" offset="0.769531"/><stop stop-opacity="1" stop-color="rgb(68.887329%, 81.478882%, 100%)" offset="0.773438"/><stop stop-opacity="1" stop-color="rgb(69.281006%, 81.716919%, 100%)" offset="0.777344"/><stop stop-opacity="1" stop-color="rgb(69.676208%, 81.954956%, 100%)" offset="0.78125"/><stop stop-opacity="1" stop-color="rgb(70.069885%, 82.191467%, 100%)" offset="0.785156"/><stop stop-opacity="1" stop-color="rgb(70.465088%, 82.429504%, 100%)" offset="0.789063"/><stop stop-opacity="1" stop-color="rgb(70.858765%, 82.666016%, 100%)" offset="0.792969"/><stop stop-opacity="1" stop-color="rgb(71.253967%, 82.904053%, 100%)" offset="0.796875"/><stop stop-opacity="1" stop-color="rgb(71.647644%, 83.140564%, 100%)" offset="0.800781"/><stop stop-opacity="1" stop-color="rgb(72.041321%, 83.378601%, 100%)" offset="0.804688"/><stop stop-opacity="1" stop-color="rgb(72.434998%, 83.615112%, 100%)" offset="0.808594"/><stop stop-opacity="1" stop-color="rgb(72.8302%, 83.853149%, 100%)" offset="0.8125"/><stop stop-opacity="1" stop-color="rgb(73.223877%, 84.091187%, 100%)" offset="0.816406"/><stop stop-opacity="1" stop-color="rgb(73.61908%, 84.329224%, 100%)" offset="0.820313"/><stop stop-opacity="1" stop-color="rgb(74.012756%, 84.565735%, 100%)" offset="0.824219"/><stop stop-opacity="1" stop-color="rgb(74.407959%, 84.803772%, 100%)" offset="0.828125"/><stop stop-opacity="1" stop-color="rgb(74.653625%, 84.951782%, 100%)" offset="0.832031"/><stop stop-opacity="1" stop-color="rgb(74.899292%, 85.099792%, 100%)" offset="0.835938"/><stop stop-opacity="1" stop-color="rgb(74.899292%, 85.099792%, 100%)" offset="0.84375"/><stop stop-opacity="1" stop-color="rgb(74.899292%, 85.099792%, 100%)" offset="0.875"/><stop stop-opacity="1" stop-color="rgb(74.899292%, 85.099792%, 100%)" offset="1"/></linearGradient></defs><g clip-path="url(#9d0326ced0)"><g clip-path="url(#3e68c29a41)"><path fill="url(#21e52634fb)" d="M 5.054688 156.035156 L 5.054688 212.929688 L 59.046875 212.929688 L 59.046875 156.035156 Z M 5.054688 156.035156 " fill-rule="nonzero"/></g></g><g fill="#0066ff" fill-opacity="1"><g transform="translate(63.09376, 197.053638)"><g><path d="M 9.515625 0.421875 C 7.585938 0.421875 5.738281 0.164062 3.96875 -0.34375 C 2.207031 -0.851562 0.789062 -1.503906 -0.28125 -2.296875 L 2.015625 -6.65625 C 3.128906 -5.84375 4.382812 -5.210938 5.78125 -4.765625 C 7.175781 -4.328125 8.609375 -4.109375 10.078125 -4.109375 C 11.628906 -4.109375 12.859375 -4.363281 13.765625 -4.875 C 14.671875 -5.382812 15.125 -6.082031 15.125 -6.96875 C 15.125 -7.6875 14.765625 -8.238281 14.046875 -8.625 C 13.328125 -9.007812 12.175781 -9.421875 10.59375 -9.859375 C 9.019531 -10.328125 7.734375 -10.773438 6.734375 -11.203125 C 5.734375 -11.640625 4.863281 -12.285156 4.125 -13.140625 C 3.394531 -14.003906 3.03125 -15.144531 3.03125 -16.5625 C 3.03125 -18.207031 3.488281 -19.65625 4.40625 -20.90625 C 5.320312 -22.164062 6.625 -23.128906 8.3125 -23.796875 C 10 -24.472656 11.957031 -24.8125 14.1875 -24.8125 C 15.832031 -24.8125 17.390625 -24.628906 18.859375 -24.265625 C 20.328125 -23.910156 21.582031 -23.398438 22.625 -22.734375 L 20.5 -18.40625 C 19.59375 -19.03125 18.566406 -19.5 17.421875 -19.8125 C 16.285156 -20.125 15.101562 -20.28125 13.875 -20.28125 C 12.269531 -20.28125 11.003906 -20 10.078125 -19.4375 C 9.148438 -18.882812 8.6875 -18.171875 8.6875 -17.296875 C 8.6875 -16.753906 8.878906 -16.300781 9.265625 -15.9375 C 9.660156 -15.582031 10.160156 -15.296875 10.765625 -15.078125 C 11.367188 -14.859375 12.21875 -14.597656 13.3125 -14.296875 C 14.875 -13.878906 16.15625 -13.453125 17.15625 -13.015625 C 18.15625 -12.585938 19.007812 -11.960938 19.71875 -11.140625 C 20.425781 -10.316406 20.78125 -9.226562 20.78125 -7.875 C 20.78125 -6.207031 20.3125 -4.75 19.375 -3.5 C 18.445312 -2.257812 17.132812 -1.296875 15.4375 -0.609375 C 13.738281 0.078125 11.765625 0.421875 9.515625 0.421875 Z M 9.515625 0.421875 "/></g></g></g><g fill="#0066ff" fill-opacity="1"><g transform="translate(85.329046, 197.053638)"><g><path d="M 27.921875 -19.03125 C 29.960938 -19.03125 31.585938 -18.476562 32.796875 -17.375 C 34.003906 -16.269531 34.609375 -14.707031 34.609375 -12.6875 C 34.609375 -11.945312 34.53125 -11.179688 34.375 -10.390625 L 32.3125 0 L 26.875 0 L 28.859375 -10 C 28.953125 -10.46875 29 -10.945312 29 -11.4375 C 29 -12.382812 28.75 -13.101562 28.25 -13.59375 C 27.75 -14.082031 27.015625 -14.328125 26.046875 -14.328125 C 23.410156 -14.328125 21.769531 -12.757812 21.125 -9.625 L 19.203125 0 L 13.765625 0 L 15.75 -10 C 15.84375 -10.46875 15.890625 -10.9375 15.890625 -11.40625 C 15.890625 -12.351562 15.640625 -13.078125 15.140625 -13.578125 C 14.640625 -14.078125 13.90625 -14.328125 12.9375 -14.328125 C 10.3125 -14.328125 8.660156 -12.734375 7.984375 -9.546875 L 6.09375 0 L 0.65625 0 L 4.390625 -18.75 L 9.546875 -18.75 L 9.140625 -16.796875 C 10.765625 -18.285156 12.726562 -19.03125 15.03125 -19.03125 C 16.320312 -19.03125 17.472656 -18.769531 18.484375 -18.25 C 19.503906 -17.726562 20.269531 -16.96875 20.78125 -15.96875 C 21.6875 -16.96875 22.742188 -17.726562 23.953125 -18.25 C 25.160156 -18.769531 26.484375 -19.03125 27.921875 -19.03125 Z M 27.921875 -19.03125 "/></g></g></g><g fill="#0066ff" fill-opacity="1"><g transform="translate(121.888316, 197.053638)"><g><path d="M 23.421875 -18.75 L 19.703125 0 L 14.53125 0 L 14.890625 -1.84375 C 13.328125 -0.425781 11.410156 0.28125 9.140625 0.28125 C 7.671875 0.28125 6.316406 -0.0546875 5.078125 -0.734375 C 3.847656 -1.410156 2.867188 -2.378906 2.140625 -3.640625 C 1.410156 -4.910156 1.046875 -6.40625 1.046875 -8.125 C 1.046875 -10.1875 1.503906 -12.046875 2.421875 -13.703125 C 3.335938 -15.367188 4.585938 -16.671875 6.171875 -17.609375 C 7.753906 -18.554688 9.5 -19.03125 11.40625 -19.03125 C 14.28125 -19.03125 16.3125 -18.085938 17.5 -16.203125 L 17.984375 -18.75 Z M 10.8125 -4.21875 C 11.875 -4.21875 12.820312 -4.476562 13.65625 -5 C 14.5 -5.519531 15.148438 -6.242188 15.609375 -7.171875 C 16.078125 -8.109375 16.3125 -9.179688 16.3125 -10.390625 C 16.3125 -11.671875 15.929688 -12.679688 15.171875 -13.421875 C 14.421875 -14.160156 13.375 -14.53125 12.03125 -14.53125 C 10.957031 -14.53125 10 -14.269531 9.15625 -13.75 C 8.320312 -13.226562 7.671875 -12.5 7.203125 -11.5625 C 6.742188 -10.632812 6.515625 -9.566406 6.515625 -8.359375 C 6.515625 -7.085938 6.890625 -6.078125 7.640625 -5.328125 C 8.398438 -4.585938 9.457031 -4.21875 10.8125 -4.21875 Z M 10.8125 -4.21875 "/></g></g></g><g fill="#0066ff" fill-opacity="1"><g transform="translate(145.935888, 197.053638)"><g><path d="M 9.09375 -16.515625 C 9.90625 -17.398438 10.882812 -18.039062 12.03125 -18.4375 C 13.1875 -18.832031 14.546875 -19.03125 16.109375 -19.03125 L 15.125 -14.015625 C 14.476562 -14.054688 14.0625 -14.078125 13.875 -14.078125 C 12.226562 -14.078125 10.910156 -13.671875 9.921875 -12.859375 C 8.929688 -12.046875 8.257812 -10.78125 7.90625 -9.0625 L 6.09375 0 L 0.65625 0 L 4.390625 -18.75 L 9.546875 -18.75 Z M 9.09375 -16.515625 "/></g></g></g><g fill="#0066ff" fill-opacity="1"><g transform="translate(160.956909, 197.053638)"><g><path d="M 8.046875 -6.625 C 8.003906 -6.4375 7.984375 -6.179688 7.984375 -5.859375 C 7.984375 -4.648438 8.644531 -4.046875 9.96875 -4.046875 C 10.6875 -4.046875 11.421875 -4.265625 12.171875 -4.703125 L 12.96875 -0.84375 C 11.757812 -0.09375 10.203125 0.28125 8.296875 0.28125 C 6.523438 0.28125 5.101562 -0.179688 4.03125 -1.109375 C 2.96875 -2.046875 2.4375 -3.328125 2.4375 -4.953125 C 2.4375 -5.410156 2.492188 -5.957031 2.609375 -6.59375 L 4.109375 -14.15625 L 1.21875 -14.15625 L 2.0625 -18.34375 L 4.953125 -18.34375 L 5.859375 -22.90625 L 11.296875 -22.90625 L 10.390625 -18.34375 L 15.0625 -18.34375 L 14.21875 -14.15625 L 9.546875 -14.15625 Z M 8.046875 -6.625 "/></g></g></g><g fill="#0066ff" fill-opacity="1"><g transform="translate(176.117332, 197.053638)"><g><path d="M 2.328125 -11.984375 L 12.203125 -11.984375 L 11.328125 -7.640625 L 1.46875 -7.640625 Z M 2.328125 -11.984375 "/></g></g></g><g fill="#0066ff" fill-opacity="1"><g transform="translate(189.570032, 197.053638)"><g><path d="M 5.890625 -24.40625 L 11.578125 -24.40625 L 6.6875 0 L 1.015625 0 Z M 5.890625 -24.40625 "/></g></g></g><g fill="#0066ff" fill-opacity="1"><g transform="translate(201.00134, 197.053638)"><g><path d="M 15.296875 -19.03125 C 17.390625 -19.03125 19.050781 -18.476562 20.28125 -17.375 C 21.519531 -16.269531 22.140625 -14.695312 22.140625 -12.65625 C 22.140625 -11.882812 22.054688 -11.128906 21.890625 -10.390625 L 19.796875 0 L 14.359375 0 L 16.390625 -10.046875 C 16.472656 -10.429688 16.515625 -10.859375 16.515625 -11.328125 C 16.515625 -12.304688 16.25 -13.050781 15.71875 -13.5625 C 15.1875 -14.070312 14.382812 -14.328125 13.3125 -14.328125 C 11.914062 -14.328125 10.757812 -13.925781 9.84375 -13.125 C 8.925781 -12.320312 8.304688 -11.117188 7.984375 -9.515625 L 6.09375 0 L 0.65625 0 L 4.390625 -18.75 L 9.546875 -18.75 L 9.140625 -16.734375 C 10.804688 -18.265625 12.859375 -19.03125 15.296875 -19.03125 Z M 15.296875 -19.03125 "/></g></g></g><g fill="#0066ff" fill-opacity="1"><g transform="translate(225.083759, 197.053638)"><g><path d="M 23 -18.75 L 11.359375 0 L 5.75 0 L 1.609375 -18.75 L 6.96875 -18.75 L 9.6875 -5.96875 L 17.5625 -18.75 Z M 23 -18.75 "/></g></g></g><g fill="#0066ff" fill-opacity="1"><g transform="translate(245.924983, 197.053638)"><g><path d="M 21.015625 -10.765625 C 21.015625 -9.910156 20.910156 -8.957031 20.703125 -7.90625 L 6.34375 -7.90625 C 6.53125 -5.351562 8.144531 -4.078125 11.1875 -4.078125 C 12.144531 -4.078125 13.054688 -4.226562 13.921875 -4.53125 C 14.796875 -4.832031 15.554688 -5.265625 16.203125 -5.828125 L 18.46875 -2.234375 C 17.425781 -1.390625 16.226562 -0.757812 14.875 -0.34375 C 13.53125 0.0703125 12.113281 0.28125 10.625 0.28125 C 8.695312 0.28125 7.003906 -0.0625 5.546875 -0.75 C 4.097656 -1.4375 2.984375 -2.414062 2.203125 -3.6875 C 1.429688 -4.96875 1.046875 -6.445312 1.046875 -8.125 C 1.046875 -10.1875 1.515625 -12.046875 2.453125 -13.703125 C 3.398438 -15.367188 4.707031 -16.671875 6.375 -17.609375 C 8.050781 -18.554688 9.957031 -19.03125 12.09375 -19.03125 C 13.90625 -19.03125 15.476562 -18.691406 16.8125 -18.015625 C 18.15625 -17.347656 19.191406 -16.382812 19.921875 -15.125 C 20.648438 -13.875 21.015625 -12.421875 21.015625 -10.765625 Z M 11.859375 -14.953125 C 10.578125 -14.953125 9.492188 -14.609375 8.609375 -13.921875 C 7.722656 -13.234375 7.097656 -12.285156 6.734375 -11.078125 L 16.03125 -11.078125 C 16.03125 -12.285156 15.648438 -13.234375 14.890625 -13.921875 C 14.140625 -14.609375 13.128906 -14.953125 11.859375 -14.953125 Z M 11.859375 -14.953125 "/></g></g></g><g fill="#0066ff" fill-opacity="1"><g transform="translate(267.81175, 197.053638)"><g><path d="M 15.296875 -19.03125 C 17.390625 -19.03125 19.050781 -18.476562 20.28125 -17.375 C 21.519531 -16.269531 22.140625 -14.695312 22.140625 -12.65625 C 22.140625 -11.882812 22.054688 -11.128906 21.890625 -10.390625 L 19.796875 0 L 14.359375 0 L 16.390625 -10.046875 C 16.472656 -10.429688 16.515625 -10.859375 16.515625 -11.328125 C 16.515625 -12.304688 16.25 -13.050781 15.71875 -13.5625 C 15.1875 -14.070312 14.382812 -14.328125 13.3125 -14.328125 C 11.914062 -14.328125 10.757812 -13.925781 9.84375 -13.125 C 8.925781 -12.320312 8.304688 -11.117188 7.984375 -9.515625 L 6.09375 0 L 0.65625 0 L 4.390625 -18.75 L 9.546875 -18.75 L 9.140625 -16.734375 C 10.804688 -18.265625 12.859375 -19.03125 15.296875 -19.03125 Z M 15.296875 -19.03125 "/></g></g></g><g fill="#0066ff" fill-opacity="1"><g transform="translate(291.894169, 197.053638)"><g><path d="M 8.046875 -6.625 C 8.003906 -6.4375 7.984375 -6.179688 7.984375 -5.859375 C 7.984375 -4.648438 8.644531 -4.046875 9.96875 -4.046875 C 10.6875 -4.046875 11.421875 -4.265625 12.171875 -4.703125 L 12.96875 -0.84375 C 11.757812 -0.09375 10.203125 0.28125 8.296875 0.28125 C 6.523438 0.28125 5.101562 -0.179688 4.03125 -1.109375 C 2.96875 -2.046875 2.4375 -3.328125 2.4375 -4.953125 C 2.4375 -5.410156 2.492188 -5.957031 2.609375 -6.59375 L 4.109375 -14.15625 L 1.21875 -14.15625 L 2.0625 -18.34375 L 4.953125 -18.34375 L 5.859375 -22.90625 L 11.296875 -22.90625 L 10.390625 -18.34375 L 15.0625 -18.34375 L 14.21875 -14.15625 L 9.546875 -14.15625 Z M 8.046875 -6.625 "/></g></g></g><g fill="#0066ff" fill-opacity="1"><g transform="translate(307.054591, 197.053638)"><g><path d="M 10.453125 0.28125 C 8.578125 0.28125 6.921875 -0.0664062 5.484375 -0.765625 C 4.054688 -1.460938 2.953125 -2.441406 2.171875 -3.703125 C 1.398438 -4.972656 1.015625 -6.445312 1.015625 -8.125 C 1.015625 -10.1875 1.5 -12.039062 2.46875 -13.6875 C 3.445312 -15.34375 4.796875 -16.644531 6.515625 -17.59375 C 8.234375 -18.550781 10.175781 -19.03125 12.34375 -19.03125 C 14.25 -19.03125 15.910156 -18.679688 17.328125 -17.984375 C 18.742188 -17.285156 19.835938 -16.300781 20.609375 -15.03125 C 21.390625 -13.769531 21.78125 -12.300781 21.78125 -10.625 C 21.78125 -8.5625 21.296875 -6.703125 20.328125 -5.046875 C 19.367188 -3.398438 18.023438 -2.097656 16.296875 -1.140625 C 14.566406 -0.191406 12.617188 0.28125 10.453125 0.28125 Z M 10.8125 -4.21875 C 11.851562 -4.21875 12.789062 -4.476562 13.625 -5 C 14.46875 -5.519531 15.117188 -6.242188 15.578125 -7.171875 C 16.046875 -8.109375 16.28125 -9.179688 16.28125 -10.390625 C 16.28125 -11.671875 15.90625 -12.679688 15.15625 -13.421875 C 14.414062 -14.160156 13.375 -14.53125 12.03125 -14.53125 C 10.957031 -14.53125 10 -14.269531 9.15625 -13.75 C 8.320312 -13.226562 7.671875 -12.5 7.203125 -11.5625 C 6.742188 -10.632812 6.515625 -9.566406 6.515625 -8.359375 C 6.515625 -7.085938 6.890625 -6.078125 7.640625 -5.328125 C 8.398438 -4.585938 9.457031 -4.21875 10.8125 -4.21875 Z M 10.8125 -4.21875 "/></g></g></g><g fill="#0066ff" fill-opacity="1"><g transform="translate(329.847513, 197.053638)"><g><path d="M 9.09375 -16.515625 C 9.90625 -17.398438 10.882812 -18.039062 12.03125 -18.4375 C 13.1875 -18.832031 14.546875 -19.03125 16.109375 -19.03125 L 15.125 -14.015625 C 14.476562 -14.054688 14.0625 -14.078125 13.875 -14.078125 C 12.226562 -14.078125 10.910156 -13.671875 9.921875 -12.859375 C 8.929688 -12.046875 8.257812 -10.78125 7.90625 -9.0625 L 6.09375 0 L 0.65625 0 L 4.390625 -18.75 L 9.546875 -18.75 Z M 9.09375 -16.515625 "/></g></g></g><g fill="#0066ff" fill-opacity="1"><g transform="translate(344.868523, 197.053638)"><g><path d="M 23 -18.75 L 10.53125 1.25 C 9.175781 3.4375 7.863281 4.945312 6.59375 5.78125 C 5.332031 6.625 3.785156 7.046875 1.953125 7.046875 C 0.972656 7.046875 0.015625 6.894531 -0.921875 6.59375 C -1.859375 6.289062 -2.597656 5.894531 -3.140625 5.40625 L -0.625 1.5 C 0.207031 2.269531 1.207031 2.65625 2.375 2.65625 C 3.070312 2.65625 3.675781 2.476562 4.1875 2.125 C 4.695312 1.78125 5.21875 1.1875 5.75 0.34375 L 5.921875 0.03125 L 1.609375 -18.75 L 7.046875 -18.75 L 9.828125 -6 L 17.640625 -18.75 Z M 23 -18.75 "/></g></g></g><g fill="#9ca3af" fill-opacity="1"><g transform="translate(99.400963, 214.813536)"><g><path d="M 4.578125 0 L 2.6875 0 L 2.6875 -7.375 L 0.25 -7.375 L 0.25 -8.953125 L 7.015625 -8.953125 L 7.015625 -7.375 L 4.578125 -7.375 Z M 4.578125 0 "/></g></g></g><g fill="#9ca3af" fill-opacity="1"><g transform="translate(106.662353, 214.813536)"><g><path d="M 4.796875 -6.984375 C 5.054688 -6.984375 5.269531 -6.960938 5.4375 -6.921875 L 5.296875 -5.171875 C 5.140625 -5.210938 4.953125 -5.234375 4.734375 -5.234375 C 4.140625 -5.234375 3.675781 -5.078125 3.34375 -4.765625 C 3.007812 -4.460938 2.84375 -4.035156 2.84375 -3.484375 L 2.84375 0 L 0.984375 0 L 0.984375 -6.84375 L 2.390625 -6.84375 L 2.671875 -5.703125 L 2.765625 -5.703125 C 2.972656 -6.085938 3.257812 -6.394531 3.625 -6.625 C 3.988281 -6.863281 4.378906 -6.984375 4.796875 -6.984375 Z M 4.796875 -6.984375 "/></g></g></g><g fill="#9ca3af" fill-opacity="1"><g transform="translate(112.356361, 214.813536)"><g><path d="M 5.328125 0 L 4.96875 -0.9375 L 4.921875 -0.9375 C 4.609375 -0.539062 4.285156 -0.265625 3.953125 -0.109375 C 3.617188 0.046875 3.179688 0.125 2.640625 0.125 C 1.984375 0.125 1.46875 -0.0625 1.09375 -0.4375 C 0.71875 -0.8125 0.53125 -1.347656 0.53125 -2.046875 C 0.53125 -2.773438 0.78125 -3.3125 1.28125 -3.65625 C 1.789062 -4 2.5625 -4.191406 3.59375 -4.234375 L 4.78125 -4.265625 L 4.78125 -4.5625 C 4.78125 -5.257812 4.425781 -5.609375 3.71875 -5.609375 C 3.164062 -5.609375 2.519531 -5.441406 1.78125 -5.109375 L 1.15625 -6.375 C 1.945312 -6.78125 2.820312 -6.984375 3.78125 -6.984375 C 4.707031 -6.984375 5.414062 -6.785156 5.90625 -6.390625 C 6.394531 -5.992188 6.640625 -5.382812 6.640625 -4.5625 L 6.640625 0 Z M 4.78125 -3.171875 L 4.0625 -3.15625 C 3.507812 -3.132812 3.097656 -3.03125 2.828125 -2.84375 C 2.566406 -2.664062 2.4375 -2.394531 2.4375 -2.03125 C 2.4375 -1.507812 2.738281 -1.25 3.34375 -1.25 C 3.78125 -1.25 4.128906 -1.367188 4.390625 -1.609375 C 4.648438 -1.859375 4.78125 -2.191406 4.78125 -2.609375 Z M 4.78125 -3.171875 "/></g></g></g><g fill="#9ca3af" fill-opacity="1"><g transform="translate(119.930003, 214.813536)"><g><path d="M 7.296875 0 L 5.4375 0 L 5.4375 -4 C 5.4375 -4.488281 5.347656 -4.859375 5.171875 -5.109375 C 4.992188 -5.359375 4.710938 -5.484375 4.328125 -5.484375 C 3.804688 -5.484375 3.425781 -5.304688 3.1875 -4.953125 C 2.957031 -4.609375 2.84375 -4.03125 2.84375 -3.21875 L 2.84375 0 L 0.984375 0 L 0.984375 -6.84375 L 2.40625 -6.84375 L 2.65625 -5.96875 L 2.765625 -5.96875 C 2.972656 -6.300781 3.257812 -6.550781 3.625 -6.71875 C 3.988281 -6.894531 4.40625 -6.984375 4.875 -6.984375 C 5.664062 -6.984375 6.265625 -6.765625 6.671875 -6.328125 C 7.085938 -5.898438 7.296875 -5.28125 7.296875 -4.46875 Z M 7.296875 0 "/></g></g></g><g fill="#9ca3af" fill-opacity="1"><g transform="translate(128.171007, 214.813536)"><g><path d="M 5.765625 -2.03125 C 5.765625 -1.332031 5.519531 -0.796875 5.03125 -0.421875 C 4.539062 -0.0546875 3.8125 0.125 2.84375 0.125 C 2.34375 0.125 1.914062 0.0859375 1.5625 0.015625 C 1.207031 -0.046875 0.878906 -0.144531 0.578125 -0.28125 L 0.578125 -1.8125 C 0.921875 -1.65625 1.3125 -1.519531 1.75 -1.40625 C 2.1875 -1.300781 2.566406 -1.25 2.890625 -1.25 C 3.578125 -1.25 3.921875 -1.441406 3.921875 -1.828125 C 3.921875 -1.972656 3.875 -2.09375 3.78125 -2.1875 C 3.6875 -2.28125 3.53125 -2.382812 3.3125 -2.5 C 3.09375 -2.613281 2.800781 -2.75 2.4375 -2.90625 C 1.90625 -3.125 1.515625 -3.328125 1.265625 -3.515625 C 1.023438 -3.703125 0.847656 -3.914062 0.734375 -4.15625 C 0.617188 -4.40625 0.5625 -4.707031 0.5625 -5.0625 C 0.5625 -5.675781 0.796875 -6.148438 1.265625 -6.484375 C 1.742188 -6.816406 2.414062 -6.984375 3.28125 -6.984375 C 4.101562 -6.984375 4.90625 -6.800781 5.6875 -6.4375 L 5.125 -5.09375 C 4.78125 -5.238281 4.457031 -5.359375 4.15625 -5.453125 C 3.863281 -5.546875 3.5625 -5.59375 3.25 -5.59375 C 2.695312 -5.59375 2.421875 -5.441406 2.421875 -5.140625 C 2.421875 -4.972656 2.507812 -4.828125 2.6875 -4.703125 C 2.863281 -4.585938 3.253906 -4.410156 3.859375 -4.171875 C 4.390625 -3.953125 4.78125 -3.75 5.03125 -3.5625 C 5.28125 -3.375 5.460938 -3.15625 5.578125 -2.90625 C 5.703125 -2.664062 5.765625 -2.375 5.765625 -2.03125 Z M 5.765625 -2.03125 "/></g></g></g><g fill="#9ca3af" fill-opacity="1"><g transform="translate(134.403803, 214.813536)"><g><path d="M 4.765625 -5.453125 L 3.15625 -5.453125 L 3.15625 0 L 1.28125 0 L 1.28125 -5.453125 L 0.25 -5.453125 L 0.25 -6.34375 L 1.28125 -6.84375 L 1.28125 -7.359375 C 1.28125 -8.128906 1.472656 -8.691406 1.859375 -9.046875 C 2.242188 -9.410156 2.859375 -9.59375 3.703125 -9.59375 C 4.347656 -9.59375 4.921875 -9.5 5.421875 -9.3125 L 4.9375 -7.9375 C 4.5625 -8.0625 4.21875 -8.125 3.90625 -8.125 C 3.632812 -8.125 3.441406 -8.039062 3.328125 -7.875 C 3.210938 -7.71875 3.15625 -7.519531 3.15625 -7.28125 L 3.15625 -6.84375 L 4.765625 -6.84375 Z M 4.765625 -5.453125 "/></g></g></g><g fill="#9ca3af" fill-opacity="1"><g transform="translate(139.259015, 214.813536)"><g><path d="M 2.46875 -3.4375 C 2.46875 -2.757812 2.578125 -2.242188 2.796875 -1.890625 C 3.023438 -1.546875 3.390625 -1.375 3.890625 -1.375 C 4.390625 -1.375 4.75 -1.546875 4.96875 -1.890625 C 5.1875 -2.234375 5.296875 -2.75 5.296875 -3.4375 C 5.296875 -4.113281 5.179688 -4.617188 4.953125 -4.953125 C 4.734375 -5.296875 4.375 -5.46875 3.875 -5.46875 C 3.375 -5.46875 3.015625 -5.296875 2.796875 -4.953125 C 2.578125 -4.617188 2.46875 -4.113281 2.46875 -3.4375 Z M 7.203125 -3.4375 C 7.203125 -2.320312 6.90625 -1.445312 6.3125 -0.8125 C 5.726562 -0.1875 4.910156 0.125 3.859375 0.125 C 3.203125 0.125 2.625 -0.015625 2.125 -0.296875 C 1.625 -0.585938 1.238281 -1.003906 0.96875 -1.546875 C 0.695312 -2.085938 0.5625 -2.71875 0.5625 -3.4375 C 0.5625 -4.550781 0.851562 -5.421875 1.4375 -6.046875 C 2.019531 -6.671875 2.84375 -6.984375 3.90625 -6.984375 C 4.5625 -6.984375 5.140625 -6.835938 5.640625 -6.546875 C 6.140625 -6.265625 6.523438 -5.851562 6.796875 -5.3125 C 7.066406 -4.78125 7.203125 -4.15625 7.203125 -3.4375 Z M 7.203125 -3.4375 "/></g></g></g><g fill="#9ca3af" fill-opacity="1"><g transform="translate(147.022458, 214.813536)"><g><path d="M 4.796875 -6.984375 C 5.054688 -6.984375 5.269531 -6.960938 5.4375 -6.921875 L 5.296875 -5.171875 C 5.140625 -5.210938 4.953125 -5.234375 4.734375 -5.234375 C 4.140625 -5.234375 3.675781 -5.078125 3.34375 -4.765625 C 3.007812 -4.460938 2.84375 -4.035156 2.84375 -3.484375 L 2.84375 0 L 0.984375 0 L 0.984375 -6.84375 L 2.390625 -6.84375 L 2.671875 -5.703125 L 2.765625 -5.703125 C 2.972656 -6.085938 3.257812 -6.394531 3.625 -6.625 C 3.988281 -6.863281 4.378906 -6.984375 4.796875 -6.984375 Z M 4.796875 -6.984375 "/></g></g></g><g fill="#9ca3af" fill-opacity="1"><g transform="translate(152.716465, 214.813536)"><g><path d="M 7.109375 0 L 5.25 0 L 5.25 -4 C 5.25 -4.488281 5.164062 -4.859375 5 -5.109375 C 4.832031 -5.359375 4.570312 -5.484375 4.21875 -5.484375 C 3.738281 -5.484375 3.390625 -5.304688 3.171875 -4.953125 C 2.953125 -4.597656 2.84375 -4.019531 2.84375 -3.21875 L 2.84375 0 L 0.984375 0 L 0.984375 -6.84375 L 2.40625 -6.84375 L 2.65625 -5.96875 L 2.765625 -5.96875 C 2.941406 -6.28125 3.203125 -6.523438 3.546875 -6.703125 C 3.898438 -6.890625 4.300781 -6.984375 4.75 -6.984375 C 5.78125 -6.984375 6.476562 -6.644531 6.84375 -5.96875 L 7 -5.96875 C 7.1875 -6.289062 7.457031 -6.539062 7.8125 -6.71875 C 8.164062 -6.894531 8.570312 -6.984375 9.03125 -6.984375 C 9.800781 -6.984375 10.382812 -6.78125 10.78125 -6.375 C 11.1875 -5.976562 11.390625 -5.34375 11.390625 -4.46875 L 11.390625 0 L 9.515625 0 L 9.515625 -4 C 9.515625 -4.488281 9.429688 -4.859375 9.265625 -5.109375 C 9.097656 -5.359375 8.835938 -5.484375 8.484375 -5.484375 C 8.023438 -5.484375 7.679688 -5.316406 7.453125 -4.984375 C 7.222656 -4.660156 7.109375 -4.144531 7.109375 -3.4375 Z M 7.109375 0 "/></g></g></g><g fill="#9ca3af" fill-opacity="1"><g transform="translate(165.028991, 214.813536)"><g><path d="M 5.328125 0 L 4.96875 -0.9375 L 4.921875 -0.9375 C 4.609375 -0.539062 4.285156 -0.265625 3.953125 -0.109375 C 3.617188 0.046875 3.179688 0.125 2.640625 0.125 C 1.984375 0.125 1.46875 -0.0625 1.09375 -0.4375 C 0.71875 -0.8125 0.53125 -1.347656 0.53125 -2.046875 C 0.53125 -2.773438 0.78125 -3.3125 1.28125 -3.65625 C 1.789062 -4 2.5625 -4.191406 3.59375 -4.234375 L 4.78125 -4.265625 L 4.78125 -4.5625 C 4.78125 -5.257812 4.425781 -5.609375 3.71875 -5.609375 C 3.164062 -5.609375 2.519531 -5.441406 1.78125 -5.109375 L 1.15625 -6.375 C 1.945312 -6.78125 2.820312 -6.984375 3.78125 -6.984375 C 4.707031 -6.984375 5.414062 -6.785156 5.90625 -6.390625 C 6.394531 -5.992188 6.640625 -5.382812 6.640625 -4.5625 L 6.640625 0 Z M 4.78125 -3.171875 L 4.0625 -3.15625 C 3.507812 -3.132812 3.097656 -3.03125 2.828125 -2.84375 C 2.566406 -2.664062 2.4375 -2.394531 2.4375 -2.03125 C 2.4375 -1.507812 2.738281 -1.25 3.34375 -1.25 C 3.78125 -1.25 4.128906 -1.367188 4.390625 -1.609375 C 4.648438 -1.859375 4.78125 -2.191406 4.78125 -2.609375 Z M 4.78125 -3.171875 "/></g></g></g><g fill="#9ca3af" fill-opacity="1"><g transform="translate(172.602634, 214.813536)"><g/></g></g><g fill="#9ca3af" fill-opacity="1"><g transform="translate(175.859851, 214.813536)"><g><path d="M 3.859375 -1.359375 C 4.191406 -1.359375 4.585938 -1.429688 5.046875 -1.578125 L 5.046875 -0.1875 C 4.578125 0.0195312 4.003906 0.125 3.328125 0.125 C 2.578125 0.125 2.03125 -0.0625 1.6875 -0.4375 C 1.351562 -0.820312 1.1875 -1.390625 1.1875 -2.140625 L 1.1875 -5.453125 L 0.28125 -5.453125 L 0.28125 -6.234375 L 1.3125 -6.859375 L 1.859375 -8.3125 L 3.046875 -8.3125 L 3.046875 -6.84375 L 4.96875 -6.84375 L 4.96875 -5.453125 L 3.046875 -5.453125 L 3.046875 -2.140625 C 3.046875 -1.878906 3.117188 -1.679688 3.265625 -1.546875 C 3.421875 -1.421875 3.617188 -1.359375 3.859375 -1.359375 Z M 3.859375 -1.359375 "/></g></g></g><g fill="#9ca3af" fill-opacity="1"><g transform="translate(181.302832, 214.813536)"><g><path d="M 5.828125 0 L 5.578125 -0.875 L 5.484375 -0.875 C 5.285156 -0.550781 5 -0.300781 4.625 -0.125 C 4.257812 0.0390625 3.84375 0.125 3.375 0.125 C 2.570312 0.125 1.960938 -0.0859375 1.546875 -0.515625 C 1.140625 -0.953125 0.9375 -1.578125 0.9375 -2.390625 L 0.9375 -6.84375 L 2.8125 -6.84375 L 2.8125 -2.84375 C 2.8125 -2.351562 2.898438 -1.984375 3.078125 -1.734375 C 3.253906 -1.484375 3.535156 -1.359375 3.921875 -1.359375 C 4.441406 -1.359375 4.816406 -1.53125 5.046875 -1.875 C 5.273438 -2.226562 5.390625 -2.8125 5.390625 -3.625 L 5.390625 -6.84375 L 7.265625 -6.84375 L 7.265625 0 Z M 5.828125 0 "/></g></g></g><g fill="#9ca3af" fill-opacity="1"><g transform="translate(189.543837, 214.813536)"><g/></g></g><g fill="#9ca3af" fill-opacity="1"><g transform="translate(192.801054, 214.813536)"><g><path d="M 4.796875 -6.984375 C 5.597656 -6.984375 6.226562 -6.664062 6.6875 -6.03125 C 7.144531 -5.394531 7.375 -4.53125 7.375 -3.4375 C 7.375 -2.300781 7.140625 -1.421875 6.671875 -0.796875 C 6.203125 -0.179688 5.554688 0.125 4.734375 0.125 C 3.929688 0.125 3.300781 -0.164062 2.84375 -0.75 L 2.71875 -0.75 L 2.40625 0 L 0.984375 0 L 0.984375 -9.53125 L 2.84375 -9.53125 L 2.84375 -7.3125 C 2.84375 -7.03125 2.820312 -6.582031 2.78125 -5.96875 L 2.84375 -5.96875 C 3.28125 -6.644531 3.929688 -6.984375 4.796875 -6.984375 Z M 4.1875 -5.484375 C 3.726562 -5.484375 3.390625 -5.335938 3.171875 -5.046875 C 2.960938 -4.765625 2.851562 -4.300781 2.84375 -3.65625 L 2.84375 -3.453125 C 2.84375 -2.710938 2.953125 -2.179688 3.171875 -1.859375 C 3.390625 -1.546875 3.738281 -1.390625 4.21875 -1.390625 C 4.601562 -1.390625 4.90625 -1.566406 5.125 -1.921875 C 5.351562 -2.273438 5.46875 -2.789062 5.46875 -3.46875 C 5.46875 -4.132812 5.351562 -4.632812 5.125 -4.96875 C 4.894531 -5.3125 4.582031 -5.484375 4.1875 -5.484375 Z M 4.1875 -5.484375 "/></g></g></g><g fill="#9ca3af" fill-opacity="1"><g transform="translate(200.735929, 214.813536)"><g><path d="M 2.46875 -3.4375 C 2.46875 -2.757812 2.578125 -2.242188 2.796875 -1.890625 C 3.023438 -1.546875 3.390625 -1.375 3.890625 -1.375 C 4.390625 -1.375 4.75 -1.546875 4.96875 -1.890625 C 5.1875 -2.234375 5.296875 -2.75 5.296875 -3.4375 C 5.296875 -4.113281 5.179688 -4.617188 4.953125 -4.953125 C 4.734375 -5.296875 4.375 -5.46875 3.875 -5.46875 C 3.375 -5.46875 3.015625 -5.296875 2.796875 -4.953125 C 2.578125 -4.617188 2.46875 -4.113281 2.46875 -3.4375 Z M 7.203125 -3.4375 C 7.203125 -2.320312 6.90625 -1.445312 6.3125 -0.8125 C 5.726562 -0.1875 4.910156 0.125 3.859375 0.125 C 3.203125 0.125 2.625 -0.015625 2.125 -0.296875 C 1.625 -0.585938 1.238281 -1.003906 0.96875 -1.546875 C 0.695312 -2.085938 0.5625 -2.71875 0.5625 -3.4375 C 0.5625 -4.550781 0.851562 -5.421875 1.4375 -6.046875 C 2.019531 -6.671875 2.84375 -6.984375 3.90625 -6.984375 C 4.5625 -6.984375 5.140625 -6.835938 5.640625 -6.546875 C 6.140625 -6.265625 6.523438 -5.851562 6.796875 -5.3125 C 7.066406 -4.78125 7.203125 -4.15625 7.203125 -3.4375 Z M 7.203125 -3.4375 "/></g></g></g><g fill="#9ca3af" fill-opacity="1"><g transform="translate(208.499371, 214.813536)"><g><path d="M 3.15625 0.125 C 2.34375 0.125 1.707031 -0.1875 1.25 -0.8125 C 0.789062 -1.4375 0.5625 -2.300781 0.5625 -3.40625 C 0.5625 -4.53125 0.796875 -5.40625 1.265625 -6.03125 C 1.734375 -6.664062 2.378906 -6.984375 3.203125 -6.984375 C 4.054688 -6.984375 4.710938 -6.644531 5.171875 -5.96875 L 5.234375 -5.96875 C 5.140625 -6.476562 5.09375 -6.9375 5.09375 -7.34375 L 5.09375 -9.53125 L 6.96875 -9.53125 L 6.96875 0 L 5.53125 0 L 5.171875 -0.890625 L 5.09375 -0.890625 C 4.664062 -0.210938 4.019531 0.125 3.15625 0.125 Z M 3.796875 -1.359375 C 4.273438 -1.359375 4.625 -1.5 4.84375 -1.78125 C 5.070312 -2.0625 5.195312 -2.535156 5.21875 -3.203125 L 5.21875 -3.40625 C 5.21875 -4.132812 5.101562 -4.65625 4.875 -4.96875 C 4.65625 -5.289062 4.289062 -5.453125 3.78125 -5.453125 C 3.363281 -5.453125 3.035156 -5.273438 2.796875 -4.921875 C 2.566406 -4.578125 2.453125 -4.066406 2.453125 -3.390625 C 2.453125 -2.710938 2.566406 -2.203125 2.796875 -1.859375 C 3.035156 -1.523438 3.367188 -1.359375 3.796875 -1.359375 Z M 3.796875 -1.359375 "/></g></g></g><g fill="#9ca3af" fill-opacity="1"><g transform="translate(216.434246, 214.813536)"><g><path d="M 3.8125 -5.65625 C 3.414062 -5.65625 3.101562 -5.523438 2.875 -5.265625 C 2.65625 -5.015625 2.53125 -4.660156 2.5 -4.203125 L 5.125 -4.203125 C 5.113281 -4.660156 4.988281 -5.015625 4.75 -5.265625 C 4.519531 -5.523438 4.207031 -5.65625 3.8125 -5.65625 Z M 4.078125 0.125 C 2.972656 0.125 2.109375 -0.175781 1.484375 -0.78125 C 0.867188 -1.394531 0.5625 -2.257812 0.5625 -3.375 C 0.5625 -4.519531 0.847656 -5.40625 1.421875 -6.03125 C 1.992188 -6.664062 2.785156 -6.984375 3.796875 -6.984375 C 4.765625 -6.984375 5.519531 -6.707031 6.0625 -6.15625 C 6.601562 -5.601562 6.875 -4.835938 6.875 -3.859375 L 6.875 -2.953125 L 2.453125 -2.953125 C 2.472656 -2.421875 2.628906 -2.003906 2.921875 -1.703125 C 3.222656 -1.410156 3.640625 -1.265625 4.171875 -1.265625 C 4.578125 -1.265625 4.960938 -1.304688 5.328125 -1.390625 C 5.703125 -1.484375 6.085938 -1.625 6.484375 -1.8125 L 6.484375 -0.359375 C 6.160156 -0.191406 5.8125 -0.0703125 5.4375 0 C 5.0625 0.0820312 4.609375 0.125 4.078125 0.125 Z M 4.078125 0.125 "/></g></g></g><g fill="#9ca3af" fill-opacity="1"><g transform="translate(223.842578, 214.813536)"><g><path d="M 6.9375 -6.84375 L 6.9375 -5.90625 L 5.875 -5.625 C 6.0625 -5.320312 6.15625 -4.976562 6.15625 -4.59375 C 6.15625 -3.851562 5.898438 -3.28125 5.390625 -2.875 C 4.878906 -2.46875 4.171875 -2.265625 3.265625 -2.265625 L 2.921875 -2.28125 L 2.640625 -2.3125 C 2.453125 -2.164062 2.359375 -2 2.359375 -1.8125 C 2.359375 -1.550781 2.703125 -1.421875 3.390625 -1.421875 L 4.546875 -1.421875 C 5.296875 -1.421875 5.867188 -1.257812 6.265625 -0.9375 C 6.660156 -0.613281 6.859375 -0.140625 6.859375 0.484375 C 6.859375 1.285156 6.523438 1.90625 5.859375 2.34375 C 5.191406 2.789062 4.234375 3.015625 2.984375 3.015625 C 2.023438 3.015625 1.289062 2.847656 0.78125 2.515625 C 0.28125 2.179688 0.03125 1.710938 0.03125 1.109375 C 0.03125 0.703125 0.160156 0.359375 0.421875 0.078125 C 0.679688 -0.203125 1.0625 -0.398438 1.5625 -0.515625 C 1.363281 -0.597656 1.191406 -0.726562 1.046875 -0.90625 C 0.910156 -1.09375 0.84375 -1.289062 0.84375 -1.5 C 0.84375 -1.769531 0.914062 -1.988281 1.0625 -2.15625 C 1.21875 -2.332031 1.4375 -2.503906 1.71875 -2.671875 C 1.363281 -2.828125 1.078125 -3.078125 0.859375 -3.421875 C 0.648438 -3.765625 0.546875 -4.164062 0.546875 -4.625 C 0.546875 -5.375 0.789062 -5.953125 1.28125 -6.359375 C 1.769531 -6.773438 2.460938 -6.984375 3.359375 -6.984375 C 3.554688 -6.984375 3.785156 -6.960938 4.046875 -6.921875 C 4.304688 -6.890625 4.472656 -6.863281 4.546875 -6.84375 Z M 1.65625 0.96875 C 1.65625 1.226562 1.773438 1.429688 2.015625 1.578125 C 2.265625 1.722656 2.613281 1.796875 3.0625 1.796875 C 3.726562 1.796875 4.25 1.703125 4.625 1.515625 C 5.007812 1.335938 5.203125 1.085938 5.203125 0.765625 C 5.203125 0.503906 5.085938 0.320312 4.859375 0.21875 C 4.640625 0.125 4.296875 0.078125 3.828125 0.078125 L 2.859375 0.078125 C 2.515625 0.078125 2.226562 0.15625 2 0.3125 C 1.769531 0.476562 1.65625 0.695312 1.65625 0.96875 Z M 2.328125 -4.609375 C 2.328125 -4.234375 2.410156 -3.9375 2.578125 -3.71875 C 2.753906 -3.507812 3.015625 -3.40625 3.359375 -3.40625 C 3.710938 -3.40625 3.96875 -3.507812 4.125 -3.71875 C 4.289062 -3.9375 4.375 -4.234375 4.375 -4.609375 C 4.375 -5.429688 4.035156 -5.84375 3.359375 -5.84375 C 2.671875 -5.84375 2.328125 -5.429688 2.328125 -4.609375 Z M 2.328125 -4.609375 "/></g></g></g><g fill="#9ca3af" fill-opacity="1"><g transform="translate(230.926414, 214.813536)"><g><path d="M 5.328125 0 L 4.96875 -0.9375 L 4.921875 -0.9375 C 4.609375 -0.539062 4.285156 -0.265625 3.953125 -0.109375 C 3.617188 0.046875 3.179688 0.125 2.640625 0.125 C 1.984375 0.125 1.46875 -0.0625 1.09375 -0.4375 C 0.71875 -0.8125 0.53125 -1.347656 0.53125 -2.046875 C 0.53125 -2.773438 0.78125 -3.3125 1.28125 -3.65625 C 1.789062 -4 2.5625 -4.191406 3.59375 -4.234375 L 4.78125 -4.265625 L 4.78125 -4.5625 C 4.78125 -5.257812 4.425781 -5.609375 3.71875 -5.609375 C 3.164062 -5.609375 2.519531 -5.441406 1.78125 -5.109375 L 1.15625 -6.375 C 1.945312 -6.78125 2.820312 -6.984375 3.78125 -6.984375 C 4.707031 -6.984375 5.414062 -6.785156 5.90625 -6.390625 C 6.394531 -5.992188 6.640625 -5.382812 6.640625 -4.5625 L 6.640625 0 Z M 4.78125 -3.171875 L 4.0625 -3.15625 C 3.507812 -3.132812 3.097656 -3.03125 2.828125 -2.84375 C 2.566406 -2.664062 2.4375 -2.394531 2.4375 -2.03125 C 2.4375 -1.507812 2.738281 -1.25 3.34375 -1.25 C 3.78125 -1.25 4.128906 -1.367188 4.390625 -1.609375 C 4.648438 -1.859375 4.78125 -2.191406 4.78125 -2.609375 Z M 4.78125 -3.171875 "/></g></g></g><g fill="#9ca3af" fill-opacity="1"><g transform="translate(238.500056, 214.813536)"><g/></g></g><g fill="#9ca3af" fill-opacity="1"><g transform="translate(241.757273, 214.813536)"><g><path d="M 3.765625 0.125 C 1.628906 0.125 0.5625 -1.046875 0.5625 -3.390625 C 0.5625 -4.554688 0.847656 -5.445312 1.421875 -6.0625 C 2.003906 -6.675781 2.835938 -6.984375 3.921875 -6.984375 C 4.710938 -6.984375 5.425781 -6.828125 6.0625 -6.515625 L 5.5 -5.0625 C 5.207031 -5.1875 4.9375 -5.285156 4.6875 -5.359375 C 4.4375 -5.429688 4.179688 -5.46875 3.921875 -5.46875 C 2.953125 -5.46875 2.46875 -4.78125 2.46875 -3.40625 C 2.46875 -2.0625 2.953125 -1.390625 3.921875 -1.390625 C 4.285156 -1.390625 4.617188 -1.4375 4.921875 -1.53125 C 5.234375 -1.625 5.539062 -1.773438 5.84375 -1.984375 L 5.84375 -0.390625 C 5.539062 -0.191406 5.234375 -0.0546875 4.921875 0.015625 C 4.617188 0.0859375 4.234375 0.125 3.765625 0.125 Z M 3.765625 0.125 "/></g></g></g><g fill="#9ca3af" fill-opacity="1"><g transform="translate(248.204359, 214.813536)"><g><path d="M 2.46875 -3.4375 C 2.46875 -2.757812 2.578125 -2.242188 2.796875 -1.890625 C 3.023438 -1.546875 3.390625 -1.375 3.890625 -1.375 C 4.390625 -1.375 4.75 -1.546875 4.96875 -1.890625 C 5.1875 -2.234375 5.296875 -2.75 5.296875 -3.4375 C 5.296875 -4.113281 5.179688 -4.617188 4.953125 -4.953125 C 4.734375 -5.296875 4.375 -5.46875 3.875 -5.46875 C 3.375 -5.46875 3.015625 -5.296875 2.796875 -4.953125 C 2.578125 -4.617188 2.46875 -4.113281 2.46875 -3.4375 Z M 7.203125 -3.4375 C 7.203125 -2.320312 6.90625 -1.445312 6.3125 -0.8125 C 5.726562 -0.1875 4.910156 0.125 3.859375 0.125 C 3.203125 0.125 2.625 -0.015625 2.125 -0.296875 C 1.625 -0.585938 1.238281 -1.003906 0.96875 -1.546875 C 0.695312 -2.085938 0.5625 -2.71875 0.5625 -3.4375 C 0.5625 -4.550781 0.851562 -5.421875 1.4375 -6.046875 C 2.019531 -6.671875 2.84375 -6.984375 3.90625 -6.984375 C 4.5625 -6.984375 5.140625 -6.835938 5.640625 -6.546875 C 6.140625 -6.265625 6.523438 -5.851562 6.796875 -5.3125 C 7.066406 -4.78125 7.203125 -4.15625 7.203125 -3.4375 Z M 7.203125 -3.4375 "/></g></g></g><g fill="#9ca3af" fill-opacity="1"><g transform="translate(255.967801, 214.813536)"><g><path d="M 7.296875 0 L 5.4375 0 L 5.4375 -4 C 5.4375 -4.488281 5.347656 -4.859375 5.171875 -5.109375 C 4.992188 -5.359375 4.710938 -5.484375 4.328125 -5.484375 C 3.804688 -5.484375 3.425781 -5.304688 3.1875 -4.953125 C 2.957031 -4.609375 2.84375 -4.03125 2.84375 -3.21875 L 2.84375 0 L 0.984375 0 L 0.984375 -6.84375 L 2.40625 -6.84375 L 2.65625 -5.96875 L 2.765625 -5.96875 C 2.972656 -6.300781 3.257812 -6.550781 3.625 -6.71875 C 3.988281 -6.894531 4.40625 -6.984375 4.875 -6.984375 C 5.664062 -6.984375 6.265625 -6.765625 6.671875 -6.328125 C 7.085938 -5.898438 7.296875 -5.28125 7.296875 -4.46875 Z M 7.296875 0 "/></g></g></g><g fill="#9ca3af" fill-opacity="1"><g transform="translate(264.208806, 214.813536)"><g/></g></g><g fill="#9ca3af" fill-opacity="1"><g transform="translate(267.466023, 214.813536)"><g><path d="M 3.859375 -1.359375 C 4.191406 -1.359375 4.585938 -1.429688 5.046875 -1.578125 L 5.046875 -0.1875 C 4.578125 0.0195312 4.003906 0.125 3.328125 0.125 C 2.578125 0.125 2.03125 -0.0625 1.6875 -0.4375 C 1.351562 -0.820312 1.1875 -1.390625 1.1875 -2.140625 L 1.1875 -5.453125 L 0.28125 -5.453125 L 0.28125 -6.234375 L 1.3125 -6.859375 L 1.859375 -8.3125 L 3.046875 -8.3125 L 3.046875 -6.84375 L 4.96875 -6.84375 L 4.96875 -5.453125 L 3.046875 -5.453125 L 3.046875 -2.140625 C 3.046875 -1.878906 3.117188 -1.679688 3.265625 -1.546875 C 3.421875 -1.421875 3.617188 -1.359375 3.859375 -1.359375 Z M 3.859375 -1.359375 "/></g></g></g><g fill="#9ca3af" fill-opacity="1"><g transform="translate(272.909004, 214.813536)"><g><path d="M 3.8125 -5.65625 C 3.414062 -5.65625 3.101562 -5.523438 2.875 -5.265625 C 2.65625 -5.015625 2.53125 -4.660156 2.5 -4.203125 L 5.125 -4.203125 C 5.113281 -4.660156 4.988281 -5.015625 4.75 -5.265625 C 4.519531 -5.523438 4.207031 -5.65625 3.8125 -5.65625 Z M 4.078125 0.125 C 2.972656 0.125 2.109375 -0.175781 1.484375 -0.78125 C 0.867188 -1.394531 0.5625 -2.257812 0.5625 -3.375 C 0.5625 -4.519531 0.847656 -5.40625 1.421875 -6.03125 C 1.992188 -6.664062 2.785156 -6.984375 3.796875 -6.984375 C 4.765625 -6.984375 5.519531 -6.707031 6.0625 -6.15625 C 6.601562 -5.601562 6.875 -4.835938 6.875 -3.859375 L 6.875 -2.953125 L 2.453125 -2.953125 C 2.472656 -2.421875 2.628906 -2.003906 2.921875 -1.703125 C 3.222656 -1.410156 3.640625 -1.265625 4.171875 -1.265625 C 4.578125 -1.265625 4.960938 -1.304688 5.328125 -1.390625 C 5.703125 -1.484375 6.085938 -1.625 6.484375 -1.8125 L 6.484375 -0.359375 C 6.160156 -0.191406 5.8125 -0.0703125 5.4375 0 C 5.0625 0.0820312 4.609375 0.125 4.078125 0.125 Z M 4.078125 0.125 "/></g></g></g><g fill="#9ca3af" fill-opacity="1"><g transform="translate(280.317337, 214.813536)"><g><path d="M 3.765625 0.125 C 1.628906 0.125 0.5625 -1.046875 0.5625 -3.390625 C 0.5625 -4.554688 0.847656 -5.445312 1.421875 -6.0625 C 2.003906 -6.675781 2.835938 -6.984375 3.921875 -6.984375 C 4.710938 -6.984375 5.425781 -6.828125 6.0625 -6.515625 L 5.5 -5.0625 C 5.207031 -5.1875 4.9375 -5.285156 4.6875 -5.359375 C 4.4375 -5.429688 4.179688 -5.46875 3.921875 -5.46875 C 2.953125 -5.46875 2.46875 -4.78125 2.46875 -3.40625 C 2.46875 -2.0625 2.953125 -1.390625 3.921875 -1.390625 C 4.285156 -1.390625 4.617188 -1.4375 4.921875 -1.53125 C 5.234375 -1.625 5.539062 -1.773438 5.84375 -1.984375 L 5.84375 -0.390625 C 5.539062 -0.191406 5.234375 -0.0546875 4.921875 0.015625 C 4.617188 0.0859375 4.234375 0.125 3.765625 0.125 Z M 3.765625 0.125 "/></g></g></g><g fill="#9ca3af" fill-opacity="1"><g transform="translate(286.764423, 214.813536)"><g><path d="M 7.296875 0 L 5.4375 0 L 5.4375 -4 C 5.4375 -4.488281 5.347656 -4.859375 5.171875 -5.109375 C 4.992188 -5.359375 4.710938 -5.484375 4.328125 -5.484375 C 3.804688 -5.484375 3.425781 -5.304688 3.1875 -4.953125 C 2.957031 -4.609375 2.84375 -4.03125 2.84375 -3.21875 L 2.84375 0 L 0.984375 0 L 0.984375 -6.84375 L 2.40625 -6.84375 L 2.65625 -5.96875 L 2.765625 -5.96875 C 2.972656 -6.300781 3.257812 -6.550781 3.625 -6.71875 C 3.988281 -6.894531 4.40625 -6.984375 4.875 -6.984375 C 5.664062 -6.984375 6.265625 -6.765625 6.671875 -6.328125 C 7.085938 -5.898438 7.296875 -5.28125 7.296875 -4.46875 Z M 7.296875 0 "/></g></g></g><g fill="#9ca3af" fill-opacity="1"><g transform="translate(295.005427, 214.813536)"><g><path d="M 2.46875 -3.4375 C 2.46875 -2.757812 2.578125 -2.242188 2.796875 -1.890625 C 3.023438 -1.546875 3.390625 -1.375 3.890625 -1.375 C 4.390625 -1.375 4.75 -1.546875 4.96875 -1.890625 C 5.1875 -2.234375 5.296875 -2.75 5.296875 -3.4375 C 5.296875 -4.113281 5.179688 -4.617188 4.953125 -4.953125 C 4.734375 -5.296875 4.375 -5.46875 3.875 -5.46875 C 3.375 -5.46875 3.015625 -5.296875 2.796875 -4.953125 C 2.578125 -4.617188 2.46875 -4.113281 2.46875 -3.4375 Z M 7.203125 -3.4375 C 7.203125 -2.320312 6.90625 -1.445312 6.3125 -0.8125 C 5.726562 -0.1875 4.910156 0.125 3.859375 0.125 C 3.203125 0.125 2.625 -0.015625 2.125 -0.296875 C 1.625 -0.585938 1.238281 -1.003906 0.96875 -1.546875 C 0.695312 -2.085938 0.5625 -2.71875 0.5625 -3.4375 C 0.5625 -4.550781 0.851562 -5.421875 1.4375 -6.046875 C 2.019531 -6.671875 2.84375 -6.984375 3.90625 -6.984375 C 4.5625 -6.984375 5.140625 -6.835938 5.640625 -6.546875 C 6.140625 -6.265625 6.523438 -5.851562 6.796875 -5.3125 C 7.066406 -4.78125 7.203125 -4.15625 7.203125 -3.4375 Z M 7.203125 -3.4375 "/></g></g></g><g fill="#9ca3af" fill-opacity="1"><g transform="translate(302.768869, 214.813536)"><g><path d="M 2.84375 0 L 0.984375 0 L 0.984375 -9.53125 L 2.84375 -9.53125 Z M 2.84375 0 "/></g></g></g><g fill="#9ca3af" fill-opacity="1"><g transform="translate(306.595499, 214.813536)"><g><path d="M 2.46875 -3.4375 C 2.46875 -2.757812 2.578125 -2.242188 2.796875 -1.890625 C 3.023438 -1.546875 3.390625 -1.375 3.890625 -1.375 C 4.390625 -1.375 4.75 -1.546875 4.96875 -1.890625 C 5.1875 -2.234375 5.296875 -2.75 5.296875 -3.4375 C 5.296875 -4.113281 5.179688 -4.617188 4.953125 -4.953125 C 4.734375 -5.296875 4.375 -5.46875 3.875 -5.46875 C 3.375 -5.46875 3.015625 -5.296875 2.796875 -4.953125 C 2.578125 -4.617188 2.46875 -4.113281 2.46875 -3.4375 Z M 7.203125 -3.4375 C 7.203125 -2.320312 6.90625 -1.445312 6.3125 -0.8125 C 5.726562 -0.1875 4.910156 0.125 3.859375 0.125 C 3.203125 0.125 2.625 -0.015625 2.125 -0.296875 C 1.625 -0.585938 1.238281 -1.003906 0.96875 -1.546875 C 0.695312 -2.085938 0.5625 -2.71875 0.5625 -3.4375 C 0.5625 -4.550781 0.851562 -5.421875 1.4375 -6.046875 C 2.019531 -6.671875 2.84375 -6.984375 3.90625 -6.984375 C 4.5625 -6.984375 5.140625 -6.835938 5.640625 -6.546875 C 6.140625 -6.265625 6.523438 -5.851562 6.796875 -5.3125 C 7.066406 -4.78125 7.203125 -4.15625 7.203125 -3.4375 Z M 7.203125 -3.4375 "/></g></g></g><g fill="#9ca3af" fill-opacity="1"><g transform="translate(314.358941, 214.813536)"><g><path d="M 6.9375 -6.84375 L 6.9375 -5.90625 L 5.875 -5.625 C 6.0625 -5.320312 6.15625 -4.976562 6.15625 -4.59375 C 6.15625 -3.851562 5.898438 -3.28125 5.390625 -2.875 C 4.878906 -2.46875 4.171875 -2.265625 3.265625 -2.265625 L 2.921875 -2.28125 L 2.640625 -2.3125 C 2.453125 -2.164062 2.359375 -2 2.359375 -1.8125 C 2.359375 -1.550781 2.703125 -1.421875 3.390625 -1.421875 L 4.546875 -1.421875 C 5.296875 -1.421875 5.867188 -1.257812 6.265625 -0.9375 C 6.660156 -0.613281 6.859375 -0.140625 6.859375 0.484375 C 6.859375 1.285156 6.523438 1.90625 5.859375 2.34375 C 5.191406 2.789062 4.234375 3.015625 2.984375 3.015625 C 2.023438 3.015625 1.289062 2.847656 0.78125 2.515625 C 0.28125 2.179688 0.03125 1.710938 0.03125 1.109375 C 0.03125 0.703125 0.160156 0.359375 0.421875 0.078125 C 0.679688 -0.203125 1.0625 -0.398438 1.5625 -0.515625 C 1.363281 -0.597656 1.191406 -0.726562 1.046875 -0.90625 C 0.910156 -1.09375 0.84375 -1.289062 0.84375 -1.5 C 0.84375 -1.769531 0.914062 -1.988281 1.0625 -2.15625 C 1.21875 -2.332031 1.4375 -2.503906 1.71875 -2.671875 C 1.363281 -2.828125 1.078125 -3.078125 0.859375 -3.421875 C 0.648438 -3.765625 0.546875 -4.164062 0.546875 -4.625 C 0.546875 -5.375 0.789062 -5.953125 1.28125 -6.359375 C 1.769531 -6.773438 2.460938 -6.984375 3.359375 -6.984375 C 3.554688 -6.984375 3.785156 -6.960938 4.046875 -6.921875 C 4.304688 -6.890625 4.472656 -6.863281 4.546875 -6.84375 Z M 1.65625 0.96875 C 1.65625 1.226562 1.773438 1.429688 2.015625 1.578125 C 2.265625 1.722656 2.613281 1.796875 3.0625 1.796875 C 3.726562 1.796875 4.25 1.703125 4.625 1.515625 C 5.007812 1.335938 5.203125 1.085938 5.203125 0.765625 C 5.203125 0.503906 5.085938 0.320312 4.859375 0.21875 C 4.640625 0.125 4.296875 0.078125 3.828125 0.078125 L 2.859375 0.078125 C 2.515625 0.078125 2.226562 0.15625 2 0.3125 C 1.769531 0.476562 1.65625 0.695312 1.65625 0.96875 Z M 2.328125 -4.609375 C 2.328125 -4.234375 2.410156 -3.9375 2.578125 -3.71875 C 2.753906 -3.507812 3.015625 -3.40625 3.359375 -3.40625 C 3.710938 -3.40625 3.96875 -3.507812 4.125 -3.71875 C 4.289062 -3.9375 4.375 -4.234375 4.375 -4.609375 C 4.375 -5.429688 4.035156 -5.84375 3.359375 -5.84375 C 2.671875 -5.84375 2.328125 -5.429688 2.328125 -4.609375 Z M 2.328125 -4.609375 "/></g></g></g><g fill="#9ca3af" fill-opacity="1"><g transform="translate(321.442788, 214.813536)"><g><path d="M 2.84375 0 L 0.984375 0 L 0.984375 -6.84375 L 2.84375 -6.84375 Z M 0.890625 -7.609375 L 0.890625 -7.765625 C 1.597656 -8.585938 2.078125 -9.203125 2.328125 -9.609375 L 4.421875 -9.609375 L 4.421875 -9.484375 C 4.210938 -9.273438 3.851562 -8.957031 3.34375 -8.53125 C 2.832031 -8.113281 2.429688 -7.804688 2.140625 -7.609375 Z M 0.890625 -7.609375 "/></g></g></g><g fill="#9ca3af" fill-opacity="1"><g transform="translate(325.269417, 214.813536)"><g><path d="M 5.328125 0 L 4.96875 -0.9375 L 4.921875 -0.9375 C 4.609375 -0.539062 4.285156 -0.265625 3.953125 -0.109375 C 3.617188 0.046875 3.179688 0.125 2.640625 0.125 C 1.984375 0.125 1.46875 -0.0625 1.09375 -0.4375 C 0.71875 -0.8125 0.53125 -1.347656 0.53125 -2.046875 C 0.53125 -2.773438 0.78125 -3.3125 1.28125 -3.65625 C 1.789062 -4 2.5625 -4.191406 3.59375 -4.234375 L 4.78125 -4.265625 L 4.78125 -4.5625 C 4.78125 -5.257812 4.425781 -5.609375 3.71875 -5.609375 C 3.164062 -5.609375 2.519531 -5.441406 1.78125 -5.109375 L 1.15625 -6.375 C 1.945312 -6.78125 2.820312 -6.984375 3.78125 -6.984375 C 4.707031 -6.984375 5.414062 -6.785156 5.90625 -6.390625 C 6.394531 -5.992188 6.640625 -5.382812 6.640625 -4.5625 L 6.640625 0 Z M 4.78125 -3.171875 L 4.0625 -3.15625 C 3.507812 -3.132812 3.097656 -3.03125 2.828125 -2.84375 C 2.566406 -2.664062 2.4375 -2.394531 2.4375 -2.03125 C 2.4375 -1.507812 2.738281 -1.25 3.34375 -1.25 C 3.78125 -1.25 4.128906 -1.367188 4.390625 -1.609375 C 4.648438 -1.859375 4.78125 -2.191406 4.78125 -2.609375 Z M 4.78125 -3.171875 "/></g></g></g></svg>