<svg xmlns="http://www.w3.org/2000/svg" xmlns:xlink="http://www.w3.org/1999/xlink" width="200" zoomAndPan="magnify" viewBox="0 0 150 74.999997" height="100" preserveAspectRatio="xMidYMid meet" version="1.0"><defs><g/><clipPath id="01fb6a0fd0"><path d="M 2 20.425781 L 32.675781 20.425781 L 32.675781 52.675781 L 2 52.675781 Z M 2 20.425781 " clip-rule="nonzero"/></clipPath><clipPath id="ca41b3a87a"><path d="M 19.414062 35.316406 L 5.824219 35.316406 C 5.296875 35.316406 4.917969 34.8125 5.058594 34.304688 L 8.789062 21.007812 C 8.886719 20.664062 9.199219 20.429688 9.554688 20.429688 L 23.144531 20.429688 C 23.671875 20.429688 24.054688 20.933594 23.910156 21.4375 L 20.179688 34.734375 C 20.085938 35.078125 19.769531 35.316406 19.414062 35.316406 Z M 10.589844 45.351562 L 12.507812 38.503906 C 12.652344 38 12.269531 37.496094 11.742188 37.496094 L 4.757812 37.496094 C 4.402344 37.496094 4.085938 37.734375 3.992188 38.074219 L 2.070312 44.921875 C 1.929688 45.429688 2.308594 45.933594 2.835938 45.933594 L 9.820312 45.933594 C 10.179688 45.933594 10.492188 45.695312 10.589844 45.351562 Z M 14.121094 38.074219 L 10.390625 51.371094 C 10.25 51.878906 10.632812 52.382812 11.15625 52.382812 L 24.746094 52.382812 C 25.105469 52.382812 25.417969 52.144531 25.511719 51.800781 L 29.246094 38.503906 C 29.386719 38 29.003906 37.496094 28.476562 37.496094 L 14.890625 37.496094 C 14.53125 37.496094 14.21875 37.734375 14.121094 38.074219 Z M 23.714844 27.460938 L 21.792969 34.304688 C 21.652344 34.8125 22.035156 35.316406 22.558594 35.316406 L 29.546875 35.316406 C 29.902344 35.316406 30.214844 35.078125 30.3125 34.734375 L 32.234375 27.890625 C 32.375 27.382812 31.992188 26.878906 31.46875 26.878906 L 24.480469 26.878906 C 24.125 26.878906 23.8125 27.117188 23.714844 27.460938 Z M 23.714844 27.460938 " clip-rule="nonzero"/></clipPath><linearGradient x1="114.296448" gradientTransform="matrix(0.063907, 0, 0, 0.063907, 2.040256, 20.428694)" y1="-47.633955" x2="358.621836" gradientUnits="userSpaceOnUse" y2="547.633983" id="b0d7cd93e8"><stop stop-opacity="1" stop-color="rgb(0%, 39.99939%, 100%)" offset="0"/><stop stop-opacity="1" stop-color="rgb(0%, 39.99939%, 100%)" offset="0.0625"/><stop stop-opacity="1" stop-color="rgb(0.144958%, 40.086365%, 100%)" offset="0.09375"/><stop stop-opacity="1" stop-color="rgb(0.686646%, 40.412903%, 100%)" offset="0.0976562"/><stop stop-opacity="1" stop-color="rgb(1.081848%, 40.65094%, 100%)" offset="0.101562"/><stop stop-opacity="1" stop-color="rgb(1.475525%, 40.887451%, 100%)" offset="0.105469"/><stop stop-opacity="1" stop-color="rgb(1.870728%, 41.125488%, 100%)" offset="0.109375"/><stop stop-opacity="1" stop-color="rgb(2.264404%, 41.363525%, 100%)" offset="0.113281"/><stop stop-opacity="1" stop-color="rgb(2.659607%, 41.601562%, 100%)" offset="0.117187"/><stop stop-opacity="1" stop-color="rgb(3.05481%, 41.838074%, 100%)" offset="0.121094"/><stop stop-opacity="1" stop-color="rgb(3.450012%, 42.076111%, 100%)" offset="0.125"/><stop stop-opacity="1" stop-color="rgb(3.843689%, 42.314148%, 100%)" offset="0.128906"/><stop stop-opacity="1" stop-color="rgb(4.238892%, 42.552185%, 100%)" offset="0.132812"/><stop stop-opacity="1" stop-color="rgb(4.632568%, 42.790222%, 100%)" offset="0.136719"/><stop stop-opacity="1" stop-color="rgb(5.027771%, 43.028259%, 100%)" offset="0.140625"/><stop stop-opacity="1" stop-color="rgb(5.422974%, 43.264771%, 100%)" offset="0.144531"/><stop stop-opacity="1" stop-color="rgb(5.818176%, 43.502808%, 100%)" offset="0.148438"/><stop stop-opacity="1" stop-color="rgb(6.211853%, 43.740845%, 100%)" offset="0.152344"/><stop stop-opacity="1" stop-color="rgb(6.607056%, 43.978882%, 100%)" offset="0.15625"/><stop stop-opacity="1" stop-color="rgb(7.002258%, 44.215393%, 100%)" offset="0.160156"/><stop stop-opacity="1" stop-color="rgb(7.397461%, 44.45343%, 100%)" offset="0.164062"/><stop stop-opacity="1" stop-color="rgb(7.791138%, 44.691467%, 100%)" offset="0.167969"/><stop stop-opacity="1" stop-color="rgb(8.18634%, 44.929504%, 100%)" offset="0.171875"/><stop stop-opacity="1" stop-color="rgb(8.580017%, 45.166016%, 100%)" offset="0.175781"/><stop stop-opacity="1" stop-color="rgb(8.97522%, 45.404053%, 100%)" offset="0.179687"/><stop stop-opacity="1" stop-color="rgb(9.370422%, 45.64209%, 100%)" offset="0.183594"/><stop stop-opacity="1" stop-color="rgb(9.765625%, 45.880127%, 100%)" offset="0.1875"/><stop stop-opacity="1" stop-color="rgb(10.159302%, 46.116638%, 100%)" offset="0.191406"/><stop stop-opacity="1" stop-color="rgb(10.554504%, 46.354675%, 100%)" offset="0.195312"/><stop stop-opacity="1" stop-color="rgb(10.949707%, 46.592712%, 100%)" offset="0.199219"/><stop stop-opacity="1" stop-color="rgb(11.34491%, 46.83075%, 100%)" offset="0.203125"/><stop stop-opacity="1" stop-color="rgb(11.738586%, 47.067261%, 100%)" offset="0.207031"/><stop stop-opacity="1" stop-color="rgb(12.133789%, 47.305298%, 100%)" offset="0.210937"/><stop stop-opacity="1" stop-color="rgb(12.527466%, 47.543335%, 100%)" offset="0.214844"/><stop stop-opacity="1" stop-color="rgb(12.922668%, 47.781372%, 100%)" offset="0.21875"/><stop stop-opacity="1" stop-color="rgb(13.317871%, 48.017883%, 100%)" offset="0.222656"/><stop stop-opacity="1" stop-color="rgb(13.713074%, 48.25592%, 100%)" offset="0.226562"/><stop stop-opacity="1" stop-color="rgb(14.10675%, 48.493958%, 100%)" offset="0.230469"/><stop stop-opacity="1" stop-color="rgb(14.501953%, 48.731995%, 100%)" offset="0.234375"/><stop stop-opacity="1" stop-color="rgb(14.897156%, 48.970032%, 100%)" offset="0.238281"/><stop stop-opacity="1" stop-color="rgb(15.292358%, 49.208069%, 100%)" offset="0.242187"/><stop stop-opacity="1" stop-color="rgb(15.686035%, 49.44458%, 100%)" offset="0.246094"/><stop stop-opacity="1" stop-color="rgb(16.081238%, 49.682617%, 100%)" offset="0.25"/><stop stop-opacity="1" stop-color="rgb(16.474915%, 49.920654%, 100%)" offset="0.253906"/><stop stop-opacity="1" stop-color="rgb(16.870117%, 50.158691%, 100%)" offset="0.257812"/><stop stop-opacity="1" stop-color="rgb(17.26532%, 50.395203%, 100%)" offset="0.261719"/><stop stop-opacity="1" stop-color="rgb(17.660522%, 50.63324%, 100%)" offset="0.265625"/><stop stop-opacity="1" stop-color="rgb(18.054199%, 50.871277%, 100%)" offset="0.269531"/><stop stop-opacity="1" stop-color="rgb(18.449402%, 51.109314%, 100%)" offset="0.273437"/><stop stop-opacity="1" stop-color="rgb(18.844604%, 51.345825%, 100%)" offset="0.277344"/><stop stop-opacity="1" stop-color="rgb(19.239807%, 51.583862%, 100%)" offset="0.28125"/><stop stop-opacity="1" stop-color="rgb(19.633484%, 51.821899%, 100%)" offset="0.285156"/><stop stop-opacity="1" stop-color="rgb(20.028687%, 52.059937%, 100%)" offset="0.289062"/><stop stop-opacity="1" stop-color="rgb(20.422363%, 52.296448%, 100%)" offset="0.292969"/><stop stop-opacity="1" stop-color="rgb(20.817566%, 52.534485%, 100%)" offset="0.296875"/><stop stop-opacity="1" stop-color="rgb(21.212769%, 52.772522%, 100%)" offset="0.300781"/><stop stop-opacity="1" stop-color="rgb(21.607971%, 53.010559%, 100%)" offset="0.304688"/><stop stop-opacity="1" stop-color="rgb(22.001648%, 53.24707%, 100%)" offset="0.308594"/><stop stop-opacity="1" stop-color="rgb(22.396851%, 53.485107%, 100%)" offset="0.3125"/><stop stop-opacity="1" stop-color="rgb(22.792053%, 53.723145%, 100%)" offset="0.316406"/><stop stop-opacity="1" stop-color="rgb(23.187256%, 53.961182%, 100%)" offset="0.320312"/><stop stop-opacity="1" stop-color="rgb(23.580933%, 54.199219%, 100%)" offset="0.324219"/><stop stop-opacity="1" stop-color="rgb(23.976135%, 54.437256%, 100%)" offset="0.328125"/><stop stop-opacity="1" stop-color="rgb(24.369812%, 54.673767%, 100%)" offset="0.332031"/><stop stop-opacity="1" stop-color="rgb(24.765015%, 54.911804%, 100%)" offset="0.335938"/><stop stop-opacity="1" stop-color="rgb(25.160217%, 55.149841%, 100%)" offset="0.339844"/><stop stop-opacity="1" stop-color="rgb(25.55542%, 55.387878%, 100%)" offset="0.34375"/><stop stop-opacity="1" stop-color="rgb(25.949097%, 55.62439%, 100%)" offset="0.347656"/><stop stop-opacity="1" stop-color="rgb(26.344299%, 55.862427%, 100%)" offset="0.351562"/><stop stop-opacity="1" stop-color="rgb(26.737976%, 56.100464%, 100%)" offset="0.355469"/><stop stop-opacity="1" stop-color="rgb(27.133179%, 56.338501%, 100%)" offset="0.359375"/><stop stop-opacity="1" stop-color="rgb(27.528381%, 56.575012%, 100%)" offset="0.363281"/><stop stop-opacity="1" stop-color="rgb(27.923584%, 56.813049%, 100%)" offset="0.367187"/><stop stop-opacity="1" stop-color="rgb(28.317261%, 57.051086%, 100%)" offset="0.371094"/><stop stop-opacity="1" stop-color="rgb(28.712463%, 57.289124%, 100%)" offset="0.375"/><stop stop-opacity="1" stop-color="rgb(29.107666%, 57.525635%, 100%)" offset="0.378906"/><stop stop-opacity="1" stop-color="rgb(29.502869%, 57.763672%, 100%)" offset="0.382812"/><stop stop-opacity="1" stop-color="rgb(29.896545%, 58.001709%, 100%)" offset="0.386719"/><stop stop-opacity="1" stop-color="rgb(30.291748%, 58.239746%, 100%)" offset="0.390625"/><stop stop-opacity="1" stop-color="rgb(30.685425%, 58.476257%, 100%)" offset="0.394531"/><stop stop-opacity="1" stop-color="rgb(31.080627%, 58.714294%, 100%)" offset="0.398438"/><stop stop-opacity="1" stop-color="rgb(31.47583%, 58.952332%, 100%)" offset="0.402344"/><stop stop-opacity="1" stop-color="rgb(31.871033%, 59.190369%, 100%)" offset="0.40625"/><stop stop-opacity="1" stop-color="rgb(32.264709%, 59.42688%, 100%)" offset="0.410156"/><stop stop-opacity="1" stop-color="rgb(32.659912%, 59.664917%, 100%)" offset="0.414062"/><stop stop-opacity="1" stop-color="rgb(33.055115%, 59.902954%, 100%)" offset="0.417969"/><stop stop-opacity="1" stop-color="rgb(33.450317%, 60.140991%, 100%)" offset="0.421875"/><stop stop-opacity="1" stop-color="rgb(33.843994%, 60.379028%, 100%)" offset="0.425781"/><stop stop-opacity="1" stop-color="rgb(34.239197%, 60.617065%, 100%)" offset="0.429687"/><stop stop-opacity="1" stop-color="rgb(34.632874%, 60.853577%, 100%)" offset="0.433594"/><stop stop-opacity="1" stop-color="rgb(35.028076%, 61.091614%, 100%)" offset="0.4375"/><stop stop-opacity="1" stop-color="rgb(35.423279%, 61.329651%, 100%)" offset="0.441406"/><stop stop-opacity="1" stop-color="rgb(35.818481%, 61.567688%, 100%)" offset="0.445312"/><stop stop-opacity="1" stop-color="rgb(36.212158%, 61.804199%, 100%)" offset="0.449219"/><stop stop-opacity="1" stop-color="rgb(36.607361%, 62.042236%, 100%)" offset="0.453125"/><stop stop-opacity="1" stop-color="rgb(37.002563%, 62.280273%, 100%)" offset="0.457031"/><stop stop-opacity="1" stop-color="rgb(37.397766%, 62.518311%, 100%)" offset="0.460937"/><stop stop-opacity="1" stop-color="rgb(37.791443%, 62.754822%, 100%)" offset="0.464844"/><stop stop-opacity="1" stop-color="rgb(38.186646%, 62.992859%, 100%)" offset="0.46875"/><stop stop-opacity="1" stop-color="rgb(38.580322%, 63.230896%, 100%)" offset="0.472656"/><stop stop-opacity="1" stop-color="rgb(38.975525%, 63.468933%, 100%)" offset="0.476562"/><stop stop-opacity="1" stop-color="rgb(39.370728%, 63.705444%, 100%)" offset="0.480469"/><stop stop-opacity="1" stop-color="rgb(39.76593%, 63.943481%, 100%)" offset="0.484375"/><stop stop-opacity="1" stop-color="rgb(40.159607%, 64.181519%, 100%)" offset="0.488281"/><stop stop-opacity="1" stop-color="rgb(40.55481%, 64.419556%, 100%)" offset="0.492187"/><stop stop-opacity="1" stop-color="rgb(40.950012%, 64.656067%, 100%)" offset="0.496094"/><stop stop-opacity="1" stop-color="rgb(41.345215%, 64.894104%, 100%)" offset="0.5"/><stop stop-opacity="1" stop-color="rgb(41.738892%, 65.132141%, 100%)" offset="0.503906"/><stop stop-opacity="1" stop-color="rgb(42.134094%, 65.370178%, 100%)" offset="0.507812"/><stop stop-opacity="1" stop-color="rgb(42.527771%, 65.608215%, 100%)" offset="0.511719"/><stop stop-opacity="1" stop-color="rgb(42.922974%, 65.846252%, 100%)" offset="0.515625"/><stop stop-opacity="1" stop-color="rgb(43.318176%, 66.082764%, 100%)" offset="0.519531"/><stop stop-opacity="1" stop-color="rgb(43.713379%, 66.320801%, 100%)" offset="0.523437"/><stop stop-opacity="1" stop-color="rgb(44.107056%, 66.558838%, 100%)" offset="0.527344"/><stop stop-opacity="1" stop-color="rgb(44.502258%, 66.796875%, 100%)" offset="0.53125"/><stop stop-opacity="1" stop-color="rgb(44.897461%, 67.033386%, 100%)" offset="0.535156"/><stop stop-opacity="1" stop-color="rgb(45.292664%, 67.271423%, 100%)" offset="0.539062"/><stop stop-opacity="1" stop-color="rgb(45.68634%, 67.50946%, 100%)" offset="0.542969"/><stop stop-opacity="1" stop-color="rgb(46.081543%, 67.747498%, 100%)" offset="0.546875"/><stop stop-opacity="1" stop-color="rgb(46.47522%, 67.984009%, 100%)" offset="0.550781"/><stop stop-opacity="1" stop-color="rgb(46.870422%, 68.222046%, 100%)" offset="0.554687"/><stop stop-opacity="1" stop-color="rgb(47.265625%, 68.460083%, 100%)" offset="0.558594"/><stop stop-opacity="1" stop-color="rgb(47.660828%, 68.69812%, 100%)" offset="0.5625"/><stop stop-opacity="1" stop-color="rgb(48.054504%, 68.934631%, 100%)" offset="0.566406"/><stop stop-opacity="1" stop-color="rgb(48.449707%, 69.172668%, 100%)" offset="0.570312"/><stop stop-opacity="1" stop-color="rgb(48.843384%, 69.410706%, 100%)" offset="0.574219"/><stop stop-opacity="1" stop-color="rgb(49.238586%, 69.648743%, 100%)" offset="0.578125"/><stop stop-opacity="1" stop-color="rgb(49.633789%, 69.885254%, 100%)" offset="0.582031"/><stop stop-opacity="1" stop-color="rgb(50.028992%, 70.123291%, 100%)" offset="0.585938"/><stop stop-opacity="1" stop-color="rgb(50.422668%, 70.361328%, 100%)" offset="0.589844"/><stop stop-opacity="1" stop-color="rgb(50.817871%, 70.599365%, 100%)" offset="0.59375"/><stop stop-opacity="1" stop-color="rgb(51.213074%, 70.835876%, 100%)" offset="0.597656"/><stop stop-opacity="1" stop-color="rgb(51.608276%, 71.073914%, 100%)" offset="0.601562"/><stop stop-opacity="1" stop-color="rgb(52.001953%, 71.311951%, 100%)" offset="0.605469"/><stop stop-opacity="1" stop-color="rgb(52.397156%, 71.549988%, 100%)" offset="0.609375"/><stop stop-opacity="1" stop-color="rgb(52.790833%, 71.788025%, 100%)" offset="0.613281"/><stop stop-opacity="1" stop-color="rgb(53.186035%, 72.026062%, 100%)" offset="0.617188"/><stop stop-opacity="1" stop-color="rgb(53.581238%, 72.262573%, 100%)" offset="0.621094"/><stop stop-opacity="1" stop-color="rgb(53.97644%, 72.50061%, 100%)" offset="0.625"/><stop stop-opacity="1" stop-color="rgb(54.370117%, 72.738647%, 100%)" offset="0.628906"/><stop stop-opacity="1" stop-color="rgb(54.76532%, 72.976685%, 100%)" offset="0.632812"/><stop stop-opacity="1" stop-color="rgb(55.160522%, 73.213196%, 100%)" offset="0.636719"/><stop stop-opacity="1" stop-color="rgb(55.555725%, 73.451233%, 100%)" offset="0.640625"/><stop stop-opacity="1" stop-color="rgb(55.949402%, 73.68927%, 100%)" offset="0.644531"/><stop stop-opacity="1" stop-color="rgb(56.344604%, 73.927307%, 100%)" offset="0.648438"/><stop stop-opacity="1" stop-color="rgb(56.738281%, 74.163818%, 100%)" offset="0.652344"/><stop stop-opacity="1" stop-color="rgb(57.133484%, 74.401855%, 100%)" offset="0.65625"/><stop stop-opacity="1" stop-color="rgb(57.528687%, 74.639893%, 100%)" offset="0.660156"/><stop stop-opacity="1" stop-color="rgb(57.923889%, 74.87793%, 100%)" offset="0.664062"/><stop stop-opacity="1" stop-color="rgb(58.317566%, 75.114441%, 100%)" offset="0.667969"/><stop stop-opacity="1" stop-color="rgb(58.712769%, 75.352478%, 100%)" offset="0.671875"/><stop stop-opacity="1" stop-color="rgb(59.107971%, 75.590515%, 100%)" offset="0.675781"/><stop stop-opacity="1" stop-color="rgb(59.503174%, 75.828552%, 100%)" offset="0.679687"/><stop stop-opacity="1" stop-color="rgb(59.896851%, 76.065063%, 100%)" offset="0.683594"/><stop stop-opacity="1" stop-color="rgb(60.292053%, 76.303101%, 100%)" offset="0.6875"/><stop stop-opacity="1" stop-color="rgb(60.68573%, 76.541138%, 100%)" offset="0.691406"/><stop stop-opacity="1" stop-color="rgb(61.080933%, 76.779175%, 100%)" offset="0.695312"/><stop stop-opacity="1" stop-color="rgb(61.476135%, 77.015686%, 100%)" offset="0.699219"/><stop stop-opacity="1" stop-color="rgb(61.871338%, 77.253723%, 100%)" offset="0.703125"/><stop stop-opacity="1" stop-color="rgb(62.265015%, 77.49176%, 100%)" offset="0.707031"/><stop stop-opacity="1" stop-color="rgb(62.660217%, 77.729797%, 100%)" offset="0.710937"/><stop stop-opacity="1" stop-color="rgb(63.05542%, 77.967834%, 100%)" offset="0.714844"/><stop stop-opacity="1" stop-color="rgb(63.450623%, 78.205872%, 100%)" offset="0.71875"/><stop stop-opacity="1" stop-color="rgb(63.844299%, 78.442383%, 100%)" offset="0.722656"/><stop stop-opacity="1" stop-color="rgb(64.239502%, 78.68042%, 100%)" offset="0.726562"/><stop stop-opacity="1" stop-color="rgb(64.633179%, 78.918457%, 100%)" offset="0.730469"/><stop stop-opacity="1" stop-color="rgb(65.028381%, 79.156494%, 100%)" offset="0.734375"/><stop stop-opacity="1" stop-color="rgb(65.423584%, 79.393005%, 100%)" offset="0.738281"/><stop stop-opacity="1" stop-color="rgb(65.818787%, 79.631042%, 100%)" offset="0.742187"/><stop stop-opacity="1" stop-color="rgb(66.212463%, 79.86908%, 100%)" offset="0.746094"/><stop stop-opacity="1" stop-color="rgb(66.607666%, 80.107117%, 100%)" offset="0.75"/><stop stop-opacity="1" stop-color="rgb(67.002869%, 80.343628%, 100%)" offset="0.753906"/><stop stop-opacity="1" stop-color="rgb(67.398071%, 80.581665%, 100%)" offset="0.757812"/><stop stop-opacity="1" stop-color="rgb(67.791748%, 80.819702%, 100%)" offset="0.761719"/><stop stop-opacity="1" stop-color="rgb(68.186951%, 81.057739%, 100%)" offset="0.765625"/><stop stop-opacity="1" stop-color="rgb(68.580627%, 81.29425%, 100%)" offset="0.769531"/><stop stop-opacity="1" stop-color="rgb(68.97583%, 81.532288%, 100%)" offset="0.773438"/><stop stop-opacity="1" stop-color="rgb(69.371033%, 81.770325%, 100%)" offset="0.777344"/><stop stop-opacity="1" stop-color="rgb(69.766235%, 82.008362%, 100%)" offset="0.78125"/><stop stop-opacity="1" stop-color="rgb(70.159912%, 82.244873%, 100%)" offset="0.785156"/><stop stop-opacity="1" stop-color="rgb(70.555115%, 82.48291%, 100%)" offset="0.789062"/><stop stop-opacity="1" stop-color="rgb(70.948792%, 82.720947%, 100%)" offset="0.792969"/><stop stop-opacity="1" stop-color="rgb(71.343994%, 82.958984%, 100%)" offset="0.796875"/><stop stop-opacity="1" stop-color="rgb(71.739197%, 83.197021%, 100%)" offset="0.800781"/><stop stop-opacity="1" stop-color="rgb(72.134399%, 83.435059%, 100%)" offset="0.804687"/><stop stop-opacity="1" stop-color="rgb(72.528076%, 83.67157%, 100%)" offset="0.808594"/><stop stop-opacity="1" stop-color="rgb(72.923279%, 83.909607%, 100%)" offset="0.8125"/><stop stop-opacity="1" stop-color="rgb(73.318481%, 84.147644%, 100%)" offset="0.816406"/><stop stop-opacity="1" stop-color="rgb(73.713684%, 84.385681%, 100%)" offset="0.820312"/><stop stop-opacity="1" stop-color="rgb(74.107361%, 84.622192%, 100%)" offset="0.824219"/><stop stop-opacity="1" stop-color="rgb(74.502563%, 84.860229%, 100%)" offset="0.828125"/><stop stop-opacity="1" stop-color="rgb(74.700928%, 84.979248%, 100%)" offset="0.832031"/><stop stop-opacity="1" stop-color="rgb(74.899292%, 85.099792%, 100%)" offset="0.835937"/><stop stop-opacity="1" stop-color="rgb(74.899292%, 85.099792%, 100%)" offset="0.84375"/><stop stop-opacity="1" stop-color="rgb(74.899292%, 85.099792%, 100%)" offset="0.875"/><stop stop-opacity="1" stop-color="rgb(74.899292%, 85.099792%, 100%)" offset="1"/></linearGradient></defs><g clip-path="url(#01fb6a0fd0)"><g clip-path="url(#ca41b3a87a)"><path fill="url(#b0d7cd93e8)" d="M 1.929688 20.429688 L 1.929688 52.382812 L 32.375 52.382812 L 32.375 20.429688 Z M 1.929688 20.429688 " fill-rule="nonzero"/></g></g><g fill="#0066ff" fill-opacity="1"><g transform="translate(36.123281, 42.56975)"><g><path d="M 3.5 0.15625 C 2.789062 0.15625 2.109375 0.0625 1.453125 -0.125 C 0.804688 -0.3125 0.285156 -0.550781 -0.109375 -0.84375 L 0.75 -2.453125 C 1.15625 -2.148438 1.613281 -1.914062 2.125 -1.75 C 2.644531 -1.59375 3.175781 -1.515625 3.71875 -1.515625 C 4.289062 -1.515625 4.742188 -1.609375 5.078125 -1.796875 C 5.410156 -1.984375 5.578125 -2.238281 5.578125 -2.5625 C 5.578125 -2.832031 5.441406 -3.035156 5.171875 -3.171875 C 4.910156 -3.316406 4.488281 -3.472656 3.90625 -3.640625 C 3.320312 -3.804688 2.84375 -3.96875 2.46875 -4.125 C 2.101562 -4.28125 1.785156 -4.515625 1.515625 -4.828125 C 1.253906 -5.148438 1.125 -5.570312 1.125 -6.09375 C 1.125 -6.707031 1.289062 -7.242188 1.625 -7.703125 C 1.957031 -8.171875 2.4375 -8.523438 3.0625 -8.765625 C 3.6875 -9.015625 4.410156 -9.140625 5.234375 -9.140625 C 5.835938 -9.140625 6.40625 -9.070312 6.9375 -8.9375 C 7.476562 -8.8125 7.941406 -8.625 8.328125 -8.375 L 7.546875 -6.78125 C 7.210938 -7.007812 6.835938 -7.179688 6.421875 -7.296875 C 6.003906 -7.410156 5.566406 -7.46875 5.109375 -7.46875 C 4.515625 -7.46875 4.046875 -7.363281 3.703125 -7.15625 C 3.367188 -6.957031 3.203125 -6.695312 3.203125 -6.375 C 3.203125 -6.175781 3.273438 -6.007812 3.421875 -5.875 C 3.566406 -5.738281 3.75 -5.628906 3.96875 -5.546875 C 4.1875 -5.472656 4.5 -5.378906 4.90625 -5.265625 C 5.476562 -5.109375 5.945312 -4.953125 6.3125 -4.796875 C 6.6875 -4.640625 7.003906 -4.40625 7.265625 -4.09375 C 7.523438 -3.789062 7.65625 -3.394531 7.65625 -2.90625 C 7.65625 -2.289062 7.484375 -1.753906 7.140625 -1.296875 C 6.796875 -0.835938 6.3125 -0.476562 5.6875 -0.21875 C 5.0625 0.03125 4.332031 0.15625 3.5 0.15625 Z M 3.5 0.15625 "/></g></g></g><g fill="#0066ff" fill-opacity="1"><g transform="translate(44.310121, 42.56975)"><g><path d="M 10.28125 -7.015625 C 11.039062 -7.015625 11.640625 -6.8125 12.078125 -6.40625 C 12.523438 -6 12.75 -5.421875 12.75 -4.671875 C 12.75 -4.398438 12.71875 -4.117188 12.65625 -3.828125 L 11.90625 0 L 9.90625 0 L 10.640625 -3.6875 C 10.671875 -3.851562 10.6875 -4.03125 10.6875 -4.21875 C 10.6875 -4.5625 10.59375 -4.820312 10.40625 -5 C 10.226562 -5.1875 9.957031 -5.28125 9.59375 -5.28125 C 8.625 -5.28125 8.019531 -4.703125 7.78125 -3.546875 L 7.078125 0 L 5.078125 0 L 5.8125 -3.6875 C 5.84375 -3.851562 5.859375 -4.023438 5.859375 -4.203125 C 5.859375 -4.546875 5.765625 -4.8125 5.578125 -5 C 5.390625 -5.1875 5.117188 -5.28125 4.765625 -5.28125 C 3.796875 -5.28125 3.1875 -4.691406 2.9375 -3.515625 L 2.25 0 L 0.25 0 L 1.625 -6.90625 L 3.515625 -6.90625 L 3.359375 -6.1875 C 3.960938 -6.738281 4.6875 -7.015625 5.53125 -7.015625 C 6.007812 -7.015625 6.4375 -6.914062 6.8125 -6.71875 C 7.1875 -6.53125 7.46875 -6.25 7.65625 -5.875 C 7.988281 -6.25 8.375 -6.53125 8.8125 -6.71875 C 9.257812 -6.914062 9.75 -7.015625 10.28125 -7.015625 Z M 10.28125 -7.015625 "/></g></g></g><g fill="#0066ff" fill-opacity="1"><g transform="translate(57.770935, 42.56975)"><g><path d="M 8.625 -6.90625 L 7.25 0 L 5.359375 0 L 5.484375 -0.6875 C 4.910156 -0.15625 4.203125 0.109375 3.359375 0.109375 C 2.828125 0.109375 2.332031 -0.015625 1.875 -0.265625 C 1.414062 -0.515625 1.050781 -0.875 0.78125 -1.34375 C 0.519531 -1.8125 0.390625 -2.363281 0.390625 -3 C 0.390625 -3.757812 0.554688 -4.441406 0.890625 -5.046875 C 1.234375 -5.660156 1.691406 -6.140625 2.265625 -6.484375 C 2.847656 -6.835938 3.492188 -7.015625 4.203125 -7.015625 C 5.265625 -7.015625 6.015625 -6.664062 6.453125 -5.96875 L 6.625 -6.90625 Z M 3.984375 -1.546875 C 4.378906 -1.546875 4.726562 -1.640625 5.03125 -1.828125 C 5.34375 -2.023438 5.582031 -2.296875 5.75 -2.640625 C 5.925781 -2.984375 6.015625 -3.378906 6.015625 -3.828125 C 6.015625 -4.296875 5.875 -4.664062 5.59375 -4.9375 C 5.3125 -5.21875 4.925781 -5.359375 4.4375 -5.359375 C 4.039062 -5.359375 3.6875 -5.257812 3.375 -5.0625 C 3.070312 -4.875 2.832031 -4.609375 2.65625 -4.265625 C 2.488281 -3.921875 2.40625 -3.523438 2.40625 -3.078125 C 2.40625 -2.609375 2.539062 -2.234375 2.8125 -1.953125 C 3.09375 -1.679688 3.484375 -1.546875 3.984375 -1.546875 Z M 3.984375 -1.546875 "/></g></g></g><g fill="#0066ff" fill-opacity="1"><g transform="translate(66.625045, 42.56975)"><g><path d="M 3.359375 -6.09375 C 3.648438 -6.414062 4.007812 -6.648438 4.4375 -6.796875 C 4.863281 -6.941406 5.363281 -7.015625 5.9375 -7.015625 L 5.578125 -5.15625 C 5.335938 -5.175781 5.179688 -5.1875 5.109375 -5.1875 C 4.503906 -5.1875 4.019531 -5.035156 3.65625 -4.734375 C 3.289062 -4.441406 3.046875 -3.976562 2.921875 -3.34375 L 2.25 0 L 0.25 0 L 1.625 -6.90625 L 3.515625 -6.90625 Z M 3.359375 -6.09375 "/></g></g></g><g fill="#0066ff" fill-opacity="1"><g transform="translate(72.155654, 42.56975)"><g><path d="M 2.96875 -2.4375 C 2.945312 -2.375 2.9375 -2.28125 2.9375 -2.15625 C 2.9375 -1.707031 3.179688 -1.484375 3.671875 -1.484375 C 3.941406 -1.484375 4.210938 -1.566406 4.484375 -1.734375 L 4.78125 -0.3125 C 4.332031 -0.03125 3.757812 0.109375 3.0625 0.109375 C 2.40625 0.109375 1.878906 -0.0625 1.484375 -0.40625 C 1.097656 -0.75 0.90625 -1.222656 0.90625 -1.828125 C 0.90625 -1.992188 0.925781 -2.191406 0.96875 -2.421875 L 1.515625 -5.21875 L 0.453125 -5.21875 L 0.75 -6.75 L 1.828125 -6.75 L 2.15625 -8.4375 L 4.15625 -8.4375 L 3.828125 -6.75 L 5.546875 -6.75 L 5.234375 -5.21875 L 3.515625 -5.21875 Z M 2.96875 -2.4375 "/></g></g></g><g fill="#0066ff" fill-opacity="1"><g transform="translate(77.737589, 42.56975)"><g><path d="M 0.859375 -4.421875 L 4.5 -4.421875 L 4.171875 -2.8125 L 0.546875 -2.8125 Z M 0.859375 -4.421875 "/></g></g></g><g fill="#0066ff" fill-opacity="1"><g transform="translate(82.690763, 42.56975)"><g><path d="M 2.171875 -8.984375 L 4.265625 -8.984375 L 2.46875 0 L 0.375 0 Z M 2.171875 -8.984375 "/></g></g></g><g fill="#0066ff" fill-opacity="1"><g transform="translate(86.899671, 42.56975)"><g><path d="M 5.640625 -7.015625 C 6.410156 -7.015625 7.019531 -6.8125 7.46875 -6.40625 C 7.925781 -6 8.15625 -5.414062 8.15625 -4.65625 C 8.15625 -4.375 8.125 -4.097656 8.0625 -3.828125 L 7.296875 0 L 5.296875 0 L 6.03125 -3.703125 C 6.070312 -3.847656 6.09375 -4.003906 6.09375 -4.171875 C 6.09375 -4.535156 5.992188 -4.8125 5.796875 -5 C 5.597656 -5.1875 5.300781 -5.28125 4.90625 -5.28125 C 4.394531 -5.28125 3.96875 -5.128906 3.625 -4.828125 C 3.289062 -4.535156 3.0625 -4.09375 2.9375 -3.5 L 2.25 0 L 0.25 0 L 1.625 -6.90625 L 3.515625 -6.90625 L 3.359375 -6.171875 C 3.984375 -6.734375 4.742188 -7.015625 5.640625 -7.015625 Z M 5.640625 -7.015625 "/></g></g></g><g fill="#0066ff" fill-opacity="1"><g transform="translate(95.76661, 42.56975)"><g><path d="M 8.484375 -6.90625 L 4.1875 0 L 2.125 0 L 0.59375 -6.90625 L 2.5625 -6.90625 L 3.578125 -2.203125 L 6.46875 -6.90625 Z M 8.484375 -6.90625 "/></g></g></g><g fill="#0066ff" fill-opacity="1"><g transform="translate(103.44017, 42.56975)"><g><path d="M 7.75 -3.96875 C 7.75 -3.65625 7.707031 -3.304688 7.625 -2.921875 L 2.34375 -2.921875 C 2.40625 -1.972656 3 -1.5 4.125 -1.5 C 4.476562 -1.5 4.8125 -1.554688 5.125 -1.671875 C 5.445312 -1.785156 5.726562 -1.941406 5.96875 -2.140625 L 6.8125 -0.828125 C 6.425781 -0.515625 5.984375 -0.28125 5.484375 -0.125 C 4.984375 0.03125 4.460938 0.109375 3.921875 0.109375 C 3.203125 0.109375 2.578125 -0.015625 2.046875 -0.265625 C 1.515625 -0.523438 1.101562 -0.890625 0.8125 -1.359375 C 0.53125 -1.828125 0.390625 -2.375 0.390625 -3 C 0.390625 -3.757812 0.5625 -4.441406 0.90625 -5.046875 C 1.25 -5.660156 1.726562 -6.140625 2.34375 -6.484375 C 2.96875 -6.835938 3.671875 -7.015625 4.453125 -7.015625 C 5.117188 -7.015625 5.695312 -6.890625 6.1875 -6.640625 C 6.6875 -6.390625 7.070312 -6.03125 7.34375 -5.5625 C 7.613281 -5.101562 7.75 -4.570312 7.75 -3.96875 Z M 4.359375 -5.515625 C 3.890625 -5.515625 3.492188 -5.382812 3.171875 -5.125 C 2.847656 -4.875 2.617188 -4.523438 2.484375 -4.078125 L 5.90625 -4.078125 C 5.90625 -4.523438 5.765625 -4.875 5.484375 -5.125 C 5.210938 -5.382812 4.835938 -5.515625 4.359375 -5.515625 Z M 4.359375 -5.515625 "/></g></g></g><g fill="#0066ff" fill-opacity="1"><g transform="translate(111.498699, 42.56975)"><g><path d="M 5.640625 -7.015625 C 6.410156 -7.015625 7.019531 -6.8125 7.46875 -6.40625 C 7.925781 -6 8.15625 -5.414062 8.15625 -4.65625 C 8.15625 -4.375 8.125 -4.097656 8.0625 -3.828125 L 7.296875 0 L 5.296875 0 L 6.03125 -3.703125 C 6.070312 -3.847656 6.09375 -4.003906 6.09375 -4.171875 C 6.09375 -4.535156 5.992188 -4.8125 5.796875 -5 C 5.597656 -5.1875 5.300781 -5.28125 4.90625 -5.28125 C 4.394531 -5.28125 3.96875 -5.128906 3.625 -4.828125 C 3.289062 -4.535156 3.0625 -4.09375 2.9375 -3.5 L 2.25 0 L 0.25 0 L 1.625 -6.90625 L 3.515625 -6.90625 L 3.359375 -6.171875 C 3.984375 -6.734375 4.742188 -7.015625 5.640625 -7.015625 Z M 5.640625 -7.015625 "/></g></g></g><g fill="#0066ff" fill-opacity="1"><g transform="translate(120.365638, 42.56975)"><g><path d="M 2.96875 -2.4375 C 2.945312 -2.375 2.9375 -2.28125 2.9375 -2.15625 C 2.9375 -1.707031 3.179688 -1.484375 3.671875 -1.484375 C 3.941406 -1.484375 4.210938 -1.566406 4.484375 -1.734375 L 4.78125 -0.3125 C 4.332031 -0.03125 3.757812 0.109375 3.0625 0.109375 C 2.40625 0.109375 1.878906 -0.0625 1.484375 -0.40625 C 1.097656 -0.75 0.90625 -1.222656 0.90625 -1.828125 C 0.90625 -1.992188 0.925781 -2.191406 0.96875 -2.421875 L 1.515625 -5.21875 L 0.453125 -5.21875 L 0.75 -6.75 L 1.828125 -6.75 L 2.15625 -8.4375 L 4.15625 -8.4375 L 3.828125 -6.75 L 5.546875 -6.75 L 5.234375 -5.21875 L 3.515625 -5.21875 Z M 2.96875 -2.4375 "/></g></g></g><g fill="#0066ff" fill-opacity="1"><g transform="translate(125.947573, 42.56975)"><g><path d="M 3.859375 0.109375 C 3.160156 0.109375 2.546875 -0.0195312 2.015625 -0.28125 C 1.492188 -0.539062 1.085938 -0.898438 0.796875 -1.359375 C 0.515625 -1.828125 0.375 -2.375 0.375 -3 C 0.375 -3.757812 0.550781 -4.441406 0.90625 -5.046875 C 1.269531 -5.648438 1.769531 -6.128906 2.40625 -6.484375 C 3.039062 -6.835938 3.753906 -7.015625 4.546875 -7.015625 C 5.242188 -7.015625 5.851562 -6.882812 6.375 -6.625 C 6.90625 -6.363281 7.3125 -6 7.59375 -5.53125 C 7.882812 -5.070312 8.03125 -4.535156 8.03125 -3.921875 C 8.03125 -3.160156 7.851562 -2.472656 7.5 -1.859375 C 7.144531 -1.253906 6.644531 -0.773438 6 -0.421875 C 5.363281 -0.0664062 4.648438 0.109375 3.859375 0.109375 Z M 3.984375 -1.546875 C 4.367188 -1.546875 4.710938 -1.640625 5.015625 -1.828125 C 5.328125 -2.023438 5.566406 -2.296875 5.734375 -2.640625 C 5.910156 -2.984375 6 -3.378906 6 -3.828125 C 6 -4.296875 5.859375 -4.664062 5.578125 -4.9375 C 5.304688 -5.21875 4.925781 -5.359375 4.4375 -5.359375 C 4.039062 -5.359375 3.6875 -5.257812 3.375 -5.0625 C 3.070312 -4.875 2.832031 -4.609375 2.65625 -4.265625 C 2.488281 -3.921875 2.40625 -3.523438 2.40625 -3.078125 C 2.40625 -2.609375 2.539062 -2.234375 2.8125 -1.953125 C 3.09375 -1.679688 3.484375 -1.546875 3.984375 -1.546875 Z M 3.984375 -1.546875 "/></g></g></g><g fill="#0066ff" fill-opacity="1"><g transform="translate(134.339731, 42.56975)"><g><path d="M 3.359375 -6.09375 C 3.648438 -6.414062 4.007812 -6.648438 4.4375 -6.796875 C 4.863281 -6.941406 5.363281 -7.015625 5.9375 -7.015625 L 5.578125 -5.15625 C 5.335938 -5.175781 5.179688 -5.1875 5.109375 -5.1875 C 4.503906 -5.1875 4.019531 -5.035156 3.65625 -4.734375 C 3.289062 -4.441406 3.046875 -3.976562 2.921875 -3.34375 L 2.25 0 L 0.25 0 L 1.625 -6.90625 L 3.515625 -6.90625 Z M 3.359375 -6.09375 "/></g></g></g><g fill="#0066ff" fill-opacity="1"><g transform="translate(139.870339, 42.56975)"><g><path d="M 8.484375 -6.90625 L 3.875 0.46875 C 3.382812 1.269531 2.90625 1.820312 2.4375 2.125 C 1.96875 2.4375 1.394531 2.59375 0.71875 2.59375 C 0.363281 2.59375 0.015625 2.535156 -0.328125 2.421875 C -0.679688 2.316406 -0.957031 2.171875 -1.15625 1.984375 L -0.234375 0.546875 C 0.078125 0.828125 0.445312 0.96875 0.875 0.96875 C 1.132812 0.96875 1.359375 0.90625 1.546875 0.78125 C 1.734375 0.65625 1.925781 0.4375 2.125 0.125 L 2.1875 0.015625 L 0.59375 -6.90625 L 2.59375 -6.90625 L 3.625 -2.203125 L 6.5 -6.90625 Z M 8.484375 -6.90625 "/></g></g></g><g fill="#9ca3af" fill-opacity="1"><g transform="translate(49.553411, 49.873455)"><g><path d="M 1.65625 0 L 0.96875 0 L 0.96875 -2.671875 L 0.09375 -2.671875 L 0.09375 -3.25 L 2.546875 -3.25 L 2.546875 -2.671875 L 1.65625 -2.671875 Z M 1.65625 0 "/></g></g><g transform="translate(52.18402, 49.873455)"><g><path d="M 1.734375 -2.53125 C 1.828125 -2.53125 1.90625 -2.523438 1.96875 -2.515625 L 1.921875 -1.875 C 1.867188 -1.882812 1.800781 -1.890625 1.71875 -1.890625 C 1.5 -1.890625 1.328125 -1.832031 1.203125 -1.71875 C 1.085938 -1.613281 1.03125 -1.460938 1.03125 -1.265625 L 1.03125 0 L 0.359375 0 L 0.359375 -2.484375 L 0.875 -2.484375 L 0.96875 -2.0625 L 1 -2.0625 C 1.070312 -2.207031 1.175781 -2.320312 1.3125 -2.40625 C 1.445312 -2.488281 1.585938 -2.53125 1.734375 -2.53125 Z M 1.734375 -2.53125 "/></g></g><g transform="translate(54.246808, 49.873455)"><g><path d="M 1.9375 0 L 1.796875 -0.34375 L 1.78125 -0.34375 C 1.664062 -0.195312 1.546875 -0.09375 1.421875 -0.03125 C 1.304688 0.0195312 1.148438 0.046875 0.953125 0.046875 C 0.722656 0.046875 0.535156 -0.0195312 0.390625 -0.15625 C 0.253906 -0.289062 0.1875 -0.484375 0.1875 -0.734375 C 0.1875 -1.003906 0.28125 -1.203125 0.46875 -1.328125 C 0.65625 -1.453125 0.929688 -1.519531 1.296875 -1.53125 L 1.734375 -1.546875 L 1.734375 -1.65625 C 1.734375 -1.90625 1.601562 -2.03125 1.34375 -2.03125 C 1.144531 -2.03125 0.910156 -1.972656 0.640625 -1.859375 L 0.421875 -2.3125 C 0.703125 -2.457031 1.019531 -2.53125 1.375 -2.53125 C 1.707031 -2.53125 1.960938 -2.457031 2.140625 -2.3125 C 2.316406 -2.164062 2.40625 -1.945312 2.40625 -1.65625 L 2.40625 0 Z M 1.734375 -1.15625 L 1.46875 -1.140625 C 1.269531 -1.128906 1.125 -1.09375 1.03125 -1.03125 C 0.9375 -0.96875 0.890625 -0.867188 0.890625 -0.734375 C 0.890625 -0.546875 1 -0.453125 1.21875 -0.453125 C 1.375 -0.453125 1.5 -0.492188 1.59375 -0.578125 C 1.6875 -0.671875 1.734375 -0.796875 1.734375 -0.953125 Z M 1.734375 -1.15625 "/></g></g><g transform="translate(56.990538, 49.873455)"><g><path d="M 2.640625 0 L 1.96875 0 L 1.96875 -1.453125 C 1.96875 -1.628906 1.9375 -1.757812 1.875 -1.84375 C 1.8125 -1.9375 1.707031 -1.984375 1.5625 -1.984375 C 1.375 -1.984375 1.238281 -1.921875 1.15625 -1.796875 C 1.070312 -1.671875 1.03125 -1.460938 1.03125 -1.171875 L 1.03125 0 L 0.359375 0 L 0.359375 -2.484375 L 0.875 -2.484375 L 0.96875 -2.171875 L 1 -2.171875 C 1.070312 -2.285156 1.175781 -2.375 1.3125 -2.4375 C 1.445312 -2.5 1.597656 -2.53125 1.765625 -2.53125 C 2.054688 -2.53125 2.273438 -2.453125 2.421875 -2.296875 C 2.566406 -2.140625 2.640625 -1.914062 2.640625 -1.625 Z M 2.640625 0 "/></g></g><g transform="translate(59.976035, 49.873455)"><g><path d="M 2.09375 -0.734375 C 2.09375 -0.484375 2.003906 -0.289062 1.828125 -0.15625 C 1.648438 -0.0195312 1.382812 0.046875 1.03125 0.046875 C 0.84375 0.046875 0.6875 0.03125 0.5625 0 C 0.4375 -0.0195312 0.316406 -0.0507812 0.203125 -0.09375 L 0.203125 -0.65625 C 0.328125 -0.601562 0.46875 -0.554688 0.625 -0.515625 C 0.789062 -0.472656 0.929688 -0.453125 1.046875 -0.453125 C 1.296875 -0.453125 1.421875 -0.519531 1.421875 -0.65625 C 1.421875 -0.71875 1.40625 -0.765625 1.375 -0.796875 C 1.34375 -0.828125 1.285156 -0.863281 1.203125 -0.90625 C 1.117188 -0.945312 1.007812 -0.992188 0.875 -1.046875 C 0.6875 -1.128906 0.546875 -1.203125 0.453125 -1.265625 C 0.367188 -1.335938 0.304688 -1.414062 0.265625 -1.5 C 0.222656 -1.59375 0.203125 -1.707031 0.203125 -1.84375 C 0.203125 -2.0625 0.285156 -2.226562 0.453125 -2.34375 C 0.628906 -2.46875 0.875 -2.53125 1.1875 -2.53125 C 1.488281 -2.53125 1.78125 -2.460938 2.0625 -2.328125 L 1.859375 -1.84375 C 1.734375 -1.894531 1.613281 -1.9375 1.5 -1.96875 C 1.394531 -2.007812 1.285156 -2.03125 1.171875 -2.03125 C 0.972656 -2.03125 0.875 -1.972656 0.875 -1.859375 C 0.875 -1.804688 0.90625 -1.753906 0.96875 -1.703125 C 1.03125 -1.660156 1.171875 -1.597656 1.390625 -1.515625 C 1.585938 -1.429688 1.726562 -1.351562 1.8125 -1.28125 C 1.90625 -1.21875 1.972656 -1.140625 2.015625 -1.046875 C 2.066406 -0.960938 2.09375 -0.859375 2.09375 -0.734375 Z M 2.09375 -0.734375 "/></g></g><g transform="translate(62.234012, 49.873455)"><g><path d="M 1.734375 -1.96875 L 1.140625 -1.96875 L 1.140625 0 L 0.46875 0 L 0.46875 -1.96875 L 0.09375 -1.96875 L 0.09375 -2.296875 L 0.46875 -2.484375 L 0.46875 -2.671875 C 0.46875 -2.953125 0.535156 -3.15625 0.671875 -3.28125 C 0.804688 -3.414062 1.03125 -3.484375 1.34375 -3.484375 C 1.570312 -3.484375 1.78125 -3.445312 1.96875 -3.375 L 1.796875 -2.875 C 1.660156 -2.914062 1.535156 -2.9375 1.421875 -2.9375 C 1.316406 -2.9375 1.242188 -2.90625 1.203125 -2.84375 C 1.160156 -2.789062 1.140625 -2.722656 1.140625 -2.640625 L 1.140625 -2.484375 L 1.734375 -2.484375 Z M 1.734375 -1.96875 "/></g></g><g transform="translate(63.992927, 49.873455)"><g><path d="M 0.890625 -1.25 C 0.890625 -1 0.929688 -0.8125 1.015625 -0.6875 C 1.097656 -0.5625 1.226562 -0.5 1.40625 -0.5 C 1.59375 -0.5 1.722656 -0.5625 1.796875 -0.6875 C 1.878906 -0.8125 1.921875 -1 1.921875 -1.25 C 1.921875 -1.488281 1.878906 -1.671875 1.796875 -1.796875 C 1.710938 -1.921875 1.582031 -1.984375 1.40625 -1.984375 C 1.226562 -1.984375 1.097656 -1.921875 1.015625 -1.796875 C 0.929688 -1.671875 0.890625 -1.488281 0.890625 -1.25 Z M 2.609375 -1.25 C 2.609375 -0.84375 2.5 -0.523438 2.28125 -0.296875 C 2.070312 -0.0664062 1.78125 0.046875 1.40625 0.046875 C 1.164062 0.046875 0.953125 -0.00390625 0.765625 -0.109375 C 0.585938 -0.210938 0.445312 -0.363281 0.34375 -0.5625 C 0.25 -0.757812 0.203125 -0.988281 0.203125 -1.25 C 0.203125 -1.65625 0.304688 -1.96875 0.515625 -2.1875 C 0.734375 -2.414062 1.035156 -2.53125 1.421875 -2.53125 C 1.648438 -2.53125 1.851562 -2.476562 2.03125 -2.375 C 2.21875 -2.269531 2.359375 -2.117188 2.453125 -1.921875 C 2.554688 -1.734375 2.609375 -1.507812 2.609375 -1.25 Z M 2.609375 -1.25 "/></g></g><g transform="translate(66.805416, 49.873455)"><g><path d="M 1.734375 -2.53125 C 1.828125 -2.53125 1.90625 -2.523438 1.96875 -2.515625 L 1.921875 -1.875 C 1.867188 -1.882812 1.800781 -1.890625 1.71875 -1.890625 C 1.5 -1.890625 1.328125 -1.832031 1.203125 -1.71875 C 1.085938 -1.613281 1.03125 -1.460938 1.03125 -1.265625 L 1.03125 0 L 0.359375 0 L 0.359375 -2.484375 L 0.875 -2.484375 L 0.96875 -2.0625 L 1 -2.0625 C 1.070312 -2.207031 1.175781 -2.320312 1.3125 -2.40625 C 1.445312 -2.488281 1.585938 -2.53125 1.734375 -2.53125 Z M 1.734375 -2.53125 "/></g></g><g transform="translate(68.868204, 49.873455)"><g><path d="M 2.578125 0 L 1.90625 0 L 1.90625 -1.453125 C 1.90625 -1.628906 1.875 -1.757812 1.8125 -1.84375 C 1.75 -1.9375 1.65625 -1.984375 1.53125 -1.984375 C 1.351562 -1.984375 1.222656 -1.921875 1.140625 -1.796875 C 1.066406 -1.671875 1.03125 -1.460938 1.03125 -1.171875 L 1.03125 0 L 0.359375 0 L 0.359375 -2.484375 L 0.875 -2.484375 L 0.96875 -2.171875 L 1 -2.171875 C 1.0625 -2.273438 1.15625 -2.359375 1.28125 -2.421875 C 1.414062 -2.492188 1.5625 -2.53125 1.71875 -2.53125 C 2.09375 -2.53125 2.347656 -2.410156 2.484375 -2.171875 L 2.53125 -2.171875 C 2.601562 -2.285156 2.703125 -2.375 2.828125 -2.4375 C 2.960938 -2.5 3.109375 -2.53125 3.265625 -2.53125 C 3.546875 -2.53125 3.757812 -2.457031 3.90625 -2.3125 C 4.050781 -2.164062 4.125 -1.9375 4.125 -1.625 L 4.125 0 L 3.453125 0 L 3.453125 -1.453125 C 3.453125 -1.628906 3.421875 -1.757812 3.359375 -1.84375 C 3.296875 -1.9375 3.203125 -1.984375 3.078125 -1.984375 C 2.910156 -1.984375 2.785156 -1.921875 2.703125 -1.796875 C 2.617188 -1.679688 2.578125 -1.5 2.578125 -1.25 Z M 2.578125 0 "/></g></g><g transform="translate(73.328706, 49.873455)"><g><path d="M 1.9375 0 L 1.796875 -0.34375 L 1.78125 -0.34375 C 1.664062 -0.195312 1.546875 -0.09375 1.421875 -0.03125 C 1.304688 0.0195312 1.148438 0.046875 0.953125 0.046875 C 0.722656 0.046875 0.535156 -0.0195312 0.390625 -0.15625 C 0.253906 -0.289062 0.1875 -0.484375 0.1875 -0.734375 C 0.1875 -1.003906 0.28125 -1.203125 0.46875 -1.328125 C 0.65625 -1.453125 0.929688 -1.519531 1.296875 -1.53125 L 1.734375 -1.546875 L 1.734375 -1.65625 C 1.734375 -1.90625 1.601562 -2.03125 1.34375 -2.03125 C 1.144531 -2.03125 0.910156 -1.972656 0.640625 -1.859375 L 0.421875 -2.3125 C 0.703125 -2.457031 1.019531 -2.53125 1.375 -2.53125 C 1.707031 -2.53125 1.960938 -2.457031 2.140625 -2.3125 C 2.316406 -2.164062 2.40625 -1.945312 2.40625 -1.65625 L 2.40625 0 Z M 1.734375 -1.15625 L 1.46875 -1.140625 C 1.269531 -1.128906 1.125 -1.09375 1.03125 -1.03125 C 0.9375 -0.96875 0.890625 -0.867188 0.890625 -0.734375 C 0.890625 -0.546875 1 -0.453125 1.21875 -0.453125 C 1.375 -0.453125 1.5 -0.492188 1.59375 -0.578125 C 1.6875 -0.671875 1.734375 -0.796875 1.734375 -0.953125 Z M 1.734375 -1.15625 "/></g></g><g transform="translate(76.072436, 49.873455)"><g/></g><g transform="translate(77.252439, 49.873455)"><g><path d="M 1.40625 -0.5 C 1.519531 -0.5 1.660156 -0.523438 1.828125 -0.578125 L 1.828125 -0.0625 C 1.660156 0.0078125 1.453125 0.046875 1.203125 0.046875 C 0.929688 0.046875 0.734375 -0.0195312 0.609375 -0.15625 C 0.484375 -0.289062 0.421875 -0.5 0.421875 -0.78125 L 0.421875 -1.96875 L 0.109375 -1.96875 L 0.109375 -2.265625 L 0.484375 -2.484375 L 0.671875 -3.015625 L 1.109375 -3.015625 L 1.109375 -2.484375 L 1.796875 -2.484375 L 1.796875 -1.96875 L 1.109375 -1.96875 L 1.109375 -0.78125 C 1.109375 -0.675781 1.132812 -0.601562 1.1875 -0.5625 C 1.238281 -0.519531 1.3125 -0.5 1.40625 -0.5 Z M 1.40625 -0.5 "/></g></g><g transform="translate(79.224287, 49.873455)"><g><path d="M 2.109375 0 L 2.015625 -0.3125 L 1.984375 -0.3125 C 1.910156 -0.195312 1.804688 -0.109375 1.671875 -0.046875 C 1.546875 0.015625 1.394531 0.046875 1.21875 0.046875 C 0.925781 0.046875 0.707031 -0.03125 0.5625 -0.1875 C 0.414062 -0.34375 0.34375 -0.566406 0.34375 -0.859375 L 0.34375 -2.484375 L 1.015625 -2.484375 L 1.015625 -1.03125 C 1.015625 -0.851562 1.046875 -0.71875 1.109375 -0.625 C 1.171875 -0.539062 1.273438 -0.5 1.421875 -0.5 C 1.609375 -0.5 1.742188 -0.5625 1.828125 -0.6875 C 1.910156 -0.8125 1.953125 -1.019531 1.953125 -1.3125 L 1.953125 -2.484375 L 2.640625 -2.484375 L 2.640625 0 Z M 2.109375 0 "/></g></g><g transform="translate(82.209784, 49.873455)"><g/></g><g transform="translate(83.389788, 49.873455)"><g><path d="M 1.734375 -2.53125 C 2.023438 -2.53125 2.253906 -2.414062 2.421875 -2.1875 C 2.585938 -1.957031 2.671875 -1.644531 2.671875 -1.25 C 2.671875 -0.832031 2.582031 -0.507812 2.40625 -0.28125 C 2.238281 -0.0625 2.007812 0.046875 1.71875 0.046875 C 1.425781 0.046875 1.195312 -0.0546875 1.03125 -0.265625 L 0.984375 -0.265625 L 0.875 0 L 0.359375 0 L 0.359375 -3.453125 L 1.03125 -3.453125 L 1.03125 -2.65625 C 1.03125 -2.550781 1.019531 -2.382812 1 -2.15625 L 1.03125 -2.15625 C 1.1875 -2.40625 1.421875 -2.53125 1.734375 -2.53125 Z M 1.515625 -1.984375 C 1.347656 -1.984375 1.222656 -1.929688 1.140625 -1.828125 C 1.066406 -1.722656 1.03125 -1.554688 1.03125 -1.328125 L 1.03125 -1.25 C 1.03125 -0.976562 1.066406 -0.785156 1.140625 -0.671875 C 1.222656 -0.554688 1.351562 -0.5 1.53125 -0.5 C 1.664062 -0.5 1.773438 -0.5625 1.859375 -0.6875 C 1.941406 -0.820312 1.984375 -1.007812 1.984375 -1.25 C 1.984375 -1.5 1.941406 -1.679688 1.859375 -1.796875 C 1.773438 -1.921875 1.660156 -1.984375 1.515625 -1.984375 Z M 1.515625 -1.984375 "/></g></g><g transform="translate(86.264383, 49.873455)"><g><path d="M 0.890625 -1.25 C 0.890625 -1 0.929688 -0.8125 1.015625 -0.6875 C 1.097656 -0.5625 1.226562 -0.5 1.40625 -0.5 C 1.59375 -0.5 1.722656 -0.5625 1.796875 -0.6875 C 1.878906 -0.8125 1.921875 -1 1.921875 -1.25 C 1.921875 -1.488281 1.878906 -1.671875 1.796875 -1.796875 C 1.710938 -1.921875 1.582031 -1.984375 1.40625 -1.984375 C 1.226562 -1.984375 1.097656 -1.921875 1.015625 -1.796875 C 0.929688 -1.671875 0.890625 -1.488281 0.890625 -1.25 Z M 2.609375 -1.25 C 2.609375 -0.84375 2.5 -0.523438 2.28125 -0.296875 C 2.070312 -0.0664062 1.78125 0.046875 1.40625 0.046875 C 1.164062 0.046875 0.953125 -0.00390625 0.765625 -0.109375 C 0.585938 -0.210938 0.445312 -0.363281 0.34375 -0.5625 C 0.25 -0.757812 0.203125 -0.988281 0.203125 -1.25 C 0.203125 -1.65625 0.304688 -1.96875 0.515625 -2.1875 C 0.734375 -2.414062 1.035156 -2.53125 1.421875 -2.53125 C 1.648438 -2.53125 1.851562 -2.476562 2.03125 -2.375 C 2.21875 -2.269531 2.359375 -2.117188 2.453125 -1.921875 C 2.554688 -1.734375 2.609375 -1.507812 2.609375 -1.25 Z M 2.609375 -1.25 "/></g></g><g transform="translate(89.076872, 49.873455)"><g><path d="M 1.140625 0.046875 C 0.847656 0.046875 0.617188 -0.0664062 0.453125 -0.296875 C 0.285156 -0.523438 0.203125 -0.835938 0.203125 -1.234375 C 0.203125 -1.640625 0.285156 -1.957031 0.453125 -2.1875 C 0.628906 -2.414062 0.863281 -2.53125 1.15625 -2.53125 C 1.46875 -2.53125 1.707031 -2.410156 1.875 -2.171875 L 1.890625 -2.171875 C 1.859375 -2.347656 1.84375 -2.507812 1.84375 -2.65625 L 1.84375 -3.453125 L 2.53125 -3.453125 L 2.53125 0 L 2 0 L 1.875 -0.328125 L 1.84375 -0.328125 C 1.6875 -0.078125 1.453125 0.046875 1.140625 0.046875 Z M 1.375 -0.5 C 1.550781 -0.5 1.675781 -0.546875 1.75 -0.640625 C 1.832031 -0.742188 1.878906 -0.914062 1.890625 -1.15625 L 1.890625 -1.234375 C 1.890625 -1.492188 1.847656 -1.679688 1.765625 -1.796875 C 1.679688 -1.921875 1.550781 -1.984375 1.375 -1.984375 C 1.21875 -1.984375 1.097656 -1.914062 1.015625 -1.78125 C 0.929688 -1.65625 0.890625 -1.472656 0.890625 -1.234375 C 0.890625 -0.984375 0.929688 -0.796875 1.015625 -0.671875 C 1.097656 -0.554688 1.21875 -0.5 1.375 -0.5 Z M 1.375 -0.5 "/></g></g><g transform="translate(91.951467, 49.873455)"><g><path d="M 1.390625 -2.046875 C 1.242188 -2.046875 1.128906 -2 1.046875 -1.90625 C 0.960938 -1.820312 0.914062 -1.691406 0.90625 -1.515625 L 1.859375 -1.515625 C 1.859375 -1.691406 1.8125 -1.820312 1.71875 -1.90625 C 1.632812 -2 1.523438 -2.046875 1.390625 -2.046875 Z M 1.484375 0.046875 C 1.078125 0.046875 0.757812 -0.0625 0.53125 -0.28125 C 0.3125 -0.507812 0.203125 -0.820312 0.203125 -1.21875 C 0.203125 -1.632812 0.304688 -1.957031 0.515625 -2.1875 C 0.722656 -2.414062 1.007812 -2.53125 1.375 -2.53125 C 1.726562 -2.53125 2 -2.425781 2.1875 -2.21875 C 2.382812 -2.019531 2.484375 -1.75 2.484375 -1.40625 L 2.484375 -1.078125 L 0.890625 -1.078125 C 0.898438 -0.878906 0.957031 -0.722656 1.0625 -0.609375 C 1.164062 -0.503906 1.316406 -0.453125 1.515625 -0.453125 C 1.660156 -0.453125 1.800781 -0.46875 1.9375 -0.5 C 2.070312 -0.53125 2.207031 -0.582031 2.34375 -0.65625 L 2.34375 -0.125 C 2.226562 -0.0703125 2.101562 -0.03125 1.96875 0 C 1.832031 0.03125 1.671875 0.046875 1.484375 0.046875 Z M 1.484375 0.046875 "/></g></g><g transform="translate(94.635309, 49.873455)"><g><path d="M 2.515625 -2.484375 L 2.515625 -2.140625 L 2.125 -2.03125 C 2.195312 -1.925781 2.234375 -1.804688 2.234375 -1.671875 C 2.234375 -1.398438 2.140625 -1.1875 1.953125 -1.03125 C 1.765625 -0.882812 1.507812 -0.8125 1.1875 -0.8125 L 1.0625 -0.828125 L 0.953125 -0.84375 C 0.890625 -0.78125 0.859375 -0.71875 0.859375 -0.65625 C 0.859375 -0.5625 0.984375 -0.515625 1.234375 -0.515625 L 1.65625 -0.515625 C 1.925781 -0.515625 2.128906 -0.453125 2.265625 -0.328125 C 2.410156 -0.210938 2.484375 -0.046875 2.484375 0.171875 C 2.484375 0.460938 2.363281 0.6875 2.125 0.84375 C 1.882812 1.007812 1.535156 1.09375 1.078125 1.09375 C 0.734375 1.09375 0.46875 1.03125 0.28125 0.90625 C 0.101562 0.789062 0.015625 0.625 0.015625 0.40625 C 0.015625 0.257812 0.0625 0.132812 0.15625 0.03125 C 0.25 -0.0703125 0.382812 -0.144531 0.5625 -0.1875 C 0.488281 -0.21875 0.425781 -0.265625 0.375 -0.328125 C 0.320312 -0.398438 0.296875 -0.472656 0.296875 -0.546875 C 0.296875 -0.640625 0.320312 -0.71875 0.375 -0.78125 C 0.4375 -0.84375 0.519531 -0.90625 0.625 -0.96875 C 0.488281 -1.019531 0.382812 -1.109375 0.3125 -1.234375 C 0.238281 -1.359375 0.203125 -1.503906 0.203125 -1.671875 C 0.203125 -1.941406 0.289062 -2.148438 0.46875 -2.296875 C 0.644531 -2.453125 0.894531 -2.53125 1.21875 -2.53125 C 1.289062 -2.53125 1.375 -2.519531 1.46875 -2.5 C 1.5625 -2.488281 1.625 -2.484375 1.65625 -2.484375 Z M 0.59375 0.34375 C 0.59375 0.4375 0.640625 0.507812 0.734375 0.5625 C 0.828125 0.625 0.953125 0.65625 1.109375 0.65625 C 1.347656 0.65625 1.535156 0.617188 1.671875 0.546875 C 1.816406 0.484375 1.890625 0.394531 1.890625 0.28125 C 1.890625 0.1875 1.847656 0.117188 1.765625 0.078125 C 1.679688 0.046875 1.554688 0.03125 1.390625 0.03125 L 1.03125 0.03125 C 0.90625 0.03125 0.800781 0.0546875 0.71875 0.109375 C 0.632812 0.171875 0.59375 0.25 0.59375 0.34375 Z M 0.84375 -1.671875 C 0.84375 -1.535156 0.875 -1.425781 0.9375 -1.34375 C 1 -1.269531 1.09375 -1.234375 1.21875 -1.234375 C 1.34375 -1.234375 1.4375 -1.269531 1.5 -1.34375 C 1.5625 -1.425781 1.59375 -1.535156 1.59375 -1.671875 C 1.59375 -1.972656 1.46875 -2.125 1.21875 -2.125 C 0.96875 -2.125 0.84375 -1.972656 0.84375 -1.671875 Z M 0.84375 -1.671875 "/></g></g><g transform="translate(97.201595, 49.873455)"><g><path d="M 1.9375 0 L 1.796875 -0.34375 L 1.78125 -0.34375 C 1.664062 -0.195312 1.546875 -0.09375 1.421875 -0.03125 C 1.304688 0.0195312 1.148438 0.046875 0.953125 0.046875 C 0.722656 0.046875 0.535156 -0.0195312 0.390625 -0.15625 C 0.253906 -0.289062 0.1875 -0.484375 0.1875 -0.734375 C 0.1875 -1.003906 0.28125 -1.203125 0.46875 -1.328125 C 0.65625 -1.453125 0.929688 -1.519531 1.296875 -1.53125 L 1.734375 -1.546875 L 1.734375 -1.65625 C 1.734375 -1.90625 1.601562 -2.03125 1.34375 -2.03125 C 1.144531 -2.03125 0.910156 -1.972656 0.640625 -1.859375 L 0.421875 -2.3125 C 0.703125 -2.457031 1.019531 -2.53125 1.375 -2.53125 C 1.707031 -2.53125 1.960938 -2.457031 2.140625 -2.3125 C 2.316406 -2.164062 2.40625 -1.945312 2.40625 -1.65625 L 2.40625 0 Z M 1.734375 -1.15625 L 1.46875 -1.140625 C 1.269531 -1.128906 1.125 -1.09375 1.03125 -1.03125 C 0.9375 -0.96875 0.890625 -0.867188 0.890625 -0.734375 C 0.890625 -0.546875 1 -0.453125 1.21875 -0.453125 C 1.375 -0.453125 1.5 -0.492188 1.59375 -0.578125 C 1.6875 -0.671875 1.734375 -0.796875 1.734375 -0.953125 Z M 1.734375 -1.15625 "/></g></g><g transform="translate(99.945325, 49.873455)"><g/></g><g transform="translate(101.125328, 49.873455)"><g><path d="M 1.359375 0.046875 C 0.585938 0.046875 0.203125 -0.378906 0.203125 -1.234375 C 0.203125 -1.648438 0.304688 -1.96875 0.515625 -2.1875 C 0.722656 -2.414062 1.023438 -2.53125 1.421875 -2.53125 C 1.710938 -2.53125 1.972656 -2.472656 2.203125 -2.359375 L 2 -1.84375 C 1.894531 -1.882812 1.796875 -1.914062 1.703125 -1.9375 C 1.609375 -1.96875 1.515625 -1.984375 1.421875 -1.984375 C 1.066406 -1.984375 0.890625 -1.734375 0.890625 -1.234375 C 0.890625 -0.742188 1.066406 -0.5 1.421875 -0.5 C 1.554688 -0.5 1.675781 -0.515625 1.78125 -0.546875 C 1.894531 -0.585938 2.007812 -0.644531 2.125 -0.71875 L 2.125 -0.140625 C 2.007812 -0.0664062 1.894531 -0.0195312 1.78125 0 C 1.675781 0.03125 1.535156 0.046875 1.359375 0.046875 Z M 1.359375 0.046875 "/></g></g><g transform="translate(103.460936, 49.873455)"><g><path d="M 0.890625 -1.25 C 0.890625 -1 0.929688 -0.8125 1.015625 -0.6875 C 1.097656 -0.5625 1.226562 -0.5 1.40625 -0.5 C 1.59375 -0.5 1.722656 -0.5625 1.796875 -0.6875 C 1.878906 -0.8125 1.921875 -1 1.921875 -1.25 C 1.921875 -1.488281 1.878906 -1.671875 1.796875 -1.796875 C 1.710938 -1.921875 1.582031 -1.984375 1.40625 -1.984375 C 1.226562 -1.984375 1.097656 -1.921875 1.015625 -1.796875 C 0.929688 -1.671875 0.890625 -1.488281 0.890625 -1.25 Z M 2.609375 -1.25 C 2.609375 -0.84375 2.5 -0.523438 2.28125 -0.296875 C 2.070312 -0.0664062 1.78125 0.046875 1.40625 0.046875 C 1.164062 0.046875 0.953125 -0.00390625 0.765625 -0.109375 C 0.585938 -0.210938 0.445312 -0.363281 0.34375 -0.5625 C 0.25 -0.757812 0.203125 -0.988281 0.203125 -1.25 C 0.203125 -1.65625 0.304688 -1.96875 0.515625 -2.1875 C 0.734375 -2.414062 1.035156 -2.53125 1.421875 -2.53125 C 1.648438 -2.53125 1.851562 -2.476562 2.03125 -2.375 C 2.21875 -2.269531 2.359375 -2.117188 2.453125 -1.921875 C 2.554688 -1.734375 2.609375 -1.507812 2.609375 -1.25 Z M 2.609375 -1.25 "/></g></g><g transform="translate(106.273426, 49.873455)"><g><path d="M 2.640625 0 L 1.96875 0 L 1.96875 -1.453125 C 1.96875 -1.628906 1.9375 -1.757812 1.875 -1.84375 C 1.8125 -1.9375 1.707031 -1.984375 1.5625 -1.984375 C 1.375 -1.984375 1.238281 -1.921875 1.15625 -1.796875 C 1.070312 -1.671875 1.03125 -1.460938 1.03125 -1.171875 L 1.03125 0 L 0.359375 0 L 0.359375 -2.484375 L 0.875 -2.484375 L 0.96875 -2.171875 L 1 -2.171875 C 1.070312 -2.285156 1.175781 -2.375 1.3125 -2.4375 C 1.445312 -2.5 1.597656 -2.53125 1.765625 -2.53125 C 2.054688 -2.53125 2.273438 -2.453125 2.421875 -2.296875 C 2.566406 -2.140625 2.640625 -1.914062 2.640625 -1.625 Z M 2.640625 0 "/></g></g><g transform="translate(109.258923, 49.873455)"><g/></g><g transform="translate(110.438927, 49.873455)"><g><path d="M 1.40625 -0.5 C 1.519531 -0.5 1.660156 -0.523438 1.828125 -0.578125 L 1.828125 -0.0625 C 1.660156 0.0078125 1.453125 0.046875 1.203125 0.046875 C 0.929688 0.046875 0.734375 -0.0195312 0.609375 -0.15625 C 0.484375 -0.289062 0.421875 -0.5 0.421875 -0.78125 L 0.421875 -1.96875 L 0.109375 -1.96875 L 0.109375 -2.265625 L 0.484375 -2.484375 L 0.671875 -3.015625 L 1.109375 -3.015625 L 1.109375 -2.484375 L 1.796875 -2.484375 L 1.796875 -1.96875 L 1.109375 -1.96875 L 1.109375 -0.78125 C 1.109375 -0.675781 1.132812 -0.601562 1.1875 -0.5625 C 1.238281 -0.519531 1.3125 -0.5 1.40625 -0.5 Z M 1.40625 -0.5 "/></g></g><g transform="translate(112.410775, 49.873455)"><g><path d="M 1.390625 -2.046875 C 1.242188 -2.046875 1.128906 -2 1.046875 -1.90625 C 0.960938 -1.820312 0.914062 -1.691406 0.90625 -1.515625 L 1.859375 -1.515625 C 1.859375 -1.691406 1.8125 -1.820312 1.71875 -1.90625 C 1.632812 -2 1.523438 -2.046875 1.390625 -2.046875 Z M 1.484375 0.046875 C 1.078125 0.046875 0.757812 -0.0625 0.53125 -0.28125 C 0.3125 -0.507812 0.203125 -0.820312 0.203125 -1.21875 C 0.203125 -1.632812 0.304688 -1.957031 0.515625 -2.1875 C 0.722656 -2.414062 1.007812 -2.53125 1.375 -2.53125 C 1.726562 -2.53125 2 -2.425781 2.1875 -2.21875 C 2.382812 -2.019531 2.484375 -1.75 2.484375 -1.40625 L 2.484375 -1.078125 L 0.890625 -1.078125 C 0.898438 -0.878906 0.957031 -0.722656 1.0625 -0.609375 C 1.164062 -0.503906 1.316406 -0.453125 1.515625 -0.453125 C 1.660156 -0.453125 1.800781 -0.46875 1.9375 -0.5 C 2.070312 -0.53125 2.207031 -0.582031 2.34375 -0.65625 L 2.34375 -0.125 C 2.226562 -0.0703125 2.101562 -0.03125 1.96875 0 C 1.832031 0.03125 1.671875 0.046875 1.484375 0.046875 Z M 1.484375 0.046875 "/></g></g><g transform="translate(115.094617, 49.873455)"><g><path d="M 1.359375 0.046875 C 0.585938 0.046875 0.203125 -0.378906 0.203125 -1.234375 C 0.203125 -1.648438 0.304688 -1.96875 0.515625 -2.1875 C 0.722656 -2.414062 1.023438 -2.53125 1.421875 -2.53125 C 1.710938 -2.53125 1.972656 -2.472656 2.203125 -2.359375 L 2 -1.84375 C 1.894531 -1.882812 1.796875 -1.914062 1.703125 -1.9375 C 1.609375 -1.96875 1.515625 -1.984375 1.421875 -1.984375 C 1.066406 -1.984375 0.890625 -1.734375 0.890625 -1.234375 C 0.890625 -0.742188 1.066406 -0.5 1.421875 -0.5 C 1.554688 -0.5 1.675781 -0.515625 1.78125 -0.546875 C 1.894531 -0.585938 2.007812 -0.644531 2.125 -0.71875 L 2.125 -0.140625 C 2.007812 -0.0664062 1.894531 -0.0195312 1.78125 0 C 1.675781 0.03125 1.535156 0.046875 1.359375 0.046875 Z M 1.359375 0.046875 "/></g></g><g transform="translate(117.430225, 49.873455)"><g><path d="M 2.640625 0 L 1.96875 0 L 1.96875 -1.453125 C 1.96875 -1.628906 1.9375 -1.757812 1.875 -1.84375 C 1.8125 -1.9375 1.707031 -1.984375 1.5625 -1.984375 C 1.375 -1.984375 1.238281 -1.921875 1.15625 -1.796875 C 1.070312 -1.671875 1.03125 -1.460938 1.03125 -1.171875 L 1.03125 0 L 0.359375 0 L 0.359375 -2.484375 L 0.875 -2.484375 L 0.96875 -2.171875 L 1 -2.171875 C 1.070312 -2.285156 1.175781 -2.375 1.3125 -2.4375 C 1.445312 -2.5 1.597656 -2.53125 1.765625 -2.53125 C 2.054688 -2.53125 2.273438 -2.453125 2.421875 -2.296875 C 2.566406 -2.140625 2.640625 -1.914062 2.640625 -1.625 Z M 2.640625 0 "/></g></g><g transform="translate(120.415723, 49.873455)"><g><path d="M 0.890625 -1.25 C 0.890625 -1 0.929688 -0.8125 1.015625 -0.6875 C 1.097656 -0.5625 1.226562 -0.5 1.40625 -0.5 C 1.59375 -0.5 1.722656 -0.5625 1.796875 -0.6875 C 1.878906 -0.8125 1.921875 -1 1.921875 -1.25 C 1.921875 -1.488281 1.878906 -1.671875 1.796875 -1.796875 C 1.710938 -1.921875 1.582031 -1.984375 1.40625 -1.984375 C 1.226562 -1.984375 1.097656 -1.921875 1.015625 -1.796875 C 0.929688 -1.671875 0.890625 -1.488281 0.890625 -1.25 Z M 2.609375 -1.25 C 2.609375 -0.84375 2.5 -0.523438 2.28125 -0.296875 C 2.070312 -0.0664062 1.78125 0.046875 1.40625 0.046875 C 1.164062 0.046875 0.953125 -0.00390625 0.765625 -0.109375 C 0.585938 -0.210938 0.445312 -0.363281 0.34375 -0.5625 C 0.25 -0.757812 0.203125 -0.988281 0.203125 -1.25 C 0.203125 -1.65625 0.304688 -1.96875 0.515625 -2.1875 C 0.734375 -2.414062 1.035156 -2.53125 1.421875 -2.53125 C 1.648438 -2.53125 1.851562 -2.476562 2.03125 -2.375 C 2.21875 -2.269531 2.359375 -2.117188 2.453125 -1.921875 C 2.554688 -1.734375 2.609375 -1.507812 2.609375 -1.25 Z M 2.609375 -1.25 "/></g></g><g transform="translate(123.228212, 49.873455)"><g><path d="M 1.03125 0 L 0.359375 0 L 0.359375 -3.453125 L 1.03125 -3.453125 Z M 1.03125 0 "/></g></g><g transform="translate(124.614494, 49.873455)"><g><path d="M 0.890625 -1.25 C 0.890625 -1 0.929688 -0.8125 1.015625 -0.6875 C 1.097656 -0.5625 1.226562 -0.5 1.40625 -0.5 C 1.59375 -0.5 1.722656 -0.5625 1.796875 -0.6875 C 1.878906 -0.8125 1.921875 -1 1.921875 -1.25 C 1.921875 -1.488281 1.878906 -1.671875 1.796875 -1.796875 C 1.710938 -1.921875 1.582031 -1.984375 1.40625 -1.984375 C 1.226562 -1.984375 1.097656 -1.921875 1.015625 -1.796875 C 0.929688 -1.671875 0.890625 -1.488281 0.890625 -1.25 Z M 2.609375 -1.25 C 2.609375 -0.84375 2.5 -0.523438 2.28125 -0.296875 C 2.070312 -0.0664062 1.78125 0.046875 1.40625 0.046875 C 1.164062 0.046875 0.953125 -0.00390625 0.765625 -0.109375 C 0.585938 -0.210938 0.445312 -0.363281 0.34375 -0.5625 C 0.25 -0.757812 0.203125 -0.988281 0.203125 -1.25 C 0.203125 -1.65625 0.304688 -1.96875 0.515625 -2.1875 C 0.734375 -2.414062 1.035156 -2.53125 1.421875 -2.53125 C 1.648438 -2.53125 1.851562 -2.476562 2.03125 -2.375 C 2.21875 -2.269531 2.359375 -2.117188 2.453125 -1.921875 C 2.554688 -1.734375 2.609375 -1.507812 2.609375 -1.25 Z M 2.609375 -1.25 "/></g></g><g transform="translate(127.426984, 49.873455)"><g><path d="M 2.515625 -2.484375 L 2.515625 -2.140625 L 2.125 -2.03125 C 2.195312 -1.925781 2.234375 -1.804688 2.234375 -1.671875 C 2.234375 -1.398438 2.140625 -1.1875 1.953125 -1.03125 C 1.765625 -0.882812 1.507812 -0.8125 1.1875 -0.8125 L 1.0625 -0.828125 L 0.953125 -0.84375 C 0.890625 -0.78125 0.859375 -0.71875 0.859375 -0.65625 C 0.859375 -0.5625 0.984375 -0.515625 1.234375 -0.515625 L 1.65625 -0.515625 C 1.925781 -0.515625 2.128906 -0.453125 2.265625 -0.328125 C 2.410156 -0.210938 2.484375 -0.046875 2.484375 0.171875 C 2.484375 0.460938 2.363281 0.6875 2.125 0.84375 C 1.882812 1.007812 1.535156 1.09375 1.078125 1.09375 C 0.734375 1.09375 0.46875 1.03125 0.28125 0.90625 C 0.101562 0.789062 0.015625 0.625 0.015625 0.40625 C 0.015625 0.257812 0.0625 0.132812 0.15625 0.03125 C 0.25 -0.0703125 0.382812 -0.144531 0.5625 -0.1875 C 0.488281 -0.21875 0.425781 -0.265625 0.375 -0.328125 C 0.320312 -0.398438 0.296875 -0.472656 0.296875 -0.546875 C 0.296875 -0.640625 0.320312 -0.71875 0.375 -0.78125 C 0.4375 -0.84375 0.519531 -0.90625 0.625 -0.96875 C 0.488281 -1.019531 0.382812 -1.109375 0.3125 -1.234375 C 0.238281 -1.359375 0.203125 -1.503906 0.203125 -1.671875 C 0.203125 -1.941406 0.289062 -2.148438 0.46875 -2.296875 C 0.644531 -2.453125 0.894531 -2.53125 1.21875 -2.53125 C 1.289062 -2.53125 1.375 -2.519531 1.46875 -2.5 C 1.5625 -2.488281 1.625 -2.484375 1.65625 -2.484375 Z M 0.59375 0.34375 C 0.59375 0.4375 0.640625 0.507812 0.734375 0.5625 C 0.828125 0.625 0.953125 0.65625 1.109375 0.65625 C 1.347656 0.65625 1.535156 0.617188 1.671875 0.546875 C 1.816406 0.484375 1.890625 0.394531 1.890625 0.28125 C 1.890625 0.1875 1.847656 0.117188 1.765625 0.078125 C 1.679688 0.046875 1.554688 0.03125 1.390625 0.03125 L 1.03125 0.03125 C 0.90625 0.03125 0.800781 0.0546875 0.71875 0.109375 C 0.632812 0.171875 0.59375 0.25 0.59375 0.34375 Z M 0.84375 -1.671875 C 0.84375 -1.535156 0.875 -1.425781 0.9375 -1.34375 C 1 -1.269531 1.09375 -1.234375 1.21875 -1.234375 C 1.34375 -1.234375 1.4375 -1.269531 1.5 -1.34375 C 1.5625 -1.425781 1.59375 -1.535156 1.59375 -1.671875 C 1.59375 -1.972656 1.46875 -2.125 1.21875 -2.125 C 0.96875 -2.125 0.84375 -1.972656 0.84375 -1.671875 Z M 0.84375 -1.671875 "/></g></g><g transform="translate(129.993269, 49.873455)"><g><path d="M 1.03125 0 L 0.359375 0 L 0.359375 -2.484375 L 1.03125 -2.484375 Z M 0.3125 -2.75 L 0.3125 -2.8125 C 0.570312 -3.113281 0.75 -3.335938 0.84375 -3.484375 L 1.59375 -3.484375 L 1.59375 -3.4375 C 1.519531 -3.363281 1.390625 -3.25 1.203125 -3.09375 C 1.015625 -2.9375 0.867188 -2.820312 0.765625 -2.75 Z M 0.3125 -2.75 "/></g></g><g transform="translate(131.379552, 49.873455)"><g><path d="M 1.9375 0 L 1.796875 -0.34375 L 1.78125 -0.34375 C 1.664062 -0.195312 1.546875 -0.09375 1.421875 -0.03125 C 1.304688 0.0195312 1.148438 0.046875 0.953125 0.046875 C 0.722656 0.046875 0.535156 -0.0195312 0.390625 -0.15625 C 0.253906 -0.289062 0.1875 -0.484375 0.1875 -0.734375 C 0.1875 -1.003906 0.28125 -1.203125 0.46875 -1.328125 C 0.65625 -1.453125 0.929688 -1.519531 1.296875 -1.53125 L 1.734375 -1.546875 L 1.734375 -1.65625 C 1.734375 -1.90625 1.601562 -2.03125 1.34375 -2.03125 C 1.144531 -2.03125 0.910156 -1.972656 0.640625 -1.859375 L 0.421875 -2.3125 C 0.703125 -2.457031 1.019531 -2.53125 1.375 -2.53125 C 1.707031 -2.53125 1.960938 -2.457031 2.140625 -2.3125 C 2.316406 -2.164062 2.40625 -1.945312 2.40625 -1.65625 L 2.40625 0 Z M 1.734375 -1.15625 L 1.46875 -1.140625 C 1.269531 -1.128906 1.125 -1.09375 1.03125 -1.03125 C 0.9375 -0.96875 0.890625 -0.867188 0.890625 -0.734375 C 0.890625 -0.546875 1 -0.453125 1.21875 -0.453125 C 1.375 -0.453125 1.5 -0.492188 1.59375 -0.578125 C 1.6875 -0.671875 1.734375 -0.796875 1.734375 -0.953125 Z M 1.734375 -1.15625 "/></g></g></g></svg>